<?xml version="1.0" encoding="utf-8"?>
<!-- Generator: Adobe Illustrator 21.0.2, SVG Export Plug-In . SVG Version: 6.00 Build 0)  -->
<svg version="1.1" id="Vrstva_1" xmlns="http://www.w3.org/2000/svg" xmlns:xlink="http://www.w3.org/1999/xlink" x="0px" y="0px"
	 viewBox="0 0 390.9 85.5" style="enable-background:new 0 0 390.9 85.5;" xml:space="preserve" width="390.9">
<style type="text/css">
	.st0{fill-rule:evenodd;clip-rule:evenodd;fill:#00A8D8;}
	.st1{fill:#00A8D8;}
	.st2{fill:#343434;}
</style>
<g>
	<polygon class="st0" points="283.8,10.9 335.8,10.9 335.8,13.9 283.8,13.9 283.8,10.9 	"/>
	<path class="st1" d="M304.3,73.1h-9.8l-6.2-19.6l-6.3,19.6h-9.8l-10.5-32h10.5l5.7,20.5l6.2-20.5h8.5l6.2,20.5l5.7-20.5h10.5
		L304.3,73.1L304.3,73.1z M323.7,37.4c-3.5,0-5.9-2.1-5.9-5.4c0-3.2,2.4-5.4,5.9-5.4c3.5,0,5.9,2.2,5.9,5.4
		C329.6,35.2,327.2,37.4,323.7,37.4L323.7,37.4z M328.9,73.1h-10.4v-32h10.4V73.1L328.9,73.1z M347.9,49v11.5c0,2.7,0.4,3.4,0.9,4
		c0.5,0.5,1.1,0.8,2.5,0.8c1.6,0,3.1-0.6,3.1-0.6l0.5,8.1c-0.8,0.2-3.6,1-7.4,1c-3.7,0-6.2-1.1-7.8-3c-1.6-1.9-2.3-4.6-2.3-9.4V49
		h-4.6v-7.9h4.6v-8.7h10.5v8.7h7.1V49H347.9L347.9,49z M380.4,73.1V56.3c0-3.9-0.5-7.3-4.9-7.3c-4.4,0-5.7,3.6-5.7,8.4v15.7h-10.4
		V28.3h10.4v10.7c0,3.3-0.1,6.8-0.1,6.8c1.6-2.9,4.7-5.2,9.4-5.2c9.3,0,11.7,5.9,11.7,13.7v18.9H380.4L380.4,73.1z"/>
	<path class="st2" d="M42.7,73.1h-9.8l-6.2-19.6l-6.3,19.6h-9.8L0,41.1h10.5l5.7,20.5l6.2-20.5h8.5l6.2,20.5l5.7-20.5h10.5
		L42.7,73.1L42.7,73.1z M71.8,73.8c-10.1,0-17.8-6.3-17.8-16.6c0-10.3,7.7-16.7,17.8-16.7c10.1,0,17.7,6.4,17.7,16.7
		C89.5,67.5,81.9,73.8,71.8,73.8L71.8,73.8z M71.8,48.7c-4.6,0-7.3,3.6-7.3,8.3s2.7,8.3,7.3,8.3c4.6,0,7.3-3.6,7.3-8.3
		S76.3,48.7,71.8,48.7L71.8,48.7z M115.6,50.6h-0.5c-0.6-0.3-1.9-0.8-3.8-0.8c-2.3,0-4,1.3-4.8,2.3c-0.8,1-1.6,3.1-1.6,6.7v14.2
		H94.6v-32H105l-0.1,4.6h0.1c1.8-3.5,4.5-5.1,7.9-5.1c2.1,0,3.3,0.6,3.3,0.6L115.6,50.6L115.6,50.6z M153.1,73.1h-12l-7.9-12.5
		l-2.9,2.8v9.7H120V28.3h10.4v23.4l9.7-10.6h12l-11.7,12L153.1,73.1L153.1,73.1z M160.9,37.4c-3.5,0-5.9-2.1-5.9-5.4
		c0-3.2,2.4-5.4,5.9-5.4c3.5,0,5.9,2.2,5.9,5.4C166.8,35.2,164.4,37.4,160.9,37.4L160.9,37.4z M166.1,73.1h-10.4v-32h10.4V73.1
		L166.1,73.1z M194.2,73.1V56.4c0-4.2-0.6-7.4-4.9-7.4c-4.5,0-5.7,3.6-5.7,8.3v15.9h-10.4v-32h10.4l-0.1,4.6h0.1
		c1.8-2.9,4.7-5.2,9.3-5.2c9.3,0,11.7,6,11.7,13.7v18.9H194.2L194.2,73.1z M240.2,80.5c-3.1,2.9-7.4,5.1-14.8,5.1
		c-7.4,0-13.3-3.1-15.5-4.7l4.3-7c1.9,1.4,6.8,3.6,11.1,3.6c4.3,0,6.4-1.4,7.5-2.5c1.1-1.2,1.9-3.5,1.9-6.4v-1h-0.1
		c-2,2.5-5.1,4.6-10.1,4.6c-7.9,0-15.1-5.5-15.1-15.8c0-10.3,7.3-15.8,15.1-15.8c5.4,0,8.5,2.5,10.1,4.7h0.1l-0.1-4.1H245v25.5
		C245,73.5,243.3,77.5,240.2,80.5L240.2,80.5z M227.5,48.6c-4.6,0-7.5,3.4-7.5,7.7c0,4.4,2.9,7.8,7.5,7.8s7.5-3.4,7.5-7.8
		C235,52,232.1,48.6,227.5,48.6L227.5,48.6z"/>
	<path class="st2" d="M55.2,11.5c-1.3,1.1-3.1,1.5-5,1.5h-2.4V20h-4.5V0.7h6.9c2,0,3.8,0.4,5,1.5c1.3,1.1,2,2.5,2,4.6
		C57.2,8.9,56.5,10.4,55.2,11.5L55.2,11.5z M51.7,4.8c-0.6-0.4-1.2-0.5-2.2-0.5h-1.8v5.2h1.8c1,0,1.6-0.1,2.2-0.5
		c0.5-0.4,0.9-1.1,0.9-2.1C52.6,5.8,52.2,5.2,51.7,4.8L51.7,4.8z M71.9,14.2h-9.8c0.2,2,1.7,2.9,3.5,2.9c1.8,0,3.4-0.8,4.1-1.3
		l1.8,2.3c-0.4,0.3-2.3,2.2-6.6,2.2c-4.3,0-7.4-2.6-7.4-7.2C57.6,8.6,61,6,65.1,6c4.1,0,6.9,2.7,6.9,6.7
		C72,13.4,71.9,14.2,71.9,14.2L71.9,14.2z M65,8.9c-1.8,0-2.8,1.5-2.9,2.8h5.7C67.8,10.4,66.9,8.9,65,8.9L65,8.9z M80.9,20.4
		c-4.4,0-7.7-2.7-7.7-7.2c0-4.5,3.3-7.2,7.7-7.2c4.4,0,7.6,2.7,7.6,7.2C88.6,17.6,85.3,20.4,80.9,20.4L80.9,20.4z M80.9,9.5
		c-2,0-3.1,1.5-3.1,3.6c0,2,1.1,3.6,3.1,3.6c2,0,3.1-1.5,3.1-3.6C84.1,11.1,82.9,9.5,80.9,9.5L80.9,9.5z M99.7,20.4
		c-2,0-3.5-0.8-4.4-2v6.8h-4.5V6.2h4.3L95,8h0.1c1-1.2,2.5-2,4.6-2c4,0,6.5,3.1,6.5,7.2C106.2,17.2,103.7,20.4,99.7,20.4L99.7,20.4z
		 M98.4,9.5c-1.9,0-3.2,1.5-3.2,3.6c0,2.1,1.3,3.6,3.2,3.6c1.9,0,3.2-1.5,3.2-3.6C101.6,11,100.3,9.5,98.4,9.5L98.4,9.5z M108.4,20
		V0.7h4.5V20H108.4L108.4,20z M129.5,14.2h-9.8c0.2,2,1.7,2.9,3.5,2.9c1.8,0,3.4-0.8,4.1-1.3l1.8,2.3c-0.4,0.3-2.3,2.2-6.6,2.2
		c-4.3,0-7.4-2.6-7.4-7.2c0-4.6,3.4-7.2,7.4-7.2c4.1,0,6.9,2.7,6.9,6.7C129.5,13.4,129.5,14.2,129.5,14.2L129.5,14.2z M122.5,8.9
		c-1.8,0-2.8,1.5-2.9,2.8h5.7C125.3,10.4,124.4,8.9,122.5,8.9L122.5,8.9z M144.9,21.4c-1,2.5-2.1,4-4.5,4c-2.4,0-3.8-0.7-3.8-0.7
		l0.9-3.3c0,0,1,0.4,1.7,0.4c0.5,0,1,0,1.3-0.9l0.5-1.2l-5.5-13.4h4.7l3.1,8.9l3.1-8.9h4.6L144.9,21.4L144.9,21.4z M158.9,20.4
		c-4.4,0-7.7-2.7-7.7-7.2c0-4.5,3.3-7.2,7.7-7.2c4.4,0,7.6,2.7,7.6,7.2C166.6,17.6,163.3,20.4,158.9,20.4L158.9,20.4z M158.9,9.5
		c-2,0-3.1,1.5-3.1,3.6c0,2,1.1,3.6,3.1,3.6c2,0,3.1-1.5,3.1-3.6C162.1,11.1,160.9,9.5,158.9,9.5L158.9,9.5z M177.7,20l0-1.6
		c-0.6,0.8-2,1.9-4,1.9c-2,0-3.2-0.7-3.9-1.6c-0.7-1-1-2.2-1-4.1V6.2h4.5V14c0,1.6,0.4,2.7,2,2.7c1.6,0,2.3-1.3,2.3-3.1V6.2h4.5V20
		H177.7L177.7,20z M207.5,20h-4.2l-2.7-8.5l-2.7,8.5h-4.2l-4.5-13.8h4.5l2.4,8.8l2.7-8.8h3.7l2.7,8.8l2.4-8.8h4.5L207.5,20L207.5,20
		z M215.8,4.6c-1.5,0-2.5-0.9-2.5-2.3c0-1.4,1-2.3,2.5-2.3c1.5,0,2.5,1,2.5,2.3C218.4,3.7,217.3,4.6,215.8,4.6L215.8,4.6z M218.1,20
		h-4.5V6.2h4.5V20L218.1,20z M221.2,20V0.7h4.5V20H221.2L221.2,20z M228.8,20V0.7h4.5V20H228.8L228.8,20z M250.8,20.4
		c-1.9,0-3.5-0.7-4.6-2.1h0l0,1.8H242V0.7h4.5v4.6c0,1.3-0.1,2.5-0.1,2.5h0.1c0.6-0.8,2-1.9,4.3-1.9c4,0,6.5,3.1,6.5,7.2
		C257.3,17.2,254.8,20.4,250.8,20.4L250.8,20.4z M249.6,9.5c-1.9,0-3.2,1.5-3.2,3.6c0,2.1,1.3,3.6,3.2,3.6c1.9,0,3.2-1.5,3.2-3.6
		C252.8,11,251.5,9.5,249.6,9.5L249.6,9.5z M273,14.2h-9.8c0.2,2,1.7,2.9,3.5,2.9c1.8,0,3.4-0.8,4.1-1.3l1.8,2.3
		c-0.4,0.3-2.3,2.2-6.6,2.2c-4.3,0-7.4-2.6-7.4-7.2c0-4.6,3.4-7.2,7.4-7.2c4.1,0,6.9,2.7,6.9,6.7C273.1,13.4,273,14.2,273,14.2
		L273,14.2z M266.1,8.9c-1.8,0-2.8,1.5-2.9,2.8h5.7C268.9,10.4,268,8.9,266.1,8.9L266.1,8.9z"/>
</g>
</svg>
