<?xml version="1.0" encoding="utf-8"?>
<!-- Generator: Adobe Illustrator 21.0.2, SVG Export Plug-In . SVG Version: 6.00 Build 0)  -->
<svg version="1.1" id="Vrstva_1" xmlns="http://www.w3.org/2000/svg" xmlns:xlink="http://www.w3.org/1999/xlink" x="0px" y="0px"
	 viewBox="0 0 394.2 47.3" style="enable-background:new 0 0 394.2 47.3;" xml:space="preserve" width="394.2">
<style type="text/css">
	.st0{fill-rule:evenodd;clip-rule:evenodd;fill:#00A8D8;}
	.st1{fill:#00A8D8;}
	.st2{fill:#343434;}
</style>
<g>
	<polygon class="st0" points="342.2,0.4 394.2,0.4 394.2,3.4 342.2,3.4 342.2,0.4 	"/>
	<path class="st1" d="M149.2,47.3c-4.4,0-8.2-1.6-10.6-4.9h-0.1l0.1,4.2h-9.9V1.7h10.4v10.8c0,2.9-0.1,5.9-0.1,5.9h0.2
		c1.4-1.9,4.6-4.5,10.1-4.5c9.2,0,15.1,7.2,15.1,16.6C164.3,40,158.5,47.3,149.2,47.3L149.2,47.3z M146.3,22.1
		c-4.5,0-7.5,3.4-7.5,8.3c0,4.9,3.1,8.3,7.5,8.3c4.5,0,7.5-3.4,7.5-8.3C153.7,25.5,150.7,22.1,146.3,22.1L146.3,22.1z M200.7,33
		h-22.8c0.5,4.6,4,6.7,8.2,6.7c4.2,0,7.8-1.8,9.6-3.1l4.1,5.4c-1,0.8-5.3,5.2-15.2,5.2c-9.9,0-17.1-6.1-17.1-16.7
		s7.8-16.6,17.3-16.6c9.5,0,16.1,6.3,16.1,15.7C200.8,31.1,200.7,33,200.7,33L200.7,33z M184.6,20.7c-4.3,0-6.5,3.4-6.6,6.4h13.2
		C191.1,24.2,189,20.7,184.6,20.7L184.6,20.7z M226.7,46.5V29.8c0-4.2-0.6-7.4-4.9-7.4c-4.5,0-5.7,3.6-5.7,8.3v15.9h-10.4v-32h10.4
		l-0.1,4.6h0.1c1.8-2.9,4.7-5.2,9.3-5.2c9.3,0,11.7,6,11.7,13.7v18.9H226.7L226.7,46.5z M275.1,33h-22.8c0.5,4.6,4,6.7,8.2,6.7
		c4.2,0,7.8-1.8,9.6-3.1l4.1,5.4c-1,0.8-5.3,5.2-15.2,5.2c-9.9,0-17.1-6.1-17.1-16.7s7.8-16.6,17.3-16.6c9.5,0,16.1,6.3,16.1,15.7
		C275.3,31.1,275.1,33,275.1,33L275.1,33z M259,20.7c-4.3,0-6.5,3.4-6.6,6.4h13.2C265.5,24.2,263.4,20.7,259,20.7L259,20.7z
		 M307.3,10.8c-3.5,0-5.9-2.1-5.9-5.4c0-3.2,2.4-5.4,5.9-5.4s5.9,2.2,5.9,5.4C313.2,8.6,310.8,10.8,307.3,10.8L307.3,10.8z
		 M295.7,8.3c-3.4,0-3.8,2.5-3.8,4.9v1.3h6.9v7.9h-6.9v24.1h-10.5V22.4h-4.1v-7.9h4.1v-1.8c0-3.6,0.6-6.7,2.6-8.6
		c2-2,4.8-3.3,9.1-3.3c3.6,0,6.8,0.8,6.8,0.8l-0.5,7.2C299.5,8.9,297.6,8.3,295.7,8.3L295.7,8.3z M312.5,46.5h-10.4v-32h10.4V46.5
		L312.5,46.5z M331.6,22.4v11.5c0,2.7,0.4,3.4,0.9,4c0.5,0.5,1.1,0.8,2.5,0.8c1.6,0,3.1-0.6,3.1-0.6l0.5,8.1c-0.8,0.2-3.6,1-7.4,1
		c-3.7,0-6.2-1.1-7.8-3c-1.6-1.9-2.3-4.5-2.3-9.4V22.4h-4.6v-7.9h4.6V5.9h10.5v8.7h7.1v7.9H331.6L331.6,22.4z M355.1,20.8
		c-2.5,0-3.8,0.6-3.8,2.3c0,1.7,2.5,2.5,4.7,3.1c2.2,0.7,3.2,1,4.6,1.5c1.4,0.5,3.1,1.4,4.2,2.4c1,1,2.6,3.1,2.6,6.5
		c0,3.3-1.4,5.9-3.8,7.8c-2.3,1.8-5.5,2.8-9.8,2.8c-4.8,0-9.9-1.5-13.5-4.9l3.9-6.2c2.6,2.2,6.9,3.9,9.5,3.9c2.6,0,4.4-0.6,4.4-2.7
		c0-2.1-4.7-3.1-5.9-3.5c-1.2-0.3-3.1-0.8-4.6-1.5c-1.5-0.6-5.5-2.7-5.5-8.4c0-6.2,5.5-10.1,12.2-10.1c6.7,0,10.5,2.5,12.3,4
		l-3.4,6.1C361.3,22.5,357.7,20.8,355.1,20.8L355.1,20.8z"/>
	<path class="st2" d="M23.8,47.3C10.5,47.3,0,38.7,0,24.2C0,9.7,10.5,1,23.8,1s23.8,8.7,23.8,23.2C47.6,38.7,37.1,47.3,23.8,47.3
		L23.8,47.3z M23.8,9.9c-7.5,0-13.1,5.4-13.1,14c0,8.6,5.7,14,13.1,14s13.1-5.5,13.1-14C36.9,15.4,31.3,9.9,23.8,9.9L23.8,9.9z
		 M73.6,46.5l-0.1-3.6c-1.4,2-4.7,4.4-9.4,4.4c-4.6,0-7.5-1.6-9.2-3.8c-1.6-2.2-2.3-5-2.3-9.6V14.5h10.4v17.9c0,3.7,1,6.2,4.7,6.2
		c3.7,0,5.4-2.9,5.4-7.1v-17h10.4v32H73.6L73.6,46.5z M111.5,24.1h-0.5c-0.6-0.3-2-0.8-3.8-0.8c-2.3,0-4,1.3-4.8,2.3
		c-0.8,1-1.6,3.1-1.6,6.7v14.2H90.5v-32h10.4l-0.1,4.6h0.1c1.8-3.5,4.5-5.1,7.9-5.1c2.1,0,3.3,0.6,3.3,0.6L111.5,24.1L111.5,24.1z"
		/>
</g>
</svg>
