<?xml version="1.0" encoding="utf-8"?>
<!-- Generator: Adobe Illustrator 21.0.2, SVG Export Plug-In . SVG Version: 6.00 Build 0)  -->
<svg version="1.1" id="Vrstva_1" xmlns="http://www.w3.org/2000/svg" xmlns:xlink="http://www.w3.org/1999/xlink" x="0px" y="0px"
	 viewBox="0 0 481.4 133.4" style="enable-background:new 0 0 481.4 133.4;" xml:space="preserve" width="483">
<style type="text/css">
	.st0{fill:#FFFFFF;}
	.st1{fill:#00A8D8;}
</style>
<g>
	<path class="st0" d="M75.9,28h-6.6L63.9,8.8L58.6,28H52L43.9,0h6.9l4.9,18.9l5-18.9h6.6l5.1,18.9L77.1,0H84L75.9,28L75.9,28z
		 M95.7,28l-0.1-2.1c-0.9,0.9-2.5,2.6-5.7,2.6c-3.5,0-7.3-1.9-7.3-6.4c0-4.5,4.1-6,7.8-6.1l5-0.2v-0.4c0-2.1-1.5-3.2-4.1-3.2
		c-2.6,0-5.1,1.1-6.1,1.8l-1.7-4.2c1.7-0.9,4.8-2,8.6-2c3.7,0,5.9,0.9,7.5,2.3c1.5,1.5,2.4,3.4,2.4,6.8V28H95.7L95.7,28z M95.4,19.2
		l-3.2,0.2c-2,0.1-3.2,0.9-3.2,2.4c0,1.5,1.3,2.5,3,2.5c1.7,0,2.9-1.1,3.3-1.8V19.2L95.4,19.2z M119,28V17.6c0-2.6-0.4-4.6-3.1-4.6
		c-2.8,0-3.6,2.3-3.6,5.1V28h-6.5V8h6.5l0,2.9h0.1c1.1-1.8,2.9-3.2,5.8-3.2c5.8,0,7.3,3.7,7.3,8.6V28H119L119,28z M137.2,12.9v7.2
		c0,1.7,0.2,2.1,0.6,2.5c0.3,0.3,0.7,0.5,1.5,0.5c1,0,1.9-0.4,1.9-0.4l0.3,5.1c-0.5,0.1-2.3,0.6-4.6,0.6c-2.3,0-3.9-0.7-4.9-1.9
		c-1-1.2-1.4-2.8-1.4-5.9v-7.7h-2.8V8h2.8V2.6h6.5V8h4.4v4.9H137.2L137.2,12.9z M159.7,12.9v7.2c0,1.7,0.2,2.1,0.6,2.5
		c0.3,0.3,0.7,0.5,1.5,0.5c1,0,1.9-0.4,1.9-0.4l0.3,5.1c-0.5,0.1-2.3,0.6-4.6,0.6c-2.3,0-3.9-0.7-4.9-1.9c-1-1.2-1.4-2.8-1.4-5.9
		v-7.7h-2.8V8h2.8V2.6h6.5V8h4.4v4.9H159.7L159.7,12.9z M176.2,28.4c-6.3,0-11.1-3.9-11.1-10.4c0-6.4,4.8-10.4,11.1-10.4
		c6.3,0,11.1,4,11.1,10.4C187.3,24.5,182.6,28.4,176.2,28.4L176.2,28.4z M176.2,12.7c-2.9,0-4.5,2.2-4.5,5.2c0,3,1.7,5.2,4.5,5.2
		c2.8,0,4.5-2.2,4.5-5.2C180.8,15,179.1,12.7,176.2,12.7L176.2,12.7z M223,28h-6.1L213,15.7L209.1,28H203l-6.6-20h6.6l3.5,12.8
		L210.3,8h5.3l3.9,12.8L223,8h6.6L223,28L223,28z M241.1,28.4c-6.3,0-11.1-3.9-11.1-10.4c0-6.4,4.8-10.4,11.1-10.4
		c6.3,0,11.1,4,11.1,10.4C252.2,24.5,247.5,28.4,241.1,28.4L241.1,28.4z M241.1,12.7c-2.9,0-4.5,2.2-4.5,5.2c0,3,1.7,5.2,4.5,5.2
		c2.8,0,4.5-2.2,4.5-5.2C245.7,15,244,12.7,241.1,12.7L241.1,12.7z M268.5,13.9h-0.3c-0.4-0.2-1.2-0.5-2.4-0.5c-1.5,0-2.5,0.8-3,1.5
		c-0.5,0.6-1,1.9-1,4.2V28h-6.5V8h6.5l0,2.8h0.1c1.1-2.2,2.8-3.2,4.9-3.2c1.3,0,2,0.4,2,0.4L268.5,13.9L268.5,13.9z M291.9,28h-7.5
		l-4.9-7.8l-1.8,1.7v6h-6.5V0h6.5v14.6l6.1-6.6h7.5l-7.3,7.5L291.9,28L291.9,28z"/>
	<path class="st0" d="M343.3,132.1l-0.1-7c-2.6,3.7-9.1,8.3-17.9,8.3s-14.4-3.1-17.5-7.2c-3-4.2-4.5-9.6-4.5-18.4v-37h19.9v34.3
		c0,7.1,2,11.9,9.1,11.9c7.1,0,10.3-5.6,10.3-13.7V70.8h19.9v61.3H343.3L343.3,132.1z M399.1,82.8c-4.7,0-7.3,1.2-7.3,4.5
		c0,3.2,4.7,4.7,9,6c4.2,1.2,6.1,1.9,8.7,2.9c2.7,1,5.8,2.6,8,4.6c2,2,5,6,5,12.4c0,6.3-2.7,11.3-7.2,14.9
		c-4.5,3.5-10.6,5.3-18.8,5.3c-9.2,0-18.9-2.9-25.9-9.4l7.5-11.8c5,4.2,13.2,7.5,18.2,7.5c5,0,8.5-1.2,8.5-5.2s-9-6-11.2-6.7
		c-2.4-0.6-5.8-1.6-8.7-2.9c-2.9-1.2-10.4-5.1-10.4-16c0-11.9,10.4-19.3,23.2-19.3c12.8,0,20,4.7,23.5,7.6l-6.5,11.7
		C411,86.1,404.1,82.8,399.1,82.8L399.1,82.8z M472.3,86.4c-4.4,3.9-9.4,6.7-11.3,8.8c-1.1,1.4-1.4,2.4-1.4,4.6l-0.1,5.8h-16.9
		l-0.1-8.1c-0.1-7.7,2.6-11.6,7.8-15.3l7.6-5.5c2.7-2,5.5-4.2,5.5-7.7c0-5.2-4.5-8.1-11.9-8.1c-7.6,0-13.7,3.7-17.5,7.5l-5.7-13.9
		c2.6-2.9,10.6-9.6,26.6-9.6c15.9,0,26.6,10.1,26.6,22C481.4,77.4,477.2,82,472.3,86.4L472.3,86.4z M451.1,112c7,0,11.7,4,11.7,10.7
		c0,6.7-4.7,10.7-11.7,10.7c-7,0-11.7-4-11.7-10.7C439.4,116,444.1,112,451.1,112L451.1,112z"/>
	<path class="st1" d="M98,132.1H77.7L61.4,73.3l-16.3,58.8H24.9L0,46.3h21l14.9,57.8l15.4-57.8h20.1L87,104.1l14.8-57.8h21L98,132.1
		L98,132.1z M138,63.7c-6.7,0-11.3-4.1-11.3-10.3c0-6.1,4.6-10.3,11.3-10.3c6.7,0,11.3,4.2,11.3,10.3
		C149.3,59.6,144.7,63.7,138,63.7L138,63.7z M148,132.1h-19.9V70.8H148V132.1L148,132.1z M184.4,85.9v22c0,5.2,0.7,6.5,1.7,7.6
		c0.9,1,2.1,1.5,4.7,1.5c3.1,0,6-1.1,6-1.1l1,15.5c-1.5,0.4-7,2-14.2,2c-7.1,0-11.8-2.1-14.9-5.7c-3.1-3.6-4.4-8.7-4.4-18V85.9h-8.7
		v-15h8.7V54.2h20v16.7h13.6v15H184.4L184.4,85.9z M246.6,132.1V99.9c0-7.5-1-13.9-9.3-13.9c-8.3,0-10.9,7-10.9,16v30.1h-19.9V46.3
		h19.9v20.4c0,6.2-0.1,12.9-0.1,12.9c3.1-5.5,9-9.9,18-9.9c17.8,0,22.4,11.3,22.4,26.2v36.2H246.6L246.6,132.1z"/>
</g>
</svg>
