<?xml version="1.0" encoding="utf-8"?>
<!-- Generator: Adobe Illustrator 21.0.2, SVG Export Plug-In . SVG Version: 6.00 Build 0)  -->
<svg version="1.1" id="Vrstva_1" xmlns="http://www.w3.org/2000/svg" xmlns:xlink="http://www.w3.org/1999/xlink" x="0px" y="0px"
	 viewBox="0 0 332.4 93.8" style="enable-background:new 0 0 332.4 93.8;" xml:space="preserve" width="332.4">
<style type="text/css">
	.st0{fill-rule:evenodd;clip-rule:evenodd;fill:#00A8D8;}
	.st1{fill:#00A8D8;}
	.st2{fill:#343434;}
</style>
<g>
	<polygon class="st0" points="156.7,28.7 208.7,28.7 208.7,31.7 156.7,31.7 156.7,28.7 	"/>
	<path class="st1" d="M144.7,89.1c-1.9,0-3.5-0.7-4.6-2.1h0l0,1.8h-4.3V69.5h4.5v4.6c0,1.3-0.1,2.5-0.1,2.5h0.1
		c0.6-0.8,2-1.9,4.3-1.9c4,0,6.5,3.1,6.5,7.2C151.2,85.9,148.7,89.1,144.7,89.1L144.7,89.1z M143.5,78.2c-1.9,0-3.2,1.5-3.2,3.6
		c0,2.1,1.3,3.6,3.2,3.6c1.9,0,3.2-1.5,3.2-3.6C146.7,79.7,145.4,78.2,143.5,78.2L143.5,78.2z M162.4,88.8l0-1.6
		c-0.6,0.8-2,1.9-4,1.9c-2,0-3.2-0.7-3.9-1.6c-0.7-1-1-2.2-1-4.1V75h4.5v7.7c0,1.6,0.4,2.7,2,2.7c1.6,0,2.3-1.3,2.3-3.1V75h4.5v13.8
		H162.4L162.4,88.8z M179.9,88.8l0-1.8l-0.1,0c-1,1.4-2.7,2.1-4.5,2.1c-4,0-6.5-3.1-6.5-7.2c0-4.1,2.5-7.2,6.5-7.2
		c2.5,0,3.9,1.3,4.4,1.9v-7.2h4.5v19.3H179.9L179.9,88.8z M176.6,78.2c-1.9,0-3.2,1.5-3.2,3.6c0,2.1,1.3,3.6,3.2,3.6
		c1.9,0,3.2-1.5,3.2-3.6C179.9,79.7,178.6,78.2,176.6,78.2L176.6,78.2z M200.8,83H191c0.2,2,1.7,2.9,3.5,2.9c1.8,0,3.4-0.8,4.1-1.3
		l1.8,2.3c-0.4,0.3-2.3,2.2-6.6,2.2c-4.3,0-7.4-2.6-7.4-7.2s3.4-7.2,7.4-7.2c4.1,0,6.9,2.7,6.9,6.7C200.8,82.1,200.8,83,200.8,83
		L200.8,83z M193.8,77.6c-1.8,0-2.8,1.5-2.9,2.8h5.7C196.6,79.1,195.7,77.6,193.8,77.6L193.8,77.6z M208.2,77.7
		c-1.1,0-1.7,0.3-1.7,1c0,0.7,1.1,1.1,2,1.3c1,0.3,1.4,0.4,2,0.6c0.6,0.2,1.3,0.6,1.8,1c0.4,0.4,1.1,1.3,1.1,2.8
		c0,1.4-0.6,2.5-1.6,3.4c-1,0.8-2.4,1.2-4.2,1.2c-2.1,0-4.3-0.6-5.8-2.1l1.7-2.7c1.1,1,3,1.7,4.1,1.7c1.1,0,1.9-0.3,1.9-1.2
		c0-0.9-2-1.3-2.5-1.5c-0.5-0.1-1.3-0.4-2-0.6c-0.6-0.3-2.4-1.1-2.4-3.6c0-2.7,2.4-4.3,5.2-4.3c2.9,0,4.5,1.1,5.3,1.7l-1.5,2.6
		C210.9,78.4,209.3,77.7,208.2,77.7L208.2,77.7z M205.7,73.5l-2.4-4.1h3l1.5,2.6l1.5-2.6h3l-2.4,4.1H205.7L205.7,73.5z M230,89.1
		c-2,0-3.5-0.8-4.4-2v6.8h-4.5V75h4.3l0,1.8h0.1c1-1.2,2.5-2,4.6-2c4,0,6.5,3.1,6.5,7.2C236.5,85.9,234,89.1,230,89.1L230,89.1z
		 M228.7,78.2c-1.9,0-3.2,1.5-3.2,3.6c0,2.1,1.3,3.6,3.2,3.6c1.9,0,3.2-1.5,3.2-3.6C231.9,79.7,230.6,78.2,228.7,78.2L228.7,78.2z
		 M247.7,79.1h-0.2c-0.3-0.1-0.8-0.3-1.6-0.3c-1,0-1.7,0.6-2.1,1c-0.3,0.4-0.7,1.3-0.7,2.9v6.1h-4.5V75h4.5l0,2h0.1
		c0.8-1.5,1.9-2.2,3.4-2.2c0.9,0,1.4,0.3,1.4,0.3L247.7,79.1L247.7,79.1z M257,88.8l-0.1-1.5c-0.6,0.6-1.7,1.8-3.9,1.8
		c-2.4,0-5-1.3-5-4.4c0-3.1,2.8-4.1,5.4-4.2l3.5-0.1V80c0-1.5-1-2.2-2.8-2.2c-1.8,0-3.5,0.8-4.2,1.2l-1.2-2.9
		c1.2-0.6,3.3-1.4,5.9-1.4c2.6,0,4.1,0.6,5.2,1.6c1.1,1,1.7,2.4,1.7,4.7v7.8H257L257,88.8z M256.8,82.7l-2.2,0.1
		c-1.4,0.1-2.2,0.6-2.2,1.7c0,1.1,0.9,1.7,2.1,1.7c1.2,0,2-0.8,2.3-1.3V82.7L256.8,82.7z M271.2,78.3c-1.9,0-3.4,1.3-3.4,3.5
		c0,2.2,1.4,3.6,3.5,3.6c2.1,0,3.5-1.3,3.5-1.3l1.1,3.4c-0.1,0.1-1.6,1.7-5.3,1.7c-3.8,0-7.3-2.6-7.3-7.2c0-4.6,3.6-7.2,7.3-7.2
		c3.5,0,5.1,1.5,5.1,1.5l-1,3.4C274.3,79.3,273.1,78.3,271.2,78.3L271.2,78.3z M284.4,89.1c-4.4,0-7.7-2.7-7.7-7.2s3.3-7.2,7.7-7.2
		c4.4,0,7.6,2.7,7.6,7.2S288.8,89.1,284.4,89.1L284.4,89.1z M284.4,78.2c-2,0-3.1,1.5-3.1,3.6c0,2,1.1,3.6,3.1,3.6
		c2,0,3.1-1.5,3.1-3.6C287.6,79.8,286.4,78.2,284.4,78.2L284.4,78.2z M301.9,88.8h-4.2L292.1,75h4.7l3.1,8.7L303,75h4.6L301.9,88.8
		L301.9,88.8z M317.1,88.8l-0.1-1.5c-0.6,0.6-1.7,1.8-3.9,1.8c-2.4,0-5-1.3-5-4.4c0-3.1,2.8-4.1,5.4-4.2l3.5-0.1V80
		c0-1.5-1-2.2-2.8-2.2c-1.8,0-3.5,0.8-4.2,1.2l-1.2-2.9c1.2-0.6,3.3-1.4,5.9-1.4c2.6,0,4.1,0.6,5.2,1.6c1.1,1,1.7,2.4,1.7,4.7v7.8
		H317.1L317.1,88.8z M316.9,82.7l-2.2,0.1c-1.4,0.1-2.2,0.6-2.2,1.7c0,1.1,0.9,1.7,2.1,1.7c1.2,0,2-0.8,2.3-1.3V82.7L316.9,82.7z
		 M329.3,78.4v5c0,1.2,0.2,1.5,0.4,1.7c0.2,0.2,0.5,0.3,1.1,0.3c0.7,0,1.3-0.3,1.3-0.3l0.2,3.5c-0.3,0.1-1.6,0.4-3.2,0.4
		c-1.6,0-2.7-0.5-3.4-1.3c-0.7-0.8-1-2-1-4.1v-5.3h-2V75h2v-3.8h4.5V75h3.1v3.4H329.3L329.3,78.4z"/>
	<path class="st2" d="M11.1,88.8H6.9L1.2,75h4.7L9,83.7l3.1-8.7h4.6L11.1,88.8L11.1,88.8z M31.3,83h-9.8c0.2,2,1.7,2.9,3.5,2.9
		c1.8,0,3.4-0.8,4.1-1.3l1.8,2.3c-0.4,0.3-2.3,2.2-6.6,2.2c-4.3,0-7.4-2.6-7.4-7.2s3.4-7.2,7.4-7.2c4.1,0,6.9,2.7,6.9,6.7
		C31.4,82.1,31.3,83,31.3,83L31.3,83z M24.4,77.6c-1.8,0-2.8,1.5-2.9,2.8h5.7C27.2,79.1,26.3,77.6,24.4,77.6L24.4,77.6z M53.3,88.8
		h-5.2l-3.4-5.4l-1.2,1.2v4.2h-4.5V69.5h4.5v10.1l4.2-4.6h5.2l-5,5.2L53.3,88.8L53.3,88.8z M59.6,78.4v5c0,1.2,0.2,1.5,0.4,1.7
		c0.2,0.2,0.5,0.3,1.1,0.3c0.7,0,1.3-0.3,1.3-0.3l0.2,3.5c-0.3,0.1-1.6,0.4-3.2,0.4c-1.6,0-2.7-0.5-3.4-1.3c-0.7-0.8-1-2-1-4.1v-5.3
		h-2V75h2v-3.8h4.5V75h3.1v3.4H59.6L59.6,78.4z M77.6,83h-9.8c0.2,2,1.7,2.9,3.5,2.9c1.8,0,3.4-0.8,4.1-1.3l1.8,2.3
		c-0.4,0.3-2.3,2.2-6.6,2.2c-4.3,0-7.4-2.6-7.4-7.2s3.4-7.2,7.4-7.2c4.1,0,6.9,2.7,6.9,6.7C77.7,82.1,77.6,83,77.6,83L77.6,83z
		 M70.7,77.6c-1.8,0-2.8,1.5-2.9,2.8h5.7C73.5,79.1,72.6,77.6,70.7,77.6L70.7,77.6z M88.8,79.1h-0.2c-0.3-0.1-0.8-0.3-1.6-0.3
		c-1,0-1.7,0.6-2.1,1c-0.3,0.4-0.7,1.3-0.7,2.9v6.1h-4.5V75h4.5l0,2h0.1c0.8-1.5,1.9-2.2,3.4-2.2c0.9,0,1.4,0.3,1.4,0.3L88.8,79.1
		L88.8,79.1z M103.7,83h-9.8c0.2,2,1.7,2.9,3.5,2.9c1.8,0,3.4-0.8,4.1-1.3l1.8,2.3c-0.4,0.3-2.3,2.2-6.6,2.2c-4.3,0-7.4-2.6-7.4-7.2
		s3.4-7.2,7.4-7.2c4.1,0,6.9,2.7,6.9,6.7C103.7,82.1,103.7,83,103.7,83L103.7,83z M96.7,77.6c-1.8,0-2.8,1.5-2.9,2.8h5.7
		C99.5,79.1,98.6,77.6,96.7,77.6L96.7,77.6z M94.7,73.5l2.2-4.1h3.8l-2.9,4.1H94.7L94.7,73.5z M122.9,88.8v-7.5
		c0-1.5-0.3-2.9-1.8-2.9c-1.6,0-2.2,1.4-2.2,3.3v7.1h-4.5v-7.5c0-1.7-0.4-2.9-1.8-2.9c-1.6,0-2.2,1.4-2.2,3.3v7.1h-4.5V75h4.5l0,2
		l0.1,0c0.7-1.1,2-2.2,3.8-2.2c1.9,0,3.4,0.6,4.1,2.5c1-1.7,2.4-2.5,4.4-2.5c3.5,0,4.8,2.4,4.8,5.7v8.3H122.9L122.9,88.8z"/>
	<path class="st2" d="M22.1,8.3v36.5H11.6V8.3H0V0h33.7v8.3H22.1L22.1,8.3z M41.5,9.4L46.7,0h8.8l-6.6,9.4H41.5L41.5,9.4z
		 M53.2,12.8h10.7L49.6,47.9c-2.3,5.7-4.9,9.2-10.4,9.2c-5.5,0-8.9-1.6-8.9-1.6l2.1-7.7c0,0,2.3,0.8,3.8,0.8c1.2,0,2.3,0,3.1-2.1
		l1.2-2.8L27.8,12.8h10.9L46,33.4L53.2,12.8L53.2,12.8z M106.6,44.9V27.4c0-3.4-0.6-6.7-4.2-6.7c-3.6,0-5.2,3.2-5.2,7.7v16.4H86.8
		V27.4c0-4-0.9-6.7-4.3-6.7c-3.6,0-5.2,3.2-5.2,7.7v16.4H66.9v-32h10.4l-0.1,4.6l0.1-0.1c1.6-2.7,4.7-5.1,8.8-5.1
		c4.4,0,7.9,1.5,9.6,5.8c2.3-3.9,5.5-5.8,10.2-5.8c8.2,0,11.1,5.6,11.1,13.3v19.3H106.6L106.6,44.9z M130.9,54h-8.5l5.5-18.6h10
		L130.9,54L130.9,54z"/>
</g>
</svg>
