<?xml version="1.0" encoding="utf-8"?>
<!-- Generator: Adobe Illustrator 21.0.2, SVG Export Plug-In . SVG Version: 6.00 Build 0)  -->
<svg version="1.1" id="Vrstva_1" xmlns="http://www.w3.org/2000/svg" xmlns:xlink="http://www.w3.org/1999/xlink" x="0px" y="0px"
	 viewBox="0 0 331.6 49.9" style="enable-background:new 0 0 331.6 49.9;" xml:space="preserve" width="331.6">
<style type="text/css">
	.st0{fill-rule:evenodd;clip-rule:evenodd;fill:#00A8D8;}
	.st1{fill:#00A8D8;}
	.st2{fill:#343434;}
</style>
<g>
	<polygon class="st0" points="276.1,0 328,0 328,3 276.1,3 276.1,0 	"/>
	<path class="st1" d="M144.9,24.9c-4.4,0-7.9,3.1-7.9,8.1c0,5.1,3.2,8.3,8.1,8.3c4.9,0,8.1-3.1,8.1-3.1l2.5,7.9
		c-0.3,0.3-3.7,3.8-12.2,3.8c-8.8,0-16.9-6-16.9-16.6c0-10.7,8.3-16.7,17-16.7c8.2,0,11.9,3.4,11.9,3.4l-2.3,7.9
		C152.2,27.1,149.4,24.9,144.9,24.9L144.9,24.9z M180.4,49.1l-0.1-3.6c-1.4,1.9-4.7,4.4-9.4,4.4c-4.6,0-7.5-1.6-9.2-3.8
		c-1.6-2.2-2.3-5-2.3-9.6V17.1h10.4v17.9c0,3.7,1,6.2,4.7,6.2c3.7,0,5.4-2.9,5.4-7.1v-17h10.4v32H180.4L180.4,49.1z M197.6,49.1V4.3
		H208v44.8H197.6L197.6,49.1z M227.1,25v11.5c0,2.7,0.4,3.4,0.9,4c0.5,0.5,1.1,0.8,2.5,0.8c1.6,0,3.1-0.6,3.1-0.6l0.5,8.1
		c-0.8,0.2-3.6,1-7.4,1c-3.7,0-6.2-1.1-7.8-3c-1.6-1.9-2.3-4.5-2.3-9.4V25h-4.5v-7.9h4.5V8.5h10.5v8.7h7.1V25H227.1L227.1,25z
		 M259.1,49.1l-0.1-3.6c-1.4,1.9-4.7,4.4-9.4,4.4c-4.6,0-7.5-1.6-9.2-3.8c-1.6-2.2-2.3-5-2.3-9.6V17.1h10.4v17.9
		c0,3.7,1,6.2,4.7,6.2c3.7,0,5.4-2.9,5.4-7.1v-17h10.4v32H259.1L259.1,49.1z M297,26.7h-0.5c-0.6-0.3-1.9-0.8-3.8-0.8
		c-2.3,0-4,1.3-4.8,2.3c-0.8,1-1.6,3.1-1.6,6.7v14.2H276v-32h10.4l-0.1,4.5h0.1c1.8-3.5,4.5-5.1,7.9-5.1c2.1,0,3.2,0.6,3.2,0.6
		L297,26.7L297,26.7z M331.4,35.6h-22.8c0.5,4.6,4,6.7,8.2,6.7c4.2,0,7.8-1.8,9.6-3.1l4.1,5.4c-1,0.8-5.3,5.2-15.2,5.2
		c-9.9,0-17.1-6.1-17.1-16.7c0-10.6,7.8-16.6,17.3-16.6c9.5,0,16,6.3,16,15.7C331.6,33.8,331.4,35.6,331.4,35.6L331.4,35.6z
		 M315.3,23.3c-4.3,0-6.5,3.4-6.6,6.4h13.2C321.8,26.8,319.7,23.3,315.3,23.3L315.3,23.3z"/>
	<path class="st2" d="M23.8,49.9C10.5,49.9,0,41.3,0,26.8C0,12.3,10.5,3.6,23.8,3.6c13.3,0,23.8,8.7,23.8,23.2
		C47.6,41.3,37.1,49.9,23.8,49.9L23.8,49.9z M23.8,12.6c-7.5,0-13.1,5.4-13.1,14c0,8.6,5.7,14,13.1,14c7.5,0,13.1-5.5,13.1-14
		C36.9,18,31.3,12.6,23.8,12.6L23.8,12.6z M73.6,49.1l-0.1-3.6c-1.4,1.9-4.7,4.4-9.4,4.4c-4.6,0-7.5-1.6-9.2-3.8
		c-1.6-2.2-2.3-5-2.3-9.6V17.1H63v17.9c0,3.7,1,6.2,4.7,6.2c3.7,0,5.4-2.9,5.4-7.1v-17h10.4v32H73.6L73.6,49.1z M111.5,26.7H111
		c-0.6-0.3-1.9-0.8-3.8-0.8c-2.3,0-4,1.3-4.8,2.3c-0.8,1-1.6,3.1-1.6,6.7v14.2H90.4v-32h10.4l-0.1,4.5h0.1c1.8-3.5,4.5-5.1,7.9-5.1
		c2.1,0,3.2,0.6,3.2,0.6L111.5,26.7L111.5,26.7z"/>
</g>
</svg>
