<?xml version="1.0" encoding="utf-8"?>
<!-- Generator: Adobe Illustrator 21.0.2, SVG Export Plug-In . SVG Version: 6.00 Build 0)  -->
<svg version="1.1" id="Vrstva_1" xmlns="http://www.w3.org/2000/svg" xmlns:xlink="http://www.w3.org/1999/xlink" x="0px" y="0px"
	 viewBox="0 0 234.2 121" style="enable-background:new 0 0 234.2 121;" xml:space="preserve" width="234.2">
<style type="text/css">
	.st0{fill-rule:evenodd;clip-rule:evenodd;fill:#00A8D8;}
	.st1{fill:#00A8D8;}
	.st2{fill:#343434;}
</style>
<g>
	<polygon class="st0" points="182.2,0 234.2,0 234.2,3 182.2,3 182.2,0 	"/>
	<path class="st1" d="M35,95.7H12.2c0.5,4.6,4,6.7,8.2,6.7c4.2,0,7.8-1.8,9.6-3.1l4.1,5.4c-1,0.8-5.3,5.2-15.2,5.2
		c-9.9,0-17.1-6.1-17.1-16.7c0-10.6,7.8-16.6,17.3-16.6c9.5,0,16.1,6.3,16.1,15.7C35.1,93.8,35,95.7,35,95.7L35,95.7z M18.8,83.3
		c-4.3,0-6.5,3.4-6.6,6.4h13.2C25.4,86.8,23.2,83.3,18.8,83.3L18.8,83.3z M72.9,109.2H61.1l-7.2-10.7l-7.3,10.7H34.8l12.9-16.7
		L36.1,77.1h11.8l6,9.6l5.9-9.6h11.8L60.1,92.5L72.9,109.2L72.9,109.2z M96.4,109.9c-4.7,0-8.1-1.8-10.1-4.7V121H75.9V77.1h9.9
		l-0.1,4.1h0.1c2.3-2.8,5.8-4.7,10.7-4.7c9.2,0,15.1,7.2,15.1,16.6C111.5,102.6,105.7,109.9,96.4,109.9L96.4,109.9z M93.4,84.7
		c-4.4,0-7.5,3.4-7.5,8.3c0,4.9,3.1,8.3,7.5,8.3c4.5,0,7.5-3.4,7.5-8.3C100.9,88.1,97.9,84.7,93.4,84.7L93.4,84.7z M147.9,95.7
		h-22.8c0.5,4.6,4,6.7,8.2,6.7c4.2,0,7.8-1.8,9.6-3.1l4.1,5.4c-1,0.8-5.3,5.2-15.2,5.2c-9.9,0-17.1-6.1-17.1-16.7
		c0-10.6,7.8-16.6,17.3-16.6c9.5,0,16.1,6.3,16.1,15.7C148,93.8,147.9,95.7,147.9,95.7L147.9,95.7z M131.8,83.3
		c-4.3,0-6.5,3.4-6.6,6.4h13.2C138.3,86.8,136.1,83.3,131.8,83.3L131.8,83.3z M169.3,84.9c-4.4,0-7.9,3.1-7.9,8.1
		c0,5.1,3.2,8.3,8.1,8.3c4.9,0,8.1-3.1,8.1-3.1l2.5,7.9c-0.3,0.3-3.7,3.8-12.2,3.8c-8.8,0-16.9-6-16.9-16.6c0-10.7,8.3-16.7,17-16.7
		c8.2,0,11.9,3.4,11.9,3.4l-2.3,7.9C176.7,87.1,173.8,84.9,169.3,84.9L169.3,84.9z M196.2,85.1v11.5c0,2.7,0.4,3.4,0.9,4
		c0.5,0.5,1.1,0.8,2.5,0.8c1.6,0,3.1-0.6,3.1-0.6l0.5,8.1c-0.8,0.2-3.6,1-7.4,1c-3.7,0-6.2-1.1-7.8-3c-1.6-1.9-2.3-4.6-2.3-9.4V85.1
		h-4.6v-7.9h4.6v-8.7h10.5v8.7h7.1v7.9H196.2L196.2,85.1z"/>
	<path class="st2" d="M51.2,49.2H40.6l-8.5-30.7l-8.5,30.7H13L0,4.3h11l7.8,30.2l8.1-30.2h10.5l8.1,30.2l7.7-30.2h11L51.2,49.2
		L51.2,49.2z M88.7,49.2V32.4c0-3.9-0.5-7.3-4.9-7.3c-4.4,0-5.7,3.6-5.7,8.4v15.7H67.7V4.3h10.4V15c0,3.2-0.1,6.8-0.1,6.8
		c1.6-2.9,4.7-5.2,9.4-5.2c9.3,0,11.7,5.9,11.7,13.7v18.9H88.7L88.7,49.2z M124.5,49.2l-0.2-3.4c-1.4,1.4-4,4.1-9.2,4.1
		c-5.7,0-11.6-3.1-11.6-10.2c0-7.2,6.6-9.6,12.5-9.8l8.1-0.3v-0.7c0-3.4-2.4-5.1-6.6-5.1c-4.1,0-8.2,1.8-9.8,2.9l-2.7-6.8
		c2.7-1.4,7.7-3.2,13.7-3.2c6,0,9.4,1.4,12,3.7c2.5,2.3,3.8,5.5,3.8,10.9v18.1H124.5L124.5,49.2z M124.1,35.1l-5.1,0.3
		c-3.2,0.1-5.1,1.5-5.1,3.9c0,2.5,2,4,4.9,4c2.8,0,4.7-1.8,5.3-2.9V35.1L124.1,35.1z M152.9,25.1v11.5c0,2.7,0.4,3.4,0.9,4
		c0.5,0.5,1.1,0.8,2.5,0.8c1.6,0,3.1-0.6,3.1-0.6l0.5,8.1c-0.8,0.2-3.6,1-7.4,1c-3.7,0-6.2-1.1-7.8-3c-1.6-1.9-2.3-4.6-2.3-9.4V25.1
		h-4.6v-7.9h4.6V8.5h10.5v8.7h7.1v7.9H152.9L152.9,25.1z M189,25.1v11.5c0,2.7,0.4,3.4,0.9,4c0.5,0.5,1.1,0.8,2.5,0.8
		c1.6,0,3.1-0.6,3.1-0.6l0.5,8.1c-0.8,0.2-3.6,1-7.4,1c-3.7,0-6.2-1.1-7.8-3c-1.6-1.9-2.3-4.6-2.3-9.4V25.1H174v-7.9h4.6V8.5H189
		v8.7h7.1v7.9H189L189,25.1z M215.5,49.9c-10.1,0-17.8-6.3-17.8-16.6c0-10.3,7.7-16.7,17.8-16.7c10.1,0,17.7,6.4,17.7,16.7
		C233.3,43.6,225.7,49.9,215.5,49.9L215.5,49.9z M215.5,24.7c-4.6,0-7.3,3.6-7.3,8.3c0,4.7,2.7,8.3,7.3,8.3c4.6,0,7.3-3.6,7.3-8.3
		C222.8,28.3,220.1,24.7,215.5,24.7L215.5,24.7z"/>
</g>
</svg>
