<?xml version="1.0" encoding="utf-8"?>
<!-- Generator: Adobe Illustrator 21.0.2, SVG Export Plug-In . SVG Version: 6.00 Build 0)  -->
<svg version="1.1" id="Vrstva_1" xmlns="http://www.w3.org/2000/svg" xmlns:xlink="http://www.w3.org/1999/xlink" x="0px" y="0px"
	 viewBox="0 0 355.9 61" style="enable-background:new 0 0 355.9 61;" xml:space="preserve" width="355.9">
<style type="text/css">
	.st0{fill-rule:evenodd;clip-rule:evenodd;fill:#00A8D8;}
	.st1{fill:#00A8D8;}
	.st2{fill:#343434;}
</style>
<g>
	<polygon class="st0" points="303.9,0 355.9,0 355.9,3 303.9,3 303.9,0 	"/>
	<path class="st1" d="M213.5,49.9c-4.7,0-8.1-1.8-10.1-4.7V61h-10.4V17.1h9.9l-0.1,4.1h0.1c2.3-2.8,5.8-4.7,10.7-4.7
		c9.2,0,15.1,7.2,15.1,16.6C228.6,42.6,222.8,49.9,213.5,49.9L213.5,49.9z M210.5,24.7c-4.4,0-7.5,3.4-7.5,8.3s3.1,8.3,7.5,8.3
		c4.5,0,7.5-3.4,7.5-8.3S215,24.7,210.5,24.7L210.5,24.7z M254.7,26.7h-0.5c-0.6-0.3-1.9-0.8-3.8-0.8c-2.3,0-4,1.3-4.8,2.3
		c-0.8,1-1.6,3.1-1.6,6.7v14.2h-10.4v-32H244l-0.1,4.5h0.1c1.8-3.5,4.5-5.1,7.9-5.1c2.1,0,3.3,0.6,3.3,0.6L254.7,26.7L254.7,26.7z
		 M276.2,49.2l-0.2-3.4c-1.4,1.4-4,4.1-9.2,4.1c-5.7,0-11.6-3.1-11.6-10.2s6.6-9.6,12.5-9.8l8.1-0.3v-0.7c0-3.4-2.4-5.1-6.6-5.1
		c-4.1,0-8.2,1.8-9.8,2.9l-2.7-6.8c2.7-1.4,7.7-3.2,13.7-3.2c6,0,9.4,1.4,12,3.7c2.5,2.3,3.8,5.5,3.8,10.9v18.1H276.2L276.2,49.2z
		 M275.9,35.1l-5.1,0.3c-3.2,0.1-5.1,1.5-5.1,3.9c0,2.5,2,4,4.9,4c2.8,0,4.7-1.8,5.3-2.9V35.1L275.9,35.1z M266.1,13.8l5.2-9.4h8.8
		l-6.6,9.4H266.1L266.1,13.8z M309.1,24.9c-4.4,0-7.9,3.1-7.9,8.1s3.2,8.3,8.1,8.3c4.9,0,8.1-3.1,8.1-3.1l2.5,7.9
		c-0.3,0.3-3.7,3.8-12.2,3.8c-8.8,0-16.9-6-16.9-16.6c0-10.7,8.3-16.7,17-16.7c8.2,0,11.9,3.4,11.9,3.4l-2.3,7.9
		C316.5,27.1,313.6,24.9,309.1,24.9L309.1,24.9z M355.3,35.7h-22.8c0.5,4.6,4,6.7,8.2,6.7c4.2,0,7.8-1.8,9.6-3.1l4.1,5.4
		c-1,0.8-5.3,5.2-15.2,5.2c-9.9,0-17.1-6.1-17.1-16.7c0-10.6,7.8-16.6,17.3-16.6c9.5,0,16.1,6.3,16.1,15.7
		C355.4,33.8,355.3,35.7,355.3,35.7L355.3,35.7z M339.2,23.3c-4.3,0-6.5,3.4-6.6,6.4h13.2C345.7,26.8,343.5,23.3,339.2,23.3
		L339.2,23.3z"/>
	<path class="st2" d="M29.8,49.2L10.1,18.8c0,0,0.2,5.4,0.2,10.1v20.3H0V4.3h11.2l19.2,30.2c0,0-0.2-5.1-0.2-9.8V4.3h10.3v44.9H29.8
		L29.8,49.2z M66.9,49.2l-0.2-3.4c-1.4,1.4-4,4.1-9.2,4.1c-5.7,0-11.6-3.1-11.6-10.2s6.6-9.6,12.5-9.8l8.1-0.3v-0.7
		c0-3.4-2.4-5.1-6.6-5.1c-4.1,0-8.2,1.8-9.8,2.9l-2.7-6.8c2.7-1.4,7.7-3.2,13.7-3.2c6,0,9.4,1.4,12,3.7c2.5,2.3,3.8,5.5,3.8,10.9
		v18.1H66.9L66.9,49.2z M66.5,35.1l-5.1,0.3c-3.2,0.1-5.1,1.5-5.1,3.9c0,2.5,2,4,4.9,4c2.8,0,4.7-1.8,5.3-2.9V35.1L66.5,35.1z
		 M56.7,13.8l5.2-9.4h8.8l-6.6,9.4H56.7L56.7,13.8z M103.9,49.9c-4.7,0-8.1-1.8-10.1-4.7V61H83.4V17.1h9.9l-0.1,4.1h0.1
		c2.3-2.8,5.8-4.7,10.7-4.7c9.2,0,15.1,7.2,15.1,16.6C119.1,42.6,113.2,49.9,103.9,49.9L103.9,49.9z M100.9,24.7
		c-4.4,0-7.5,3.4-7.5,8.3s3.1,8.3,7.5,8.3c4.5,0,7.5-3.4,7.5-8.3S105.4,24.7,100.9,24.7L100.9,24.7z M124.3,49.2V4.3h10.4v44.9
		H124.3L124.3,49.2z M162.9,49.2V32.5c0-4.2-0.6-7.4-4.9-7.4c-4.5,0-5.7,3.6-5.7,8.3v15.9h-10.4v-32h10.4l-0.1,4.6h0.1
		c1.8-2.9,4.7-5.2,9.3-5.2c9.3,0,11.7,6,11.7,13.7v18.9H162.9L162.9,49.2z M152.6,13.8L147,4.3h7l3.5,6l3.5-6h7l-5.5,9.4H152.6
		L152.6,13.8z"/>
</g>
</svg>
