<?xml version="1.0" encoding="utf-8"?>
<!-- Generator: Adobe Illustrator 21.0.2, SVG Export Plug-In . SVG Version: 6.00 Build 0)  -->
<svg version="1.1" id="Vrstva_1" xmlns="http://www.w3.org/2000/svg" xmlns:xlink="http://www.w3.org/1999/xlink" x="0px" y="0px"
	 viewBox="0 0 263.4 46.9" style="enable-background:new 0 0 263.4 46.9;" xml:space="preserve" width="263.4">
<style type="text/css">
	.st0{fill-rule:evenodd;clip-rule:evenodd;fill:#00A8D8;}
	.st1{fill:#00A8D8;}
	.st2{fill:#343434;}
</style>
<g>
	<polygon class="st0" points="211.2,0 263.2,0 263.2,3 211.2,3 211.2,0 	"/>
	<path class="st1" d="M222,46.2l-0.1-3.6c-1.4,1.9-4.7,4.4-9.4,4.4s-7.5-1.6-9.2-3.8c-1.6-2.2-2.3-5-2.3-9.6V14.1h10.4v17.9
		c0,3.7,1,6.2,4.7,6.2c3.7,0,5.4-2.9,5.4-7.1v-17H232v32H222L222,46.2z M251.2,20.4c-2.5,0-3.8,0.6-3.8,2.3c0,1.7,2.5,2.5,4.7,3.1
		c2.2,0.7,3.2,1,4.5,1.5c1.4,0.5,3.1,1.4,4.2,2.4c1,1,2.6,3.1,2.6,6.5c0,3.3-1.4,5.9-3.8,7.8c-2.3,1.8-5.5,2.8-9.8,2.8
		c-4.8,0-9.9-1.5-13.5-4.9l3.9-6.2c2.6,2.2,6.9,3.9,9.5,3.9c2.6,0,4.4-0.6,4.4-2.7c0-2.1-4.7-3.1-5.9-3.5c-1.2-0.3-3.1-0.8-4.5-1.5
		c-1.5-0.6-5.5-2.7-5.5-8.4c0-6.2,5.5-10.1,12.2-10.1c6.7,0,10.5,2.5,12.3,4l-3.4,6.1C257.5,22.1,253.8,20.4,251.2,20.4L251.2,20.4z
		"/>
	<path class="st2" d="M33.3,46.2l-3.2-9h-16l-3.2,9H0L16.9,1.3h10.9l16.9,44.9H33.3L33.3,46.2z M22.1,12.8L16.5,29h11.2L22.1,12.8
		L22.1,12.8z M68.6,46.9c-4.4,0-8.2-1.6-10.6-4.9H58l0.1,4.2h-9.9V1.3h10.4v10.8c0,2.9-0.1,5.9-0.1,5.9h0.2
		c1.4-1.9,4.6-4.5,10.1-4.5c9.2,0,15.1,7.2,15.1,16.6C83.8,39.6,77.9,46.9,68.6,46.9L68.6,46.9z M65.7,21.7c-4.5,0-7.5,3.4-7.5,8.3
		c0,4.9,3.1,8.3,7.5,8.3c4.5,0,7.5-3.4,7.5-8.3C73.2,25.1,70.2,21.7,65.7,21.7L65.7,21.7z M104.8,46.9C94.6,46.9,87,40.6,87,30.3
		c0-10.3,7.7-16.7,17.8-16.7c10.1,0,17.7,6.4,17.7,16.7C122.5,40.6,114.9,46.9,104.8,46.9L104.8,46.9z M104.8,21.7
		c-4.6,0-7.3,3.6-7.3,8.3c0,4.7,2.7,8.3,7.3,8.3c4.5,0,7.3-3.6,7.3-8.3C112.1,25.3,109.3,21.7,104.8,21.7L104.8,21.7z M148.3,46.2
		l-0.1-3.6c-1.4,1.9-4.7,4.4-9.4,4.4s-7.5-1.6-9.2-3.8c-1.6-2.2-2.3-5-2.3-9.6V14.1h10.4v17.9c0,3.7,1,6.2,4.7,6.2
		c3.7,0,5.4-2.9,5.4-7.1v-17h10.4v32H148.3L148.3,46.2z M177.3,22.1v11.5c0,2.7,0.4,3.4,0.9,4c0.5,0.5,1.1,0.8,2.5,0.8
		c1.6,0,3.1-0.6,3.1-0.6l0.5,8.1c-0.8,0.2-3.6,1-7.4,1c-3.7,0-6.2-1.1-7.8-3c-1.6-1.9-2.3-4.6-2.3-9.4V22.1h-4.6v-7.9h4.6V5.5h10.5
		v8.7h7.1v7.9H177.3L177.3,22.1z"/>
</g>
</svg>
