<?xml version="1.0" encoding="utf-8"?>
<!-- Generator: Adobe Illustrator 21.0.2, SVG Export Plug-In . SVG Version: 6.00 Build 0)  -->
<svg version="1.1" id="Vrstva_1" xmlns="http://www.w3.org/2000/svg" xmlns:xlink="http://www.w3.org/1999/xlink" x="0px" y="0px"
	 viewBox="0 0 461.8 47.3" style="enable-background:new 0 0 461.8 47.3;" xml:space="preserve" width="461.8">
<style type="text/css">
	.st0{fill-rule:evenodd;clip-rule:evenodd;fill:#00A8D8;}
	.st1{fill:#343434;}
	.st2{fill:#00A8D8;}
</style>
<g>
	<polygon class="st0" points="408.2,0.4 460.2,0.4 460.2,3.4 408.2,3.4 408.2,0.4 	"/>
	<path class="st1" d="M51.2,46.5H40.6l-8.5-30.7l-8.5,30.7H13L0,1.7h11l7.8,30.2l8.1-30.2h10.5l8.1,30.2l7.7-30.2h11L51.2,46.5
		L51.2,46.5z M95.6,33H72.7c0.5,4.6,4,6.7,8.2,6.7c4.2,0,7.8-1.8,9.6-3.1l4.1,5.4c-1,0.8-5.3,5.2-15.2,5.2
		c-9.9,0-17.1-6.1-17.1-16.7s7.8-16.6,17.3-16.6c9.5,0,16.1,6.3,16.1,15.7C95.7,31.1,95.6,33,95.6,33L95.6,33z M79.4,20.7
		c-4.3,0-6.5,3.4-6.6,6.4H86C85.9,24.2,83.8,20.7,79.4,20.7L79.4,20.7z M152.7,46.5h-9.8l-6.2-19.6l-6.3,19.6h-9.8l-10.5-32h10.5
		l5.7,20.5l6.2-20.5h8.5L147,35l5.7-20.5h10.5L152.7,46.5L152.7,46.5z M185.6,46.5l-0.2-3.4c-1.4,1.4-4,4.1-9.2,4.1
		c-5.7,0-11.6-3.1-11.6-10.2c0-7.1,6.6-9.6,12.5-9.8l8.1-0.3v-0.7c0-3.4-2.4-5.1-6.6-5.1c-4.1,0-8.2,1.8-9.8,2.9l-2.7-6.8
		c2.7-1.4,7.7-3.3,13.7-3.3c6,0,9.4,1.4,12,3.7c2.5,2.3,3.8,5.5,3.8,10.9v18.1H185.6L185.6,46.5z M185.2,32.4l-5.1,0.3
		c-3.2,0.1-5.1,1.5-5.1,3.9c0,2.5,2,4,4.9,4c2.8,0,4.7-1.8,5.3-2.9V32.4L185.2,32.4z M223,46.5V29.8c0-4.2-0.6-7.4-4.9-7.4
		c-4.5,0-5.7,3.6-5.7,8.3v15.9H202v-32h10.4l-0.1,4.6h0.1c1.8-2.9,4.7-5.2,9.3-5.2c9.3,0,11.7,6,11.7,13.7v18.9H223L223,46.5z
		 M252.1,22.4v11.5c0,2.7,0.4,3.4,0.9,4c0.5,0.5,1.1,0.8,2.5,0.8c1.6,0,3.1-0.6,3.1-0.6l0.5,8.1c-0.8,0.2-3.6,1-7.4,1
		c-3.7,0-6.2-1.1-7.8-3s-2.3-4.5-2.3-9.4V22.4h-4.5v-7.9h4.5V5.9h10.5v8.7h7.1v7.9H252.1L252.1,22.4z"/>
	<path class="st2" d="M288.2,22.4v11.5c0,2.7,0.4,3.4,0.9,4c0.5,0.5,1.1,0.8,2.5,0.8c1.6,0,3.1-0.6,3.1-0.6l0.5,8.1
		c-0.8,0.2-3.6,1-7.4,1c-3.7,0-6.2-1.1-7.8-3s-2.3-4.5-2.3-9.4V22.4h-4.6v-7.9h4.6V5.9h10.5v8.7h7.1v7.9H288.2L288.2,22.4z
		 M314.7,47.3c-10.1,0-17.8-6.3-17.8-16.6c0-10.3,7.7-16.7,17.8-16.7c10.1,0,17.7,6.4,17.7,16.7C332.5,41,324.9,47.3,314.7,47.3
		L314.7,47.3z M314.7,22.1c-4.6,0-7.3,3.6-7.3,8.3c0,4.7,2.7,8.3,7.3,8.3c4.6,0,7.3-3.6,7.3-8.3C322,25.7,319.3,22.1,314.7,22.1
		L314.7,22.1z M371.6,46.5V29.7c0-3.9-0.5-7.3-4.9-7.3c-4.4,0-5.7,3.6-5.7,8.4v15.7h-10.4V1.7H361v10.7c0,3.3-0.1,6.8-0.1,6.8
		c1.6-2.9,4.7-5.2,9.4-5.2c9.3,0,11.7,5.9,11.7,13.7v18.9H371.6L371.6,46.5z M394,10.8c-3.5,0-5.9-2.1-5.9-5.4
		c0-3.2,2.4-5.4,5.9-5.4c3.5,0,5.9,2.2,5.9,5.4C399.9,8.6,397.5,10.8,394,10.8L394,10.8z M399.2,46.5h-10.4v-32h10.4V46.5
		L399.2,46.5z M427.2,24.1h-0.5c-0.6-0.3-1.9-0.8-3.8-0.8c-2.3,0-4,1.3-4.8,2.3c-0.8,1-1.6,3.1-1.6,6.7v14.2h-10.4v-32h10.4
		l-0.1,4.5h0.1c1.8-3.5,4.5-5.1,7.9-5.1c2.1,0,3.2,0.6,3.2,0.6L427.2,24.1L427.2,24.1z M461.7,33h-22.8c0.5,4.6,4,6.7,8.2,6.7
		c4.2,0,7.8-1.8,9.6-3.1l4.1,5.4c-1,0.8-5.3,5.2-15.2,5.2c-9.9,0-17.1-6.1-17.1-16.7s7.8-16.6,17.3-16.6c9.5,0,16.1,6.3,16.1,15.7
		C461.8,31.1,461.7,33,461.7,33L461.7,33z M445.6,20.7c-4.3,0-6.5,3.4-6.6,6.4h13.2C452.1,24.2,449.9,20.7,445.6,20.7L445.6,20.7z"
		/>
</g>
</svg>
