<?xml version="1.0" encoding="utf-8"?>
<!-- Generator: Adobe Illustrator 21.0.2, SVG Export Plug-In . SVG Version: 6.00 Build 0)  -->
<svg version="1.1" id="Vrstva_1" xmlns="http://www.w3.org/2000/svg" xmlns:xlink="http://www.w3.org/1999/xlink" x="0px" y="0px"
	 viewBox="0 0 367.4 84.8" style="enable-background:new 0 0 367.4 84.8;" xml:space="preserve" width="367.4">
<style type="text/css">
	.st0{fill-rule:evenodd;clip-rule:evenodd;fill:#00A8D8;}
	.st1{fill:#00A8D8;}
	.st2{fill:#343434;}
</style>
<g>
	<polygon class="st0" points="212.4,10.2 264.4,10.2 264.4,13.2 212.4,13.2 212.4,10.2 	"/>
	<path class="st1" d="M280.7,72.4h-9.8l-6.2-19.6l-6.3,19.6h-9.8l-10.5-32h10.5l5.7,20.5l6.2-20.5h8.5l6.2,20.5l5.7-20.5h10.5
		L280.7,72.4L280.7,72.4z M300.2,36.6c-3.5,0-5.9-2.1-5.9-5.4c0-3.2,2.4-5.4,5.9-5.4c3.5,0,5.9,2.2,5.9,5.4
		C306.1,34.5,303.7,36.6,300.2,36.6L300.2,36.6z M305.4,72.4H295v-32h10.4V72.4L305.4,72.4z M324.4,48.3v11.5c0,2.7,0.4,3.4,0.9,4
		c0.5,0.5,1.1,0.8,2.5,0.8c1.6,0,3.1-0.6,3.1-0.6l0.5,8.1c-0.8,0.2-3.6,1-7.4,1c-3.7,0-6.2-1.1-7.8-3c-1.6-1.9-2.3-4.6-2.3-9.4V48.3
		h-4.6v-7.9h4.6v-8.7h10.5v8.7h7.1v7.9H324.4L324.4,48.3z M356.9,72.4V55.6c0-3.9-0.5-7.3-4.9-7.3c-4.4,0-5.7,3.6-5.7,8.4v15.7
		h-10.4V27.5h10.4v10.7c0,3.2-0.1,6.8-0.1,6.8c1.6-2.9,4.7-5.2,9.4-5.2c9.3,0,11.7,5.9,11.7,13.7v18.9H356.9L356.9,72.4z"/>
	<path class="st2" d="M25.8,72.4l0.1-4.2l-0.2,0.1c-2.4,3.3-6.2,4.9-10.5,4.9C5.8,73.1,0,65.8,0,56.4C0,47,5.8,39.8,15.1,39.8
		c5.8,0,9.1,2.9,10.1,4.5V27.5h10.4v44.9H25.8L25.8,72.4z M18.1,48c-4.5,0-7.5,3.4-7.5,8.3c0,4.9,3.1,8.3,7.5,8.3
		c4.5,0,7.5-3.4,7.5-8.3C25.6,51.3,22.6,48,18.1,48L18.1,48z M74.2,58.9H51.3c0.5,4.6,4,6.7,8.2,6.7c4.2,0,7.8-1.8,9.6-3.1l4.1,5.4
		c-1,0.8-5.3,5.2-15.2,5.2c-9.9,0-17.1-6.1-17.1-16.7c0-10.6,7.8-16.6,17.3-16.6c9.5,0,16.1,6.3,16.1,15.7
		C74.3,57,74.2,58.9,74.2,58.9L74.2,58.9z M58,46.5c-4.3,0-6.5,3.4-6.6,6.4h13.2C64.5,50,62.4,46.5,58,46.5L58,46.5z M97.9,72.4
		L97.7,69c-1.4,1.4-4,4.1-9.2,4.1c-5.7,0-11.6-3.1-11.6-10.2c0-7.1,6.6-9.6,12.5-9.8l8.1-0.3v-0.7c0-3.4-2.4-5.1-6.6-5.1
		c-4.1,0-8.2,1.8-9.8,2.9L78.3,43c2.7-1.4,7.7-3.3,13.7-3.3c6,0,9.4,1.4,12,3.7c2.5,2.3,3.8,5.5,3.8,10.9v18.1H97.9L97.9,72.4z
		 M97.5,58.3l-5.1,0.3c-3.2,0.1-5.1,1.5-5.1,3.9c0,2.5,2,4,4.9,4c2.8,0,4.7-1.8,5.3-2.9V58.3L97.5,58.3z M114.5,72.4V27.5h10.4v44.9
		H114.5L114.5,72.4z M137.3,36.6c-3.5,0-5.9-2.1-5.9-5.4c0-3.2,2.4-5.4,5.9-5.4c3.5,0,5.9,2.2,5.9,5.4
		C143.3,34.5,140.9,36.6,137.3,36.6L137.3,36.6z M142.5,72.4h-10.4v-32h10.4V72.4L142.5,72.4z M170.6,72.4V55.7
		c0-4.2-0.6-7.4-4.9-7.4c-4.5,0-5.7,3.6-5.7,8.3v15.9h-10.4v-32H160l-0.1,4.6h0.1c1.8-2.9,4.7-5.2,9.3-5.2c9.3,0,11.7,6,11.7,13.7
		v18.9H170.6L170.6,72.4z M216.6,79.7c-3.1,2.9-7.4,5.1-14.8,5.1c-7.4,0-13.3-3.1-15.5-4.7l4.3-7c1.9,1.4,6.8,3.6,11.1,3.6
		c4.3,0,6.4-1.4,7.5-2.5c1.1-1.2,1.9-3.5,1.9-6.4v-1h-0.1c-2,2.5-5.1,4.6-10.1,4.6c-7.9,0-15.1-5.5-15.1-15.8
		c0-10.3,7.3-15.8,15.1-15.8c5.4,0,8.5,2.5,10.1,4.7h0.1l-0.1-4.1h10.4v25.5C221.5,72.8,219.8,76.8,216.6,79.7L216.6,79.7z
		 M204,47.9c-4.6,0-7.5,3.4-7.5,7.7c0,4.4,2.9,7.8,7.5,7.8c4.6,0,7.5-3.4,7.5-7.8C211.4,51.3,208.6,47.9,204,47.9L204,47.9z"/>
	<path class="st2" d="M62,19.3h-4.6L53.8,6.1l-3.7,13.2h-4.6L40,0h4.7L48,13l3.5-13h4.5l3.5,13l3.3-13h4.7L62,19.3L62,19.3z
		 M78.2,19.3v-7.3c0-1.7-0.2-3.1-2.1-3.1c-1.9,0-2.5,1.6-2.5,3.6v6.8h-4.5V0h4.5v4.6c0,1.4,0,2.9,0,2.9c0.7-1.2,2-2.2,4.1-2.2
		c4,0,5,2.5,5,5.9v8.1H78.2L78.2,19.3z M93.6,19.3l-0.1-1.5c-0.6,0.6-1.7,1.8-3.9,1.8c-2.4,0-5-1.3-5-4.4c0-3.1,2.8-4.1,5.4-4.2
		l3.5-0.1v-0.3c0-1.5-1-2.2-2.8-2.2c-1.8,0-3.5,0.8-4.2,1.2l-1.2-2.9c1.2-0.6,3.3-1.4,5.9-1.4s4.1,0.6,5.2,1.6
		c1.1,1,1.7,2.4,1.7,4.7v7.8H93.6L93.6,19.3z M93.4,13.2l-2.2,0.1C89.8,13.4,89,14,89,15.1c0,1.1,0.9,1.7,2.1,1.7
		c1.2,0,2-0.8,2.3-1.3V13.2L93.4,13.2z M105.8,8.9v5c0,1.2,0.2,1.5,0.4,1.7c0.2,0.2,0.5,0.3,1.1,0.3c0.7,0,1.3-0.3,1.3-0.3l0.2,3.5
		c-0.3,0.1-1.6,0.4-3.2,0.4c-1.6,0-2.7-0.5-3.4-1.3c-0.7-0.8-1-2-1-4.1V8.9h-2V5.5h2V1.8h4.5v3.8h3.1v3.4H105.8L105.8,8.9z
		 M133.2,19.3h-4.2l-2.7-8.5l-2.7,8.5h-4.2l-4.5-13.8h4.5l2.4,8.8l2.7-8.8h3.7l2.7,8.8l2.4-8.8h4.5L133.2,19.3L133.2,19.3z
		 M152.5,13.5h-9.8c0.2,2,1.7,2.9,3.5,2.9c1.8,0,3.4-0.8,4.1-1.3l1.8,2.3c-0.4,0.3-2.3,2.2-6.6,2.2c-4.3,0-7.4-2.6-7.4-7.2
		c0-4.6,3.4-7.2,7.4-7.2s6.9,2.7,6.9,6.7C152.5,12.7,152.5,13.5,152.5,13.5L152.5,13.5z M145.5,8.2c-1.8,0-2.8,1.5-2.9,2.8h5.7
		C148.3,9.7,147.4,8.2,145.5,8.2L145.5,8.2z M168.2,19.3l-0.1-1.5c-0.6,0.6-1.7,1.8-3.9,1.8c-2.4,0-5-1.3-5-4.4
		c0-3.1,2.8-4.1,5.4-4.2l3.5-0.1v-0.3c0-1.5-1-2.2-2.8-2.2c-1.8,0-3.5,0.8-4.2,1.2l-1.2-2.9c1.2-0.6,3.3-1.4,5.9-1.4
		c2.6,0,4.1,0.6,5.2,1.6c1.1,1,1.7,2.4,1.7,4.7v7.8H168.2L168.2,19.3z M168,13.2l-2.2,0.1c-1.4,0.1-2.2,0.6-2.2,1.7
		c0,1.1,0.9,1.7,2.1,1.7c1.2,0,2-0.8,2.3-1.3V13.2L168,13.2z M184.3,9.6h-0.2c-0.3-0.1-0.8-0.3-1.6-0.3c-1,0-1.7,0.6-2.1,1
		c-0.3,0.4-0.7,1.3-0.7,2.9v6.1h-4.5V5.5h4.5l0,2h0.1c0.8-1.5,1.9-2.2,3.4-2.2c0.9,0,1.4,0.3,1.4,0.3L184.3,9.6L184.3,9.6z
		 M199.2,13.5h-9.8c0.2,2,1.7,2.9,3.5,2.9c1.8,0,3.4-0.8,4.1-1.3l1.8,2.3c-0.4,0.3-2.3,2.2-6.6,2.2c-4.3,0-7.4-2.6-7.4-7.2
		c0-4.6,3.4-7.2,7.4-7.2c4.1,0,6.9,2.7,6.9,6.7C199.2,12.7,199.2,13.5,199.2,13.5L199.2,13.5z M192.2,8.2c-1.8,0-2.8,1.5-2.9,2.8
		h5.7C195,9.7,194.1,8.2,192.2,8.2L192.2,8.2z"/>
</g>
</svg>
