<?xml version="1.0" encoding="utf-8"?>
<!-- Generator: Adobe Illustrator 21.0.2, SVG Export Plug-In . SVG Version: 6.00 Build 0)  -->
<svg version="1.1" id="Vrstva_1" xmlns="http://www.w3.org/2000/svg" xmlns:xlink="http://www.w3.org/1999/xlink" x="0px" y="0px"
	 viewBox="0 0 498.5 84.7" style="enable-background:new 0 0 498.5 84.7;" xml:space="preserve" width="498.5">
<style type="text/css">
	.st0{fill-rule:evenodd;clip-rule:evenodd;fill:#00A8D8;}
	.st1{fill:#00A8D8;}
	.st2{fill:#343434;}
</style>
<g>
	<polygon class="st0" points="103.4,10.2 155.4,10.2 155.4,13.2 103.4,13.2 103.4,10.2 	"/>
	<path class="st1" d="M308.4,37l-5.6-9.4h7l3.5,6l3.5-6h7l-5.5,9.4H308.4L308.4,37z M313.2,44.9h0.1c1.8-3.5,4.5-5.1,7.9-5.1
		c2.1,0,3.2,0.6,3.2,0.6l-0.6,9.6h-0.5c-0.6-0.3-1.9-0.8-3.8-0.8c-2.3,0-4,1.3-4.8,2.3c-0.8,1-1.6,3.1-1.6,6.7v14.2h-10.4v-32h10.4
		L313.2,44.9L313.2,44.9z M358.4,58.9h-22.8c0.5,4.6,4,6.7,8.2,6.7c4.2,0,7.8-1.8,9.6-3.1l4.1,5.4c-1,0.8-5.3,5.2-15.2,5.2
		c-9.9,0-17.1-6.1-17.1-16.7c0-10.6,7.8-16.6,17.3-16.6c9.5,0,16.1,6.3,16.1,15.7C358.5,57,358.4,58.9,358.4,58.9L358.4,58.9z
		 M342.3,46.5c-4.3,0-6.5,3.4-6.6,6.4h13.2C348.8,50,346.6,46.5,342.3,46.5L342.3,46.5z M375.6,46.7c-2.5,0-3.8,0.6-3.8,2.3
		s2.5,2.5,4.7,3.1c2.2,0.6,3.2,1,4.5,1.5c1.4,0.5,3.1,1.4,4.2,2.4c1,1,2.6,3.1,2.6,6.5c0,3.3-1.4,5.9-3.8,7.8
		c-2.3,1.8-5.5,2.8-9.8,2.8c-4.8,0-9.9-1.5-13.5-4.9l3.9-6.2c2.6,2.2,6.9,3.9,9.5,3.9c2.6,0,4.4-0.6,4.4-2.7c0-2.1-4.7-3.1-5.8-3.5
		c-1.2-0.3-3.1-0.8-4.6-1.5c-1.5-0.6-5.5-2.7-5.5-8.4c0-6.2,5.5-10.1,12.2-10.1c6.7,0,10.5,2.5,12.3,4l-3.4,6.1
		C381.9,48.3,378.2,46.7,375.6,46.7L375.6,46.7z M369.8,37l-5.5-9.4h7l3.5,6l3.5-6h7l-5.6,9.4H369.8L369.8,37z M400.2,37h-7.4
		l5.1-9.4h8.9L400.2,37L400.2,37z M403.2,72.4h-10.4v-32h10.4V72.4L403.2,72.4z M449.9,72.4V55c0-3.4-0.7-6.7-4.2-6.7
		c-3.6,0-5.2,3.2-5.2,7.7v16.4h-10.4V55c0-4-0.9-6.7-4.3-6.7c-3.6,0-5.2,3.2-5.2,7.7v16.4h-10.4v-32h10.4l-0.1,4.6l0.1-0.1
		c1.6-2.7,4.7-5.1,8.8-5.1c4.4,0,7.9,1.5,9.6,5.8c2.3-3.9,5.5-5.8,10.2-5.8c8.2,0,11.1,5.6,11.1,13.3v19.3H449.9L449.9,72.4z
		 M498.4,58.9h-22.8c0.5,4.6,4,6.7,8.2,6.7c4.2,0,7.8-1.8,9.6-3.1l4.1,5.4c-1,0.8-5.3,5.2-15.2,5.2c-9.9,0-17.1-6.1-17.1-16.7
		c0-10.6,7.8-16.6,17.3-16.6c9.5,0,16.1,6.3,16.1,15.7C498.5,57,498.4,58.9,498.4,58.9L498.4,58.9z M482.2,46.5
		c-4.3,0-6.5,3.4-6.6,6.4h13.2C488.7,50,486.6,46.5,482.2,46.5L482.2,46.5z"/>
	<path class="st2" d="M20.5,73.1c-4.7,0-8.1-1.8-10.1-4.7v15.8H0V40.4h9.9l-0.1,4.1h0.1c2.3-2.8,5.8-4.7,10.7-4.7
		c9.2,0,15.1,7.2,15.1,16.6C35.7,65.8,29.8,73.1,20.5,73.1L20.5,73.1z M17.6,48c-4.4,0-7.5,3.4-7.5,8.3c0,4.9,3.1,8.3,7.5,8.3
		c4.5,0,7.5-3.4,7.5-8.3C25.1,51.3,22,48,17.6,48L17.6,48z M61.8,49.9h-0.5c-0.6-0.3-1.9-0.8-3.8-0.8c-2.3,0-4,1.3-4.8,2.3
		c-0.8,1-1.6,3.1-1.6,6.7v14.2H40.7v-32h10.4L51,44.9h0.1c1.8-3.5,4.5-5.1,7.9-5.1c2.1,0,3.2,0.6,3.2,0.6L61.8,49.9L61.8,49.9z
		 M80.8,73.1C70.7,73.1,63,66.8,63,56.5c0-10.3,7.7-16.7,17.8-16.7c10.1,0,17.7,6.4,17.7,16.7C98.5,66.8,90.9,73.1,80.8,73.1
		L80.8,73.1z M80.8,48c-4.6,0-7.3,3.6-7.3,8.3c0,4.7,2.7,8.3,7.3,8.3c4.5,0,7.3-3.6,7.3-8.3C88.1,51.5,85.3,48,80.8,48L80.8,48z
		 M124.3,73.1c-4.4,0-8.2-1.6-10.6-4.9h-0.1l0.1,4.2h-9.9V27.5h10.4v10.8c0,2.9-0.1,5.9-0.1,5.9h0.2c1.4-1.9,4.6-4.5,10.1-4.5
		c9.2,0,15.1,7.2,15.1,16.6C139.5,65.8,133.6,73.1,124.3,73.1L124.3,73.1z M121.4,48c-4.5,0-7.5,3.4-7.5,8.3c0,4.9,3.1,8.3,7.5,8.3
		c4.5,0,7.5-3.4,7.5-8.3C128.9,51.3,125.9,48,121.4,48L121.4,48z M144.8,72.4V27.5h10.4v44.9H144.8L144.8,72.4z M193.6,58.9h-22.8
		c0.5,4.6,4,6.7,8.2,6.7c4.2,0,7.8-1.8,9.6-3.1l4.1,5.4c-1,0.8-5.3,5.2-15.2,5.2c-9.9,0-17.1-6.1-17.1-16.7
		c0-10.6,7.8-16.6,17.3-16.6c9.5,0,16.1,6.3,16.1,15.7C193.8,57,193.6,58.9,193.6,58.9L193.6,58.9z M177.5,46.5
		c-4.3,0-6.5,3.4-6.6,6.4h13.2C184,50,181.9,46.5,177.5,46.5L177.5,46.5z M172.8,37l5.2-9.4h8.9l-6.7,9.4H172.8L172.8,37z
		 M238.3,72.4V55c0-3.4-0.6-6.7-4.2-6.7c-3.6,0-5.2,3.2-5.2,7.7v16.4h-10.4V55c0-4-0.9-6.7-4.3-6.7c-3.6,0-5.2,3.2-5.2,7.7v16.4
		h-10.4v-32H209l-0.1,4.6l0.1-0.1c1.6-2.7,4.7-5.1,8.8-5.1c4.4,0,7.9,1.5,9.6,5.8c2.3-3.9,5.5-5.8,10.2-5.8
		c8.2,0,11.1,5.6,11.1,13.3v19.3H238.3L238.3,72.4z M272.8,75.5c-2.3,5.7-4.9,9.2-10.4,9.2c-5.5,0-8.9-1.6-8.9-1.6l2.1-7.7
		c0,0,2.3,0.8,3.8,0.8c1.2,0,2.3,0,3.1-2.1l1.2-2.8L251,40.4h10.9l7.3,20.6l7.2-20.6h10.7L272.8,75.5L272.8,75.5z"/>
	<path class="st2" d="M43.1,23.3c-0.7,0.8-1.9,1.4-3.5,1.4c-1.3,0-2.6-0.3-2.9-0.4l0.2-3.3c0.4,0.1,0.9,0.3,1.5,0.3
		c1.1,0,1.4-0.8,1.4-2.2V0h4.5v18.9C44.3,21,43.9,22.4,43.1,23.3L43.1,23.3z M55.4,19.3l-0.1-1.5c-0.6,0.6-1.7,1.8-3.9,1.8
		c-2.4,0-5-1.3-5-4.4c0-3.1,2.8-4.1,5.4-4.2l3.5-0.1v-0.3c0-1.5-1-2.2-2.8-2.2c-1.8,0-3.5,0.8-4.2,1.2l-1.2-2.9
		c1.2-0.6,3.3-1.4,5.9-1.4c2.6,0,4.1,0.6,5.2,1.6c1.1,1,1.7,2.4,1.7,4.7v7.8H55.4L55.4,19.3z M55.2,13.2L53,13.4
		c-1.4,0.1-2.2,0.6-2.2,1.7c0,1.1,0.9,1.7,2.1,1.7c1.2,0,2-0.8,2.3-1.3V13.2L55.2,13.2z M76.8,19.3h-5.2l-3.4-5.4L67,15.1v4.2h-4.5
		V0H67v10.1l4.2-4.6h5.2l-5,5.2L76.8,19.3L76.8,19.3z M90.6,13.5h-9.8c0.2,2,1.7,2.9,3.5,2.9c1.8,0,3.4-0.8,4.1-1.3l1.8,2.3
		c-0.4,0.3-2.3,2.2-6.6,2.2c-4.3,0-7.4-2.6-7.4-7.2c0-4.6,3.4-7.2,7.4-7.2c4.1,0,6.9,2.7,6.9,6.7C90.7,12.7,90.6,13.5,90.6,13.5
		L90.6,13.5z M83.7,8.2c-1.8,0-2.8,1.5-2.9,2.8h5.7C86.5,9.7,85.6,8.2,83.7,8.2L83.7,8.2z M81.7,4.1L83.9,0h3.8l-2.9,4.1H81.7
		L81.7,4.1z"/>
</g>
</svg>
