<?xml version="1.0" encoding="utf-8"?>
<!-- Generator: Adobe Illustrator 21.0.2, SVG Export Plug-In . SVG Version: 6.00 Build 0)  -->
<svg version="1.1" id="Vrstva_1" xmlns="http://www.w3.org/2000/svg" xmlns:xlink="http://www.w3.org/1999/xlink" x="0px" y="0px"
	 viewBox="0 0 335.1 85.5" style="enable-background:new 0 0 335.1 85.5;" xml:space="preserve" width="335.1">
<style type="text/css">
	.st0{fill-rule:evenodd;clip-rule:evenodd;fill:#00A8D8;}
	.st1{fill:#343434;}
	.st2{fill:#00A8D8;}
</style>
<g>
	<polygon class="st0" points="255.8,10.9 307.8,10.9 307.8,13.9 255.8,13.9 255.8,10.9 	"/>
	<path class="st1" d="M42.7,73.1h-9.8l-6.2-19.6l-6.3,19.6h-9.8L0,41.1h10.5l5.7,20.5l6.2-20.5h8.5l6.2,20.5l5.7-20.5h10.5
		L42.7,73.1L42.7,73.1z M71.8,73.8c-10.1,0-17.8-6.3-17.8-16.6s7.7-16.7,17.8-16.7c10.1,0,17.7,6.4,17.7,16.7S81.9,73.8,71.8,73.8
		L71.8,73.8z M71.8,48.7c-4.6,0-7.3,3.6-7.3,8.3c0,4.7,2.7,8.3,7.3,8.3c4.6,0,7.3-3.6,7.3-8.3C79,52.3,76.3,48.7,71.8,48.7
		L71.8,48.7z M115.6,50.6h-0.5c-0.6-0.3-1.9-0.8-3.8-0.8c-2.3,0-4,1.3-4.8,2.3c-0.8,1-1.6,3.1-1.6,6.7v14.2H94.6v-32H105l-0.1,4.6
		h0.1c1.8-3.5,4.5-5.1,7.9-5.1c2.1,0,3.3,0.6,3.3,0.6L115.6,50.6L115.6,50.6z M153.1,73.1h-12l-7.9-12.5l-2.9,2.8v9.7H120V28.3h10.4
		v23.4l9.7-10.6h12l-11.7,12L153.1,73.1L153.1,73.1z M160.9,37.4c-3.5,0-5.9-2.1-5.9-5.4c0-3.2,2.4-5.4,5.9-5.4
		c3.5,0,5.9,2.2,5.9,5.4C166.8,35.2,164.4,37.4,160.9,37.4L160.9,37.4z M166.1,73.1h-10.4v-32h10.4V73.1L166.1,73.1z M194.2,73.1
		V56.4c0-4.2-0.6-7.4-4.9-7.4c-4.5,0-5.7,3.6-5.7,8.3v15.9h-10.4v-32h10.4l-0.1,4.6h0.1c1.8-2.9,4.7-5.2,9.3-5.2
		c9.3,0,11.7,6,11.7,13.7v18.9H194.2L194.2,73.1z M240.2,80.5c-3.1,2.9-7.4,5.1-14.8,5.1c-7.4,0-13.3-3.1-15.5-4.7l4.3-7
		c1.9,1.4,6.8,3.6,11.1,3.6c4.3,0,6.4-1.4,7.5-2.5c1.1-1.2,1.9-3.5,1.9-6.4v-1h-0.1c-2,2.5-5.1,4.6-10.1,4.6
		c-7.9,0-15.1-5.5-15.1-15.8s7.3-15.8,15.1-15.8c5.4,0,8.5,2.5,10.1,4.7h0.1l-0.1-4.1H245v25.5C245,73.5,243.3,77.5,240.2,80.5
		L240.2,80.5z M227.5,48.6c-4.6,0-7.5,3.4-7.5,7.7c0,4.4,2.9,7.8,7.5,7.8s7.5-3.4,7.5-7.8C235,52,232.1,48.6,227.5,48.6L227.5,48.6z
		"/>
	<path class="st2" d="M280.8,73.8c-10.1,0-17.8-6.3-17.8-16.6s7.7-16.7,17.8-16.7c10.1,0,17.7,6.4,17.7,16.7S290.9,73.8,280.8,73.8
		L280.8,73.8z M280.8,48.7c-4.6,0-7.3,3.6-7.3,8.3c0,4.7,2.7,8.3,7.3,8.3c4.6,0,7.3-3.6,7.3-8.3C288.1,52.3,285.3,48.7,280.8,48.7
		L280.8,48.7z M324.7,73.1V56.4c0-4.2-0.6-7.4-4.9-7.4c-4.5,0-5.7,3.6-5.7,8.3v15.9h-10.4v-32H314l-0.1,4.6h0.1
		c1.8-2.9,4.7-5.2,9.3-5.2c9.3,0,11.7,6,11.7,13.7v18.9H324.7L324.7,73.1z"/>
	<path class="st1" d="M15.2,11.5c-1.3,1.1-3.1,1.5-5,1.5H7.8V20H3.2V0.7h6.9c2,0,3.8,0.4,5,1.5c1.3,1.1,2,2.5,2,4.6
		C17.2,8.9,16.5,10.4,15.2,11.5L15.2,11.5z M11.7,4.8c-0.6-0.4-1.2-0.5-2.2-0.5H7.7v5.2h1.8c1,0,1.6-0.1,2.2-0.5
		c0.5-0.4,0.9-1.1,0.9-2.1C12.6,5.8,12.2,5.2,11.7,4.8L11.7,4.8z M28.2,10.4H28c-0.3-0.1-0.8-0.3-1.6-0.3c-1,0-1.7,0.6-2.1,1
		c-0.3,0.4-0.7,1.3-0.7,2.9V20h-4.5V6.2h4.5l0,2h0.1C24.4,6.7,25.6,6,27.1,6c0.9,0,1.4,0.3,1.4,0.3L28.2,10.4L28.2,10.4z M36.4,20.4
		c-4.4,0-7.7-2.7-7.7-7.2S32,6,36.4,6c4.4,0,7.6,2.7,7.6,7.2S40.8,20.4,36.4,20.4L36.4,20.4z M36.4,9.5c-2,0-3.1,1.5-3.1,3.6
		c0,2,1.1,3.6,3.1,3.6c2,0,3.1-1.5,3.1-3.6C39.5,11.1,38.4,9.5,36.4,9.5L36.4,9.5z M48.5,4.6C47,4.6,46,3.7,46,2.3C46,1,47,0,48.5,0
		c1.5,0,2.5,1,2.5,2.3C51.1,3.7,50,4.6,48.5,4.6L48.5,4.6z M46.3,6.2h4.5v13.5c0,1.8-0.3,3.2-1.1,4.1c-0.8,0.9-2,1.5-3.8,1.5
		c-1.5,0-2.4-0.3-2.4-0.3l0.1-3.5c0,0,0.6,0.2,1.3,0.2c1.2,0,1.5-0.9,1.5-2.4V6.2L46.3,6.2z M67.3,14.2h-9.8c0.2,2,1.7,2.9,3.5,2.9
		c1.8,0,3.4-0.8,4.1-1.3l1.8,2.3c-0.4,0.3-2.3,2.2-6.6,2.2c-4.3,0-7.4-2.6-7.4-7.2C53,8.6,56.3,6,60.4,6c4.1,0,6.9,2.7,6.9,6.7
		C67.4,13.4,67.3,14.2,67.3,14.2L67.3,14.2z M60.4,8.9c-1.8,0-2.8,1.5-2.9,2.8h5.7C63.1,10.4,62.2,8.9,60.4,8.9L60.4,8.9z M76.5,9.6
		c-1.9,0-3.4,1.3-3.4,3.5c0,2.2,1.4,3.6,3.5,3.6c2.1,0,3.5-1.3,3.5-1.3l1.1,3.4c-0.1,0.1-1.6,1.7-5.3,1.7c-3.8,0-7.3-2.6-7.3-7.2
		c0-4.6,3.6-7.2,7.3-7.2c3.5,0,5.1,1.5,5.1,1.5l-1,3.4C79.7,10.5,78.5,9.6,76.5,9.6L76.5,9.6z M88.1,9.7v5c0,1.2,0.2,1.5,0.4,1.7
		c0.2,0.2,0.5,0.3,1.1,0.3c0.7,0,1.3-0.3,1.3-0.3l0.2,3.5c-0.3,0.1-1.6,0.4-3.2,0.4c-1.6,0-2.7-0.5-3.4-1.3c-0.7-0.8-1-2-1-4.1V9.7
		h-2V6.3h2V2.5h4.5v3.8h3.1v3.4H88.1L88.1,9.7z M98.2,9c-1.1,0-1.7,0.3-1.7,1s1.1,1.1,2,1.3c1,0.3,1.4,0.4,2,0.6
		c0.6,0.2,1.3,0.6,1.8,1c0.4,0.4,1.1,1.3,1.1,2.8c0,1.4-0.6,2.5-1.6,3.4c-1,0.8-2.4,1.2-4.2,1.2c-2.1,0-4.3-0.6-5.8-2.1l1.7-2.7
		c1.1,1,3,1.7,4.1,1.7c1.1,0,1.9-0.3,1.9-1.2c0-0.9-2-1.3-2.5-1.5c-0.5-0.1-1.3-0.4-2-0.6c-0.6-0.3-2.4-1.1-2.4-3.6
		C92.6,7.6,95,6,97.9,6c2.9,0,4.5,1.1,5.3,1.7l-1.5,2.6C100.9,9.7,99.4,9,98.2,9L98.2,9z M118.9,21.4c-1,2.5-2.1,4-4.5,4
		c-2.4,0-3.8-0.7-3.8-0.7l0.9-3.3c0,0,1,0.4,1.7,0.4c0.5,0,1,0,1.3-0.9l0.5-1.2l-5.5-13.4h4.7l3.1,8.9l3.1-8.9h4.6L118.9,21.4
		L118.9,21.4z M132.9,20.4c-4.4,0-7.7-2.7-7.7-7.2s3.3-7.2,7.7-7.2c4.4,0,7.6,2.7,7.6,7.2S137.3,20.4,132.9,20.4L132.9,20.4z
		 M132.9,9.5c-2,0-3.1,1.5-3.1,3.6c0,2,1.1,3.6,3.1,3.6c2,0,3.1-1.5,3.1-3.6C136,11.1,134.9,9.5,132.9,9.5L132.9,9.5z M151.7,20
		l0-1.6c-0.6,0.8-2,1.9-4,1.9c-2,0-3.2-0.7-3.9-1.6c-0.7-1-1-2.2-1-4.1V6.2h4.5V14c0,1.6,0.4,2.7,2,2.7c1.6,0,2.3-1.3,2.3-3.1V6.2
		h4.5V20H151.7L151.7,20z M181.4,20h-4.2l-2.7-8.5l-2.7,8.5h-4.2L163,6.2h4.5l2.4,8.8l2.7-8.8h3.7l2.7,8.8l2.4-8.8h4.5L181.4,20
		L181.4,20z M189.8,4.6c-1.5,0-2.5-0.9-2.5-2.3c0-1.4,1-2.3,2.5-2.3c1.5,0,2.5,1,2.5,2.3C192.3,3.7,191.3,4.6,189.8,4.6L189.8,4.6z
		 M192,20h-4.5V6.2h4.5V20L192,20z M195.2,20V0.7h4.5V20H195.2L195.2,20z M202.8,20V0.7h4.5V20H202.8L202.8,20z M224.8,20.4
		c-1.9,0-3.5-0.7-4.6-2.1h0l0,1.8H216V0.7h4.5v4.6c0,1.3-0.1,2.5-0.1,2.5h0.1c0.6-0.8,2-1.9,4.3-1.9c4,0,6.5,3.1,6.5,7.2
		C231.3,17.2,228.8,20.4,224.8,20.4L224.8,20.4z M223.5,9.5c-1.9,0-3.2,1.5-3.2,3.6c0,2.1,1.3,3.6,3.2,3.6c1.9,0,3.2-1.5,3.2-3.6
		C226.8,11,225.5,9.5,223.5,9.5L223.5,9.5z M247,14.2h-9.8c0.2,2,1.7,2.9,3.5,2.9c1.8,0,3.4-0.8,4.1-1.3l1.8,2.3
		c-0.4,0.3-2.3,2.2-6.6,2.2c-4.3,0-7.4-2.6-7.4-7.2c0-4.6,3.4-7.2,7.4-7.2c4.1,0,6.9,2.7,6.9,6.7C247.1,13.4,247,14.2,247,14.2
		L247,14.2z M240.1,8.9c-1.8,0-2.8,1.5-2.9,2.8h5.7C242.9,10.4,241.9,8.9,240.1,8.9L240.1,8.9z"/>
</g>
</svg>
