<?xml version="1.0" encoding="utf-8"?>
<!-- Generator: Adobe Illustrator 21.0.2, SVG Export Plug-In . SVG Version: 6.00 Build 0)  -->
<svg version="1.1" id="Vrstva_1" xmlns="http://www.w3.org/2000/svg" xmlns:xlink="http://www.w3.org/1999/xlink" x="0px" y="0px"
	 viewBox="0 0 366.2 49.9" style="enable-background:new 0 0 366.2 49.9;" xml:space="preserve" width="366.2">
<style type="text/css">
	.st0{fill-rule:evenodd;clip-rule:evenodd;fill:#00A8D8;}
	.st1{fill:#00A8D8;}
	.st2{fill:#343434;}
</style>
<g>
	<polygon class="st0" points="313.8,0 365.8,0 365.8,3 313.8,3 313.8,0 	"/>
	<path class="st1" d="M194.9,49.1h-12l-7.9-12.5l-2.9,2.8v9.7h-10.4V4.3h10.4v23.4l9.7-10.6h12l-11.7,12L194.9,49.1L194.9,49.1z
		 M218.1,49.1l-0.1-3.6c-1.4,1.9-4.7,4.4-9.4,4.4c-4.6,0-7.5-1.6-9.2-3.8c-1.6-2.2-2.3-5-2.3-9.6V17.1h10.4v17.9
		c0,3.7,1,6.2,4.7,6.2c3.7,0,5.4-2.9,5.4-7.1v-17h10.4v32H218.1L218.1,49.1z M235.3,49.1V4.3h10.4v44.8H235.3L235.3,49.1z M264.8,25
		v11.5c0,2.7,0.4,3.4,0.9,4c0.5,0.5,1.1,0.8,2.5,0.8c1.6,0,3.1-0.6,3.1-0.6l0.5,8.1c-0.8,0.2-3.6,1-7.4,1c-3.7,0-6.2-1.1-7.8-3
		c-1.6-1.9-2.3-4.5-2.3-9.4V25h-4.5v-7.9h4.5V8.5h10.5v8.7h7.1V25H264.8L264.8,25z M296.7,49.1l-0.1-3.6c-1.4,1.9-4.7,4.4-9.4,4.4
		c-4.6,0-7.5-1.6-9.2-3.8c-1.6-2.2-2.3-5-2.3-9.6V17.1h10.4v17.9c0,3.7,1,6.2,4.7,6.2c3.7,0,5.4-2.9,5.4-7.1v-17h10.4v32H296.7
		L296.7,49.1z M334.7,26.7h-0.5c-0.6-0.3-1.9-0.8-3.8-0.8c-2.3,0-4,1.3-4.8,2.3c-0.8,1-1.6,3.1-1.6,6.7v14.2h-10.4v-32H324l-0.1,4.5
		h0.1c1.8-3.5,4.5-5.1,7.9-5.1c2.1,0,3.2,0.6,3.2,0.6L334.7,26.7L334.7,26.7z M356.3,49.1l-0.2-3.4c-1.4,1.4-4,4.1-9.2,4.1
		c-5.7,0-11.6-3.1-11.6-10.2c0-7.1,6.6-9.5,12.5-9.8l8.1-0.3v-0.7c0-3.4-2.4-5.1-6.6-5.1c-4.1,0-8.2,1.8-9.8,2.9l-2.7-6.8
		c2.7-1.4,7.7-3.2,13.7-3.2c6,0,9.4,1.4,12,3.7c2.5,2.3,3.8,5.5,3.8,10.8v18.1H356.3L356.3,49.1z M355.9,35.1l-5.1,0.3
		c-3.2,0.1-5.1,1.5-5.1,3.9c0,2.5,2,4,4.9,4c2.8,0,4.7-1.8,5.3-2.9V35.1L355.9,35.1z"/>
	<path class="st2" d="M29.8,49.1L10.1,18.7c0,0,0.2,5.4,0.2,10.1v20.3H0V4.3h11.2l19.2,30.1c0,0-0.2-5.1-0.2-9.8V4.3h10.3v44.8H29.8
		L29.8,49.1z M66.9,49.1l-0.2-3.4c-1.4,1.4-4,4.1-9.2,4.1c-5.7,0-11.6-3.1-11.6-10.2c0-7.1,6.6-9.5,12.5-9.8l8.1-0.3v-0.7
		c0-3.4-2.4-5.1-6.6-5.1c-4.1,0-8.2,1.8-9.8,2.9l-2.7-6.8C50,18.4,55,16.5,61,16.5c6,0,9.4,1.4,12,3.7c2.5,2.3,3.8,5.5,3.8,10.8
		v18.1H66.9L66.9,49.1z M66.5,35.1l-5.1,0.3c-3.2,0.1-5.1,1.5-5.1,3.9c0,2.5,2,4,4.9,4c2.8,0,4.7-1.8,5.3-2.9V35.1L66.5,35.1z
		 M95.5,23.4c-2.5,0-3.8,0.6-3.8,2.3c0,1.7,2.5,2.5,4.7,3.1c2.2,0.6,3.2,1,4.5,1.5c1.4,0.5,3.1,1.4,4.2,2.4c1,1,2.6,3.1,2.6,6.5
		c0,3.3-1.4,5.9-3.8,7.8c-2.3,1.8-5.5,2.8-9.8,2.8c-4.8,0-9.9-1.5-13.5-4.9l3.9-6.2c2.6,2.2,6.9,3.9,9.5,3.9c2.6,0,4.4-0.6,4.4-2.7
		c0-2.1-4.7-3.1-5.8-3.5c-1.2-0.3-3.1-0.8-4.5-1.5c-1.5-0.6-5.5-2.7-5.5-8.4c0-6.2,5.5-10.1,12.1-10.1c6.7,0,10.5,2.5,12.3,4
		l-3.4,6.1C101.8,25.1,98.1,23.4,95.5,23.4L95.5,23.4z M89.7,13.7l-5.5-9.4h7l3.5,6l3.5-6h7l-5.6,9.4H89.7L89.7,13.7z M143.9,35.6
		h-22.8c0.5,4.6,4,6.7,8.2,6.7c4.2,0,7.8-1.8,9.6-3.1l4.1,5.4c-1,0.8-5.3,5.2-15.2,5.2c-9.9,0-17.1-6.1-17.1-16.7
		c0-10.6,7.8-16.6,17.3-16.6c9.5,0,16,6.3,16,15.7C144,33.8,143.9,35.6,143.9,35.6L143.9,35.6z M127.7,23.3c-4.3,0-6.5,3.4-6.6,6.4
		h13.2C134.2,26.8,132.1,23.3,127.7,23.3L127.7,23.3z"/>
</g>
</svg>
