<?xml version="1.0" encoding="UTF-8" standalone="no"?>
<svg width="497px" height="99px" viewBox="0 0 497 99" version="1.1" xmlns="http://www.w3.org/2000/svg" xmlns:xlink="http://www.w3.org/1999/xlink" xmlns:sketch="http://www.bohemiancoding.com/sketch/ns">
    <!-- Generator: Sketch 3.4.4 (17249) - http://www.bohemiancoding.com/sketch -->
    <title>Group</title>
    <desc>Created with Sketch.</desc>
    <defs></defs>
    <g id="Page-1" stroke="none" stroke-width="1" fill="none" fill-rule="evenodd" sketch:type="MSPage">
        <g id="Group" sketch:type="MSLayerGroup" transform="translate(248.500000, 49.500000) scale(1, -1) translate(-248.500000, -49.500000) " fill="#0177C1">
            <path d="M412,76.3 C398.6,72 391,62.5 391,50 C390.9,38.6 396.5,30.1 407.4,25 C412,22.8 414.3,22.4 421.9,22.4 C431.5,22.4 436.7,24.1 442.8,29.1 L445.7,31.5 L441.5,34.8 L437.3,38.2 L432.3,35.4 C420.6,29.1 407.6,34 404.4,45.9 C402.5,53.1 406.5,61.9 413.5,65.4 C418.1,67.8 426.2,67.3 432.3,64.2 L437.7,61.6 L441.1,65.4 C444.2,68.9 444.3,69.3 442.9,70.9 C437.9,76.4 421.3,79.3 412,76.3 L412,76.3 Z" id="Shape" sketch:type="MSShapeGroup"></path>
            <path d="M131.4,49.9 L131.4,22.9 L137.4,22.9 L143.3,22.9 L143.6,33.2 L143.9,43.4 L158.2,43.7 L172.4,44 L172.4,48.9 L172.4,53.8 L158.2,54.1 L143.9,54.4 L143.9,60.4 L143.9,66.4 L160.2,66.7 L176.4,66.9 L176.4,71.9 L176.4,76.9 L153.9,76.9 L131.4,76.9 L131.4,49.9 L131.4,49.9 Z" id="Shape" sketch:type="MSShapeGroup"></path>
            <path d="M183.4,49.9 L183.4,22.9 L189.4,22.9 L195.4,22.9 L195.4,49.9 L195.4,76.9 L189.4,76.9 L183.4,76.9 L183.4,49.9 L183.4,49.9 Z" id="Shape" sketch:type="MSShapeGroup"></path>
            <path d="M206.4,49.9 L206.4,22.9 L212.4,22.9 L218.4,22.9 L218.6,40.1 L218.9,57.3 L233.3,40.1 L247.8,22.9 L253.1,22.9 L258.4,22.9 L258.4,49.9 L258.4,76.9 L252.4,76.9 L246.4,76.9 L246.4,60.4 C246.4,51.3 246.1,43.9 245.7,44 C245.2,44 238.8,51.3 231.4,60.2 L217.8,76.4 L212.1,76.7 L206.4,77 L206.4,49.9 L206.4,49.9 Z" id="Shape" sketch:type="MSShapeGroup"></path>
            <path d="M280.4,59.2 C275.8,49.4 270.1,37.2 267.7,32.1 L263.4,22.8 L270,23.1 L276.6,23.4 L278.9,28.9 L281.2,34.4 L294.4,34.7 L307.5,35 L310.1,28.9 L312.7,22.9 L319.1,22.9 C322.5,22.9 325.4,23.3 325.4,23.7 C325.4,24.2 324.8,25.9 324,27.5 C322,31.5 310.3,56.4 305.1,67.6 L300.9,76.8 L294.8,76.9 L288.7,76.9 L280.4,59.2 L280.4,59.2 Z M301.8,47.2 C302.5,44.9 302.4,44.9 294.5,44.9 C290,44.9 286.4,45.1 286.4,45.3 C286.4,45.5 288.3,49.7 290.5,54.6 L294.7,63.4 L297.9,56.4 C299.7,52.6 301.4,48.4 301.8,47.2 L301.8,47.2 Z" id="Shape" sketch:type="MSShapeGroup"></path>
            <path d="M331.4,49.9 L331.4,22.9 L337.4,22.9 L343.4,22.9 L343.4,40.2 L343.5,57.4 L346.2,54.3 C351,48.9 353.8,45.6 363.2,34.2 L372.5,22.9 L378,22.9 L383.4,22.9 L383.4,49.9 L383.4,76.9 L377.4,76.9 L371.4,76.9 L371.4,60.4 C371.4,51.3 371.1,43.9 370.7,44 C370.2,44 363.7,51.4 356.1,60.5 L342.3,76.9 L336.9,76.9 L331.4,76.9 L331.4,49.9 L331.4,49.9 Z" id="Shape" sketch:type="MSShapeGroup"></path>
            <path d="M451.4,49.9 L451.4,22.9 L473.9,22.9 L496.4,22.9 L496.4,27.9 L496.4,32.9 L480.4,32.9 L464.4,32.9 L464.4,38.9 L464.4,44.9 L478.4,44.9 L492.4,44.9 L492.4,49.9 L492.4,54.9 L478.4,54.9 L464.4,54.9 L464.4,60.9 L464.4,66.9 L480.4,66.9 L496.4,66.9 L496.4,71.9 L496.4,76.9 L473.9,76.9 L451.4,76.9 L451.4,49.9 L451.4,49.9 Z" id="Shape" sketch:type="MSShapeGroup"></path>
            <path d="M63.6199993,97.0739301 C59.2633793,98.328087 54.6601565,99 49.9,99 C22.5619049,99 0.4,76.8380951 0.4,49.5 C0.4,22.1619049 22.5619049,0 49.9,0 C77.2380951,0 99.4,22.1619049 99.4,49.5 C99.4,54.3337905 98.7071388,59.0057546 97.4153115,63.4219973 L97.4160268,63 L76.4302634,63 L76.4299988,14.0492519 C76.4299988,14.0492519 27.7485611,64.4276849 19.0956833,73.1100006 C35.3837709,73.2968867 63.6199993,73.1100006 63.6199993,73.1100006 L63.6199993,97.0739301 Z M76.4299988,91.2974954 C83.5221309,86.7865175 89.3884461,80.5201287 93.4172645,73.110009 L76.4299988,73.1100006 L76.4299988,91.2974954 Z M63.6199993,63 L44.2383149,63 L63.6199993,42.6996694 L63.6199993,63 Z" id="Oval-1" sketch:type="MSShapeGroup" transform="translate(49.900000, 49.500000) scale(1, -1) translate(-49.900000, -49.500000) "></path>
        </g>
    </g>
</svg>