<?xml version="1.0" encoding="UTF-8" standalone="no"?>
<svg width="1162px" height="238px" viewBox="0 0 1162 238" version="1.1" xmlns="http://www.w3.org/2000/svg" xmlns:xlink="http://www.w3.org/1999/xlink">
    <!-- Generator: Sketch 3.7.1 (28215) - http://www.bohemiancoding.com/sketch -->
    <title>WeWork_logo</title>
    <desc>Created with Sketch.</desc>
    <defs>
        <polygon id="path-1" points="136.423868 137 0.06 137 0.06 0.922 272.787737 0.922 272.787737 137"></polygon>
    </defs>
    <g id="Page-1" stroke="none" stroke-width="1" fill="none" fill-rule="evenodd">
        <g id="WeWork_logo">
            <g id="Group-3" transform="translate(0.000000, 101.000000)">
                <mask id="mask-2" fill="white">
                    <use xlink:href="#path-1"></use>
                </mask>
                <g id="Clip-2"></g>
                <path d="M94.305,14.056 C101.166,14.056 107.158,14.302 112.461,15.27 C120.009,16.598 126.412,27.121 126.412,32.259 C126.412,34.883 126.412,37.807 125.263,42.059 C123.39,48.589 110.588,72.048 105.252,80.882 C98.834,70.472 83.733,41.077 78.516,29.635 C76.25,24.825 75.098,20.834 75.098,18.881 C75.098,15.27 82.256,14.056 94.305,14.056 L94.305,14.056 Z M8.717,14.056 C15.12,15.648 18.861,16.978 24.117,26.398 C42.632,60.362 61.178,97.816 79.202,134.67 C81.468,136.576 84.126,137 87.969,137 C91.678,137 94.305,136.576 96.669,134.67 C105.252,118.454 127.923,74.936 137.705,58.032 C149.081,78.929 168.663,117.044 176.608,134.67 C178.809,136.576 181.534,137 185.243,137 C189.017,137 191.726,136.576 193.909,134.67 C209.782,100.12 227.083,64.252 244.497,30.9 C250.542,18.881 253.166,15.648 265.627,13.333 L270.912,12.398 C273.916,9.378 273.143,2.285 269.795,0.922 C261.491,1.58 251.691,1.924 240.69,1.924 C231.27,1.924 222.273,1.58 209.782,0.922 C206.008,2.285 206.008,10.065 208.307,12.398 L214.674,13.627 C221.157,14.958 224.128,16.598 224.128,18.256 C224.128,20.537 222.981,25.101 220.633,30.9 C214.674,45.995 208.749,61.989 199.589,80.882 C191.318,65.187 180.777,44.027 173.95,28.353 C171.716,22.839 170.961,20.834 170.961,18.256 C170.961,16.598 176.18,14.958 184.915,13.333 L190.528,12.398 C193.253,11.068 193.548,1.317 189.412,0.922 C165.281,1.58 146.423,1.924 122.636,1.924 L46.424,1.924 C30.582,1.924 18.532,1.58 3.071,0.922 C-0.786,2.564 -0.786,9.738 1.826,12.398 L8.717,14.056 L8.717,14.056 Z" id="Fill-1" fill="#FFFFFF" mask="url(#mask-2)"></path>
            </g>
            <path d="M324.145,113.398 C336.915,113.398 344.138,120.522 344.138,131.306 C344.138,134.586 343.381,137.872 341.51,138.807 C337.292,141.106 331.269,141.711 326,141.711 L312.046,141.711 C299.916,141.711 294.696,141.483 294.696,136.854 C294.696,126.38 308.288,113.398 324.145,113.398 L324.145,113.398 Z M323.75,238 C346.369,238 374.372,228.515 389.803,200.81 C389.803,195.256 384.074,192.617 379.972,193.227 C369.777,208.306 355.4,210.197 344.861,210.197 C309.799,210.197 291.643,186.438 291.643,161.967 C291.643,156.764 292.431,156.108 301.13,156.108 L373.486,156.108 C385.272,156.108 387.111,151.546 387.111,145.358 C387.111,120.209 365.969,98.359 326.72,98.359 C279.626,98.359 245.288,130.356 245.288,171.472 C245.288,207.024 272.831,238 323.75,238 L323.75,238 Z" id="Fill-4" fill="#FFFFFF"></path>
            <path d="M483.993,115.056 C490.884,115.056 496.876,115.302 502.18,116.27 C509.73,117.598 516.131,128.121 516.131,133.259 C516.131,135.883 516.131,138.807 515.014,143.059 C513.077,149.589 500.276,173.048 495.022,181.882 C488.538,171.472 473.5,142.077 468.234,130.635 C466.002,125.825 464.819,121.834 464.819,119.881 C464.819,116.27 471.942,115.056 483.993,115.056 L483.993,115.056 Z M398.404,115.056 C404.874,116.648 408.584,117.978 413.866,127.398 C432.316,161.362 450.901,198.816 468.957,235.67 C471.253,237.576 473.88,238 477.656,238 C481.396,238 483.993,237.576 486.307,235.67 C495.022,219.454 517.608,175.936 527.457,159.032 C538.801,179.929 558.334,218.044 566.277,235.67 C568.56,237.576 571.17,238 574.925,238 C578.737,238 581.398,237.576 583.63,235.67 C599.5,201.12 616.852,165.252 634.236,131.9 C640.275,119.881 642.874,116.648 655.314,114.333 L660.645,113.398 C663.621,110.378 662.83,103.285 659.483,101.922 C651.144,102.58 641.391,102.924 630.408,102.924 C620.954,102.924 611.966,102.58 599.5,101.922 C595.677,103.285 595.677,111.065 597.992,113.398 L604.397,114.627 C610.829,115.958 613.815,117.598 613.815,119.256 C613.815,121.537 612.683,126.101 610.452,131.9 C604.397,146.995 598.353,162.989 589.276,181.882 C581.001,166.187 570.462,145.027 563.668,129.353 C561.385,123.839 560.631,121.834 560.631,119.256 C560.631,117.598 565.869,115.958 574.6,114.333 L580.215,113.398 C582.876,112.068 583.268,102.317 579.099,101.922 C554.984,102.58 536.061,102.924 512.323,102.924 L436.111,102.924 C420.337,102.924 408.219,102.58 392.758,101.922 C389.015,103.564 389.015,110.738 391.642,113.398 L398.404,115.056 L398.404,115.056 Z" id="Fill-5" fill="#FFFFFF"></path>
            <path d="M721.418,113.398 C742.852,113.398 753.427,140.745 753.835,172.438 C754.161,201.807 746.954,223.004 725.438,223.004 C703.652,223.004 691.15,197.834 691.15,163.63 C691.15,128.121 704.799,113.398 721.418,113.398 L721.418,113.398 Z M721.418,238 C767.758,238 808.166,215.512 808.166,167.814 C808.166,121.834 768.114,98.359 723.63,98.359 C679.098,98.359 636.453,124.115 636.814,170.8 C637.258,215.776 676.438,238 721.418,238 L721.418,238 Z" id="Fill-6" fill="#FFFFFF"></path>
            <path d="M872.463,126.38 C874.782,126.38 878.125,126.726 886.763,132.897 C891.603,136.854 896.149,138.807 901.465,138.807 C913.518,138.807 925.647,132.618 925.647,117.598 C925.647,105.272 915.077,98.359 904.818,98.359 C889.025,98.359 878.125,109.113 867.871,114.627 C864.879,114.02 864.104,113.037 864.104,110.738 C864.104,107.816 864.879,103.285 865.566,96.704 C864.104,94.766 861.78,93.733 858.871,93.733 C847.134,100.349 821.118,109.113 803.703,113.398 C801.079,115.302 801.079,121.194 803.703,123.162 L809.086,126.101 C816.21,130.025 816.21,133.915 816.21,146.995 L816.21,196.223 C816.21,219.041 814.696,221.981 802.225,223.004 L795.05,223.602 C792.012,225.561 792.012,233.108 795.447,235.066 C807.919,234.358 824.517,234.074 839.979,234.074 C857.672,234.074 872.804,234.358 890.932,235.066 C894.326,233.108 894.326,225.561 891.273,223.602 L879.21,222.688 C866.754,221.65 865.226,219.041 865.226,196.223 L865.226,145.998 C865.226,133.621 867.142,126.38 872.463,126.38" id="Fill-7" fill="#FFFFFF"></path>
            <path d="M1020.1,221.981 L1015.21,223.004 C1012.15,225.937 1012.89,232.747 1016.68,234.358 C1027.25,233.717 1040.78,233.403 1063.14,233.403 C1085.02,233.403 1098.94,233.717 1110.61,234.358 C1114.4,233.108 1115.17,225.266 1112.1,223.004 L1106.5,221.981 C1096.71,220.369 1089.55,218.685 1084.26,214.516 C1074.78,207.024 1041.57,162.623 1034.88,152.187 C1032.93,149.589 1032.13,147.651 1032.13,146.639 C1032.13,145.683 1032.53,144.386 1034.38,142.387 C1039.68,137.872 1045.44,132.897 1059.73,123.443 C1069.87,116.648 1077.86,113.398 1085.02,112.068 L1097.04,109.769 C1099.74,107.224 1099.38,99.938 1095.52,98.359 C1073.31,101.317 1041.98,102.924 1024.22,102.924 L1015.21,102.924 C1011.45,104.288 1011.02,111.409 1014.42,114.333 L1023.89,115.697 C1027.25,115.958 1031.01,117.254 1031.01,118.913 C1031.01,120.881 1029.19,124.443 1021.97,131.9 L1006.18,147.982 C998.597,155.452 990.683,157.095 984.266,157.095 C980.159,157.095 978.945,156.108 978.945,152.518 L978.945,50.119 C978.945,29.535 979.421,15.812 980.159,2.465 C978.682,0.791 975.959,0.2 973.707,0.2 C954.422,7.308 931.459,15.22 916.013,18.405 C913.337,20.409 913.337,26.301 916.013,28.156 L922.413,31.504 C929.93,35.427 929.93,39.007 929.93,52.121 L929.93,195.566 C929.93,218.385 928.422,221.009 914.778,222.363 L907.623,223.004 C904.637,224.92 904.637,232.452 908,234.358 C921.215,233.717 936.692,233.403 954.045,233.403 C971.428,233.403 987.247,233.717 999.382,234.358 C1002.72,232.452 1002.72,224.92 999.728,223.004 L993.735,222.363 C980.469,221.009 978.945,218.385 978.945,195.566 L978.945,176.679 C978.945,170.439 980.852,168.848 983.461,168.848 C987.247,168.848 990.285,170.175 992.966,173.657 L1019.71,208.962 C1022.74,212.836 1026.11,218.044 1026.11,219.454 C1026.11,220.668 1023.89,221.278 1020.1,221.981" id="Fill-8" fill="#FFFFFF"></path>
            <path d="M1142.39,202.161 C1133.69,202.161 1126.61,209.235 1126.61,217.935 C1126.61,226.635 1133.69,233.716 1142.39,233.716 C1151.09,233.716 1158.16,226.635 1158.16,217.935 C1158.16,209.235 1151.09,202.161 1142.39,202.161 L1142.39,202.161 Z M1142.39,237.552 C1131.57,237.552 1122.77,228.754 1122.77,217.935 C1122.77,207.122 1131.57,198.325 1142.39,198.325 C1153.2,198.325 1162,207.122 1162,217.935 C1162,228.754 1153.2,237.552 1142.39,237.552 L1142.39,237.552 Z" id="Fill-9" fill="#FFFFFF"></path>
            <path d="M1146.22,214.266 C1146.22,212.591 1144.93,211.571 1143.22,211.571 L1138.76,211.571 L1138.76,216.965 L1143.22,216.965 C1144.93,216.965 1146.22,215.945 1146.22,214.266 L1146.22,214.266 Z M1145.8,227.81 L1141.88,220.708 L1138.76,220.708 L1138.76,227.81 L1134.51,227.81 L1134.51,207.824 L1143.86,207.824 C1148.02,207.824 1150.56,210.552 1150.56,214.266 C1150.56,217.804 1148.35,219.689 1146.19,220.198 L1150.69,227.81 L1145.8,227.81 L1145.8,227.81 Z" id="Fill-10" fill="#FFFFFF"></path>
        </g>
    </g>
</svg>