<?xml version="1.0" encoding="utf-8"?>
<!-- Generator: Adobe Illustrator 18.0.0, SVG Export Plug-In . SVG Version: 6.00 Build 0)  -->
<!DOCTYPE svg PUBLIC "-//W3C//DTD SVG 1.1//EN" "http://www.w3.org/Graphics/SVG/1.1/DTD/svg11.dtd">
<svg version="1.1" id="Layer_1" xmlns="http://www.w3.org/2000/svg" xmlns:xlink="http://www.w3.org/1999/xlink" x="0px" y="0px"
	 width="1100px" height="1632px" viewBox="0 0 1100 1632" enable-background="new 0 0 1100 1632" xml:space="preserve">
<path fill="#FEFEFE" d="M851.1,585.2c0-0.3,0-0.7,0-1c-110.4,0-220.8,0-331.2,0c0,0.3,0,0.7,0,1
	C630.3,585.2,740.7,585.2,851.1,585.2z"/>
<path fill="#FEFEFE" d="M521.4,1054.9c0,0.3,0,0.7,0,1c109.7,0,219.5,0,329.2,0c0-0.3,0-0.7,0-1
	C740.9,1054.9,631.2,1054.9,521.4,1054.9z"/>
<path fill="#FEFEFE" d="M497.5,585.1c0-0.3,0-0.7,0-1c-82,0-164,0-246,0c0,0.3,0,0.7,0,1C333.5,585.1,415.5,585.1,497.5,585.1z"/>
<path fill="#FEFEFE" d="M496,1056.1c0-0.3,0-0.6,0-1c-81.3,0-162.7,0-244,0c0,0.3,0,0.6,0,1C333.3,1056.1,414.6,1056.1,496,1056.1z"
	/>
<path fill="#EBEBEB" d="M979.6,748.9c-1.5,0.1-1.8,1-2,2.3c-5.8,32.3-29.1,56.7-60.8,63.4c-4.2,0.9-8.5,1.4-12.9,1.4
	C778.4,816,652.8,816,527.3,816c-1.9,0-4,0.5-5.9-0.5c0.1-2,1.6-1.4,2.6-1.4c2.5-0.1,5,0,7.5,0c123.2,0,246.4,0.1,369.6,0
	c37,0,67.6-26.3,74.2-62.3c2.3-12.4,0.9-24.9,1.2-37.4c0-2.1-0.5-4.6,3-4.4C979.6,722.9,979.6,735.9,979.6,748.9z"/>
<path fill="#EBEBEB" d="M979.6,1209.7c-1.5,0.1-1.8,1-2,2.3c-5.8,32.3-29.1,56.7-60.8,63.4c-4.2,0.9-8.5,1.4-12.9,1.4
	c-125.2-0.1-250.4-0.1-375.6-0.1c-1.9,0-4,0.5-5.9-0.5c0.1-2,1.6-1.4,2.6-1.4c2.8-0.1,5.7,0,8.5,0c122.5,0,245.1,0.1,367.6,0
	c37,0,67.6-26.3,74.2-62.3c2.3-12.4,0.9-24.9,1.2-37.4c0-2.1-0.5-4.6,3-4.4C979.6,1183.7,979.6,1196.7,979.6,1209.7z"/>
<path fill="#08AAD8" d="M122,420.3c2-1.1,1.4-3.2,1.8-4.8c7.9-35,38.7-60.2,74.6-60.3c98.7-0.1,197.3-0.1,296,0c1.4,0,3-0.6,4.4,1
	c-1.7,1.7-3.7,1-5.5,1c-69.9,0-139.9,0-209.8,0c-27.4,0-54.8,0-82.1,0c-44.4,0-77.2,32.8-77.3,77.1c0,7.8,0,15.7,0,23.5
	c0,1.4,0.9,3.6-2,3.5C122,447.7,122,434,122,420.3z"/>
<path fill="#EBEBEB" d="M122,875.1c2.6-0.1,1.9-2.4,2.4-3.8c9.2-29.5,28.6-48.2,58.6-55.7c4.2-1,8.4-1.7,12.8-1.7
	c98,0,196,0,294,0.1c1.8,0,3.6-0.5,5.6,0.8c-1.6,2-3.7,1.2-5.4,1.2c-38.4,0.1-76.8,0-115.2,0c-58.6,0-117.2-0.2-175.8,0.1
	c-36.4,0.2-67.1,26-73.7,62.3c-2.2,12.2-0.9,24.6-1.2,36.9c0,1.8,1.1,4.2-2,4.9C122,905.2,122,890.2,122,875.1z"/>
<path fill="#EBEBEB" d="M122,1336c2.6-0.1,1.9-2.4,2.4-3.8c9.2-29.5,28.6-48.2,58.6-55.7c4.2-1,8.4-1.7,12.8-1.7c98,0,196,0,294,0
	c1.8,0,3.5,0,6.2,0c-2.2,2.8-4.3,2-6,2c-38.7,0.1-77.5,0-116.2,0c-58.3,0-116.5-0.2-174.8,0.1c-36.4,0.2-67.1,26-73.7,62.3
	c-2.2,12.2-0.9,24.6-1.2,36.9c0,1.8,1.1,4.2-2,4.9C122,1366,122,1351,122,1336z"/>
<path fill="#08AAD8" d="M818.3,251c-0.4,13.7,1,27.4-0.9,41c-5.1,35.9-37.3,64.9-73.5,65.1c-73.8,0.3-147.5,0.1-221.3,0.1
	c-1.2,0-2.6,0.3-4-0.9c1.9-1.7,3.9-1.1,5.7-1.1c71.6,0,143.2,0,214.8-0.1c29.9,0,52.6-13,67.7-38.7c6.5-11,9.4-23.1,9.5-35.9
	c0.1-9.8,0-19.7,0-29.5C816.9,251,817.6,251,818.3,251z"/>
<path fill="#08AAD8" d="M851.1,585.2c-110.4,0-220.8,0-331.2,0c0-0.3,0-0.7,0-1c110.4,0,220.8,0,331.2,0
	C851.1,584.5,851.1,584.8,851.1,585.2z"/>
<path fill="#EBEBEB" d="M521.4,1054.9c109.7,0,219.5,0,329.2,0c0,0.3,0,0.7,0,1c-109.7,0-219.5,0-329.2,0
	C521.4,1055.6,521.4,1055.2,521.4,1054.9z"/>
<path fill="#08AAD8" d="M497.5,585.1c-82,0-164,0-246,0c0-0.3,0-0.7,0-1c82,0,164,0,246,0C497.5,584.5,497.5,584.8,497.5,585.1z"/>
<path fill="#EBEBEB" d="M496,1056.1c-81.3,0-162.7,0-244,0c0-0.3,0-0.6,0-1c81.3,0,162.7,0,244,0C496,1055.5,496,1055.8,496,1056.1z
	"/>
<g>
	<path fill="#252525" d="M399.3,1544.6c-4.3,0-7.3-2.4-7.3-6.5s3-6.5,7.3-6.5c4.2,0,7.2,2.4,7.2,6.5S403.5,1544.6,399.3,1544.6z"/>
	<path fill="#252525" d="M424.3,1544.6c-4.3,0-7.3-2.4-7.3-6.5s3-6.5,7.3-6.5c4.2,0,7.2,2.4,7.2,6.5S428.5,1544.6,424.3,1544.6z"/>
	<path fill="#252525" d="M449.3,1544.6c-4.3,0-7.3-2.4-7.3-6.5s3-6.5,7.3-6.5c4.2,0,7.2,2.4,7.2,6.5S453.5,1544.6,449.3,1544.6z"/>
	<path fill="#252525" d="M499.7,1543.8H488l-0.2-3.9c-1.6,1.6-4.7,4.8-10.8,4.8c-6.6,0-13.7-3.6-13.7-11.9s7.7-11.1,14.7-11.4
		l9.5-0.4v-0.8c0-3.9-2.8-6-7.7-6c-4.8,0-9.6,2.1-11.5,3.3l-3.2-7.9c3.2-1.6,9.1-3.8,16.1-3.8s11.1,1.6,14,4.3
		c2.9,2.7,4.5,6.3,4.5,12.6V1543.8z M487.5,1527.4l-6,0.4c-3.7,0.2-6,1.7-6,4.5c0,2.9,2.4,4.6,5.7,4.6c3.3,0,5.5-2.1,6.3-3.4V1527.4
		z"/>
	<path fill="#252525" d="M543.9,1543.8h-12.2v-19.4c0-4.9-0.8-8.6-5.8-8.6c-5.3,0-6.7,4.2-6.7,9.6v18.4h-12.2v-37.3h12.2l-0.1,5.4
		h0.2c2.1-3.3,5.5-6,10.9-6c10.9,0,13.7,7,13.7,15.9V1543.8z"/>
	<path fill="#252525" d="M591.6,1543.8H580l0.1-4.9l-0.2,0.1c-2.8,3.8-7.3,5.7-12.4,5.7c-10.9,0-17.8-8.5-17.8-19.4
		s6.9-19.3,17.8-19.3c6.9,0,10.7,3.4,11.9,5.2v-19.4h12.2V1543.8z M571,1515.4c-5.3,0-8.9,3.9-8.9,9.7s3.6,9.7,8.9,9.7
		s8.8-3.9,8.8-9.7S576.3,1515.4,571,1515.4z"/>
	<path fill="#00A7D7" d="M627.5,1543.8h-12.2v-52.1h12.2V1543.8z"/>
	<path fill="#00A7D7" d="M669.7,1543.8H658l-0.2-3.9c-1.6,1.6-4.7,4.8-10.8,4.8c-6.6,0-13.7-3.6-13.7-11.9s7.7-11.1,14.7-11.4
		l9.5-0.4v-0.8c0-3.9-2.8-6-7.7-6c-4.8,0-9.6,2.1-11.5,3.3l-3.2-7.9c3.2-1.6,9.1-3.8,16.1-3.8s11.1,1.6,14,4.3
		c2.9,2.7,4.5,6.3,4.5,12.6V1543.8z M657.5,1527.4l-6,0.4c-3.7,0.2-6,1.7-6,4.5c0,2.9,2.4,4.6,5.7,4.6c3.3,0,5.5-2.1,6.3-3.4V1527.4
		z"/>
	<path fill="#00A7D7" d="M713,1543.8h-11.8l-0.1-4.2c-1.6,2.3-5.6,5.1-11,5.1c-5.4,0-8.9-1.9-10.8-4.4c-1.8-2.6-2.7-5.8-2.7-11.2
		v-22.5h12.2v20.9c0,4.3,1.2,7.3,5.6,7.3s6.3-3.4,6.3-8.3v-19.8H713V1543.8z"/>
	<path fill="#00A7D7" d="M757.9,1543.8h-12.2v-19.4c0-4.9-0.8-8.6-5.8-8.6c-5.3,0-6.7,4.2-6.7,9.6v18.4h-12.2v-37.3h12.2l-0.1,5.4
		h0.2c2.1-3.3,5.5-6,10.9-6c10.9,0,13.7,7,13.7,15.9V1543.8z"/>
	<path fill="#00A7D7" d="M797.9,1540.2c-0.4,0.3-4.4,4.5-14.4,4.5c-10.3,0-19.9-7-19.9-19.3c0-12.5,9.7-19.4,20-19.4
		c9.6,0,14,3.9,14,3.9l-2.7,9.1c-1.1-0.8-4.4-3.3-9.7-3.3c-5.2,0-9.3,3.6-9.3,9.4c0,5.9,3.7,9.6,9.5,9.6s9.5-3.6,9.5-3.6
		L797.9,1540.2z"/>
	<path fill="#00A7D7" d="M840.2,1543.8h-12.3v-19.6c0-4.5-0.6-8.5-5.7-8.5c-5.1,0-6.7,4.2-6.7,9.7v18.3h-12.2v-52.1h12.2v12.4
		c0,3.8-0.1,7.9-0.1,7.9c1.9-3.3,5.5-6,11.1-6c10.9,0,13.7,6.9,13.7,15.9V1543.8z"/>
</g>
<g>
	<path fill="#252525" d="M264.5,344.2c-0.6,0.5-1.4,0.8-2.4,0.8c-1.7,0-2.7-1.1-3.1-1.6l0.8-0.9c0.5,0.7,1.4,1.4,2.5,1.4
		c1.1,0,1.9-0.6,1.9-1.6c0-1-1.1-1.4-1.6-1.6c-0.5-0.2-1.2-0.5-1.5-0.6c-0.2-0.1-0.6-0.3-1-0.7c-0.4-0.4-0.6-0.9-0.6-1.7
		s0.4-1.4,0.9-1.9c0.5-0.4,1.3-0.7,2.2-0.7c1.6,0,2.5,1,2.8,1.2l-0.7,0.9c-0.5-0.5-1.2-1-2.1-1c-1,0-1.7,0.4-1.7,1.3
		s0.7,1.2,1.3,1.5l1.8,0.7c0.2,0.1,0.8,0.4,1.1,0.8c0.3,0.4,0.6,0.9,0.6,1.6C265.5,342.9,265.1,343.7,264.5,344.2z"/>
	<path fill="#252525" d="M270.5,344.9c-2,0-3.5-1.4-3.5-3.5c0-2.1,1.5-3.5,3.5-3.5c2,0,3.5,1.4,3.5,3.5
		C274,343.5,272.5,344.9,270.5,344.9z M270.5,339.1c-1.4,0-2.2,1-2.2,2.3c0,1.3,0.8,2.4,2.2,2.4c1.3,0,2.2-1,2.2-2.4
		C272.7,340.1,271.8,339.1,270.5,339.1z"/>
	<path fill="#252525" d="M285.1,344.8h-1.3v-3.9c0-0.8-0.1-1.8-1.2-1.8c-1.1,0-1.6,1-1.6,2.2v3.5h-1.4v-3.9c0-1-0.2-1.8-1.2-1.8
		c-1.1,0-1.6,1-1.6,2.2v3.5h-1.4v-6.7h1.4l0,1.1h0c0.3-0.6,1-1.2,1.9-1.2c1,0,1.7,0.4,2,1.3c0.5-0.8,1.2-1.3,2.1-1.3
		c1.8,0,2.3,1.3,2.3,2.7V344.8z"/>
	<path fill="#252525" d="M292.5,341.8h-5.1c0.1,1.3,0.9,2.1,2.2,2.1c1.3,0,2.1-0.7,2.2-0.8l0.6,0.8c-0.1,0.1-0.9,1.1-2.9,1.1
		c-2,0-3.3-1.4-3.3-3.5c0-2.1,1.5-3.4,3.4-3.4c1.9,0,3.2,1.3,3.2,3.2C292.5,341.4,292.5,341.8,292.5,341.8z M291.2,340.9
		c0-0.7-0.6-1.9-1.9-1.9c-1.3,0-1.9,1.1-2,1.9H291.2z"/>
	<path fill="#252525" d="M301.6,344.8h-1.3l0-0.8c-0.3,0.3-0.9,1-2.1,1c-1.2,0-2.3-0.8-2.3-2.1c0-1.3,1.1-2,2.6-2l1.8-0.1v-0.3
		c0-1-0.7-1.5-1.7-1.5s-1.8,0.4-2,0.6l-0.4-0.9c0.5-0.3,1.4-0.7,2.5-0.7s1.8,0.3,2.2,0.8c0.5,0.5,0.7,1,0.7,2.2V344.8z M300.3,341.6
		l-1.6,0.1c-1.1,0.1-1.5,0.5-1.5,1.1s0.5,1.2,1.4,1.2c0.9,0,1.4-0.6,1.7-1V341.6z"/>
	<path fill="#252525" d="M309.9,344.8h-1.3v-1.1h0c-0.5,0.8-1.4,1.2-2.3,1.2c-2,0-3.2-1.5-3.2-3.5c0-2,1.3-3.4,3.2-3.4
		c1.1,0,1.9,0.5,2.3,1.2h0v-4.1h1.3V344.8z M306.5,339.1c-1.3,0-2.1,1-2.1,2.3s0.8,2.4,2.1,2.4s2.1-1,2.1-2.4
		S307.8,339.1,306.5,339.1z"/>
	<path fill="#252525" d="M317.9,344.8h-1.3v-1.1h0c-0.5,0.8-1.4,1.2-2.3,1.2c-2,0-3.2-1.5-3.2-3.5c0-2,1.3-3.4,3.2-3.4
		c1.1,0,1.9,0.5,2.3,1.2h0v-4.1h1.3V344.8z M314.5,339.1c-1.3,0-2.1,1-2.1,2.3s0.8,2.4,2.1,2.4s2.1-1,2.1-2.4
		S315.8,339.1,314.5,339.1z"/>
	<path fill="#252525" d="M320.1,336.7c-0.5,0-0.9-0.4-0.9-0.8s0.4-0.8,0.9-0.8c0.5,0,0.9,0.4,0.9,0.8S320.6,336.7,320.1,336.7z
		 M320.8,344.8h-1.4v-6.7h1.4V344.8z"/>
	<path fill="#252525" d="M325.6,344.7c0,0-0.5,0.2-1.2,0.2c-0.7,0-1.1-0.3-1.4-0.7c-0.3-0.4-0.3-0.9-0.3-2v-3h-1v-1.1h1v-2h1.4v2
		h1.6v1.1H324v3c0,0.6,0,0.9,0.2,1.2c0.1,0.2,0.3,0.3,0.7,0.3c0.4,0,0.7-0.2,0.7-0.2L325.6,344.7z"/>
	<path fill="#252525" d="M327.1,336.7c-0.5,0-0.9-0.4-0.9-0.8s0.4-0.8,0.9-0.8c0.5,0,0.9,0.4,0.9,0.8S327.6,336.7,327.1,336.7z
		 M327.8,344.8h-1.4v-6.7h1.4V344.8z"/>
	<path fill="#252525" d="M335.2,338.1l-2.8,6.7h-1.2l-2.8-6.7h1.4l2,5l2-5H335.2z"/>
	<path fill="#252525" d="M342.5,341.8h-5.1c0.1,1.3,0.9,2.1,2.2,2.1c1.3,0,2.1-0.7,2.2-0.8l0.6,0.8c-0.1,0.1-0.9,1.1-2.9,1.1
		c-2,0-3.3-1.4-3.3-3.5c0-2.1,1.5-3.4,3.4-3.4c1.9,0,3.2,1.3,3.2,3.2C342.5,341.4,342.5,341.8,342.5,341.8z M341.2,340.9
		c0-0.7-0.6-1.9-1.9-1.9c-1.3,0-1.9,1.1-2,1.9H341.2z"/>
	<path fill="#252525" d="M352.9,344.8h-1.3v-1.1h0c-0.5,0.8-1.4,1.2-2.3,1.2c-2,0-3.2-1.5-3.2-3.5c0-2,1.3-3.4,3.2-3.4
		c1.1,0,1.9,0.5,2.3,1.2h0v-4.1h1.3V344.8z M349.5,339.1c-1.3,0-2.1,1-2.1,2.3s0.8,2.4,2.1,2.4s2.1-1,2.1-2.4
		S350.8,339.1,349.5,339.1z"/>
	<path fill="#252525" d="M360.5,341.8h-5.1c0.1,1.3,0.9,2.1,2.2,2.1c1.3,0,2.1-0.7,2.2-0.8l0.6,0.8c-0.1,0.1-0.9,1.1-2.9,1.1
		c-2,0-3.3-1.4-3.3-3.5c0-2.1,1.5-3.4,3.4-3.4c1.9,0,3.2,1.3,3.2,3.2C360.5,341.4,360.5,341.8,360.5,341.8z M359.2,340.9
		c0-0.7-0.6-1.9-1.9-1.9c-1.3,0-1.9,1.1-2,1.9H359.2z"/>
	<path fill="#252525" d="M365.2,344.3c-0.5,0.4-1.1,0.6-1.9,0.6c-1.1,0-2-0.5-2.6-1.2l0.6-0.8c0.5,0.6,1.4,1,2,1s1.3-0.2,1.3-1
		c0-0.7-1.1-1-1.5-1.1s-0.6-0.2-0.9-0.4c-0.4-0.2-1.1-0.6-1.1-1.6c0-1.2,1.1-1.9,2.3-1.9s1.9,0.4,2.3,0.9l-0.6,0.8
		c-0.4-0.4-1-0.7-1.7-0.7s-1.1,0.3-1.1,0.8s0.6,0.8,1.3,1c0.4,0.1,0.6,0.2,0.9,0.3c0.3,0.1,0.6,0.3,0.8,0.5c0.3,0.2,0.5,0.6,0.5,1.2
		C365.9,343.5,365.6,344,365.2,344.3z"/>
	<path fill="#252525" d="M373,343.9c-0.2,0.2-0.9,1-2.7,1c-1.8,0-3.4-1.3-3.4-3.5c0-2.1,1.6-3.5,3.4-3.5c1.8,0,2.5,0.9,2.6,1l-0.5,1
		c-0.2-0.2-0.8-0.8-2-0.8s-2.2,0.9-2.2,2.3s0.9,2.4,2.2,2.4c1.3,0,2-0.8,2-0.8L373,343.9z"/>
	<path fill="#252525" d="M378,339.3L378,339.3c-0.2-0.1-0.4-0.1-0.8-0.1c-0.6,0-1,0.4-1.1,0.6c-0.1,0.2-0.4,0.7-0.4,1.7v3.3h-1.4
		v-6.7h1.4l0,1h0c0.3-0.8,0.9-1.2,1.6-1.2c0.5,0,0.7,0.1,0.7,0.1L378,339.3z"/>
	<path fill="#252525" d="M380.1,336.7c-0.5,0-0.9-0.4-0.9-0.8s0.4-0.8,0.9-0.8c0.5,0,0.9,0.4,0.9,0.8S380.6,336.7,380.1,336.7z
		 M380.8,344.8h-1.4v-6.7h1.4V344.8z"/>
	<path fill="#252525" d="M386.1,344.9c-1.1,0-1.8-0.4-2.3-1.2l0,0v3.7h-1.4v-9.3h1.3v1.1h0c0.6-0.8,1.4-1.2,2.4-1.2
		c2,0,3.2,1.5,3.2,3.4C389.4,343.4,388.1,344.9,386.1,344.9z M385.9,339.1c-1.3,0-2.1,1-2.1,2.3s0.8,2.4,2.1,2.4
		c1.3,0,2.1-1,2.1-2.4S387.2,339.1,385.9,339.1z"/>
	<path fill="#252525" d="M393.6,344.7c0,0-0.5,0.2-1.2,0.2c-0.7,0-1.1-0.3-1.4-0.7c-0.3-0.4-0.3-0.9-0.3-2v-3h-1v-1.1h1v-2h1.4v2
		h1.6v1.1H392v3c0,0.6,0,0.9,0.2,1.2c0.1,0.2,0.3,0.3,0.7,0.3c0.4,0,0.7-0.2,0.7-0.2L393.6,344.7z"/>
	<path fill="#252525" d="M395.1,336.7c-0.5,0-0.9-0.4-0.9-0.8s0.4-0.8,0.9-0.8c0.5,0,0.9,0.4,0.9,0.8S395.6,336.7,395.1,336.7z
		 M395.8,344.8h-1.4v-6.7h1.4V344.8z"/>
	<path fill="#252525" d="M400.5,344.9c-2,0-3.5-1.4-3.5-3.5c0-2.1,1.5-3.5,3.5-3.5c2,0,3.5,1.4,3.5,3.5
		C404,343.5,402.5,344.9,400.5,344.9z M400.5,339.1c-1.4,0-2.2,1-2.2,2.3c0,1.3,0.8,2.4,2.2,2.4c1.3,0,2.2-1,2.2-2.4
		C402.7,340.1,401.8,339.1,400.5,339.1z"/>
	<path fill="#252525" d="M411.2,344.8h-1.4V341c0-1.1-0.2-2-1.4-2c-1.3,0-1.7,1.1-1.7,2.3v3.4h-1.4v-6.7h1.4l0,1.1h0
		c0.4-0.7,1.1-1.2,2-1.2c1.9,0,2.4,1.2,2.4,2.8V344.8z"/>
	<path fill="#252525" d="M419.5,344.9c-2,0-3.5-1.4-3.5-3.5c0-2.1,1.5-3.5,3.5-3.5c2,0,3.5,1.4,3.5,3.5
		C423,343.5,421.5,344.9,419.5,344.9z M419.5,339.1c-1.4,0-2.2,1-2.2,2.3c0,1.3,0.8,2.4,2.2,2.4c1.3,0,2.2-1,2.2-2.4
		C421.7,340.1,420.8,339.1,419.5,339.1z"/>
	<path fill="#252525" d="M427.8,336.1c0,0-0.4-0.1-0.8-0.1c-0.9,0-1,0.7-1,1.4v0.7h1.6v1.1H426v5.6h-1.3v-5.6h-1v-1.1h1v-0.7
		c0-0.9,0.2-1.4,0.5-1.8c0.3-0.4,0.8-0.7,1.6-0.7c0.8,0,1.2,0.2,1.2,0.2L427.8,336.1z"/>
	<path fill="#252525" d="M437,343.9c-0.2,0.2-0.9,1-2.7,1c-1.8,0-3.4-1.3-3.4-3.5c0-2.1,1.6-3.5,3.4-3.5c1.8,0,2.5,0.9,2.6,1l-0.5,1
		c-0.2-0.2-0.8-0.8-2-0.8s-2.2,0.9-2.2,2.3s0.9,2.4,2.2,2.4c1.3,0,2-0.8,2-0.8L437,343.9z"/>
	<path fill="#252525" d="M444.3,344.8h-1.4V341c0-1-0.2-1.9-1.4-1.9c-1.2,0-1.7,1.1-1.7,2.4v3.3h-1.3v-9.7h1.3v4.1h0
		c0.4-0.7,1.1-1.2,2.1-1.2c1.9,0,2.4,1.2,2.4,2.8V344.8z"/>
	<path fill="#252525" d="M451.6,344.8h-1.3l0-0.8c-0.3,0.3-0.9,1-2.1,1c-1.2,0-2.3-0.8-2.3-2.1c0-1.3,1.1-2,2.6-2l1.8-0.1v-0.3
		c0-1-0.7-1.5-1.7-1.5s-1.8,0.4-2,0.6l-0.4-0.9c0.5-0.3,1.4-0.7,2.5-0.7s1.8,0.3,2.2,0.8c0.5,0.5,0.7,1,0.7,2.2V344.8z M450.3,341.6
		l-1.6,0.1c-1.1,0.1-1.5,0.5-1.5,1.1s0.5,1.2,1.4,1.2c0.9,0,1.4-0.6,1.7-1V341.6z"/>
	<path fill="#252525" d="M457,339.3L457,339.3c-0.2-0.1-0.4-0.1-0.8-0.1c-0.6,0-1,0.4-1.1,0.6c-0.1,0.2-0.4,0.7-0.4,1.7v3.3h-1.4
		v-6.7h1.4l0,1h0c0.3-0.8,0.9-1.2,1.6-1.2c0.5,0,0.7,0.1,0.7,0.1L457,339.3z"/>
	<path fill="#252525" d="M461.6,344.7c0,0-0.5,0.2-1.2,0.2c-0.7,0-1.1-0.3-1.4-0.7c-0.3-0.4-0.3-0.9-0.3-2v-3h-1v-1.1h1v-2h1.4v2
		h1.6v1.1H460v3c0,0.6,0,0.9,0.2,1.2c0.1,0.2,0.3,0.3,0.7,0.3c0.4,0,0.7-0.2,0.7-0.2L461.6,344.7z"/>
</g>
<g>
	<path fill="#252525" d="M263.5,804c-0.6,0.5-1.4,0.8-2.4,0.8c-1.7,0-2.7-1.1-3.1-1.6l0.8-0.9c0.5,0.7,1.4,1.4,2.5,1.4
		c1.1,0,1.9-0.6,1.9-1.6c0-1-1.1-1.4-1.6-1.6c-0.5-0.2-1.2-0.5-1.5-0.6c-0.2-0.1-0.6-0.3-1-0.7c-0.4-0.4-0.6-0.9-0.6-1.7
		s0.4-1.4,0.9-1.9c0.5-0.4,1.3-0.7,2.2-0.7c1.6,0,2.5,1,2.8,1.2l-0.7,0.9c-0.5-0.5-1.2-1-2.1-1c-1,0-1.7,0.4-1.7,1.3
		s0.7,1.2,1.3,1.5l1.8,0.7c0.2,0.1,0.8,0.4,1.1,0.8c0.3,0.4,0.6,0.9,0.6,1.6C264.5,802.8,264.1,803.5,263.5,804z"/>
	<path fill="#252525" d="M269.5,804.8c-2,0-3.5-1.4-3.5-3.5c0-2.1,1.5-3.5,3.5-3.5c2,0,3.5,1.4,3.5,3.5
		C273,803.4,271.5,804.8,269.5,804.8z M269.5,798.9c-1.4,0-2.2,1-2.2,2.3c0,1.3,0.8,2.4,2.2,2.4c1.3,0,2.2-1,2.2-2.4
		C271.7,799.9,270.8,798.9,269.5,798.9z"/>
	<path fill="#252525" d="M284.1,804.6h-1.3v-3.9c0-0.8-0.1-1.8-1.2-1.8c-1.1,0-1.6,1-1.6,2.2v3.5h-1.4v-3.9c0-1-0.2-1.8-1.2-1.8
		c-1.1,0-1.6,1-1.6,2.2v3.5h-1.4v-6.7h1.4l0,1.1h0c0.3-0.6,1-1.2,1.9-1.2c1,0,1.7,0.4,2,1.3c0.5-0.8,1.2-1.3,2.1-1.3
		c1.8,0,2.3,1.3,2.3,2.7V804.6z"/>
	<path fill="#252525" d="M291.5,801.6h-5.1c0.1,1.3,0.9,2.1,2.2,2.1c1.3,0,2.1-0.7,2.2-0.8l0.6,0.8c-0.1,0.1-0.9,1.1-2.9,1.1
		c-2,0-3.3-1.4-3.3-3.5c0-2.1,1.5-3.4,3.4-3.4c1.9,0,3.2,1.3,3.2,3.2C291.5,801.3,291.5,801.6,291.5,801.6z M290.2,800.7
		c0-0.7-0.6-1.9-1.9-1.9c-1.3,0-1.9,1.1-2,1.9H290.2z"/>
	<path fill="#252525" d="M300.6,804.6h-1.3l0-0.8c-0.3,0.3-0.9,1-2.1,1c-1.2,0-2.3-0.8-2.3-2.1c0-1.3,1.1-2,2.6-2l1.8-0.1v-0.3
		c0-1-0.7-1.5-1.7-1.5s-1.8,0.4-2,0.6l-0.4-0.9c0.5-0.3,1.4-0.7,2.5-0.7s1.8,0.3,2.2,0.8c0.5,0.5,0.7,1,0.7,2.2V804.6z M299.3,801.4
		l-1.6,0.1c-1.1,0.1-1.5,0.5-1.5,1.1s0.5,1.2,1.4,1.2c0.9,0,1.4-0.6,1.7-1V801.4z"/>
	<path fill="#252525" d="M308.9,804.6h-1.3v-1.1h0c-0.5,0.8-1.4,1.2-2.3,1.2c-2,0-3.2-1.5-3.2-3.5c0-2,1.3-3.4,3.2-3.4
		c1.1,0,1.9,0.5,2.3,1.2h0v-4.1h1.3V804.6z M305.5,798.9c-1.3,0-2.1,1-2.1,2.3s0.8,2.4,2.1,2.4s2.1-1,2.1-2.4
		S306.8,798.9,305.5,798.9z"/>
	<path fill="#252525" d="M316.9,804.6h-1.3v-1.1h0c-0.5,0.8-1.4,1.2-2.3,1.2c-2,0-3.2-1.5-3.2-3.5c0-2,1.3-3.4,3.2-3.4
		c1.1,0,1.9,0.5,2.3,1.2h0v-4.1h1.3V804.6z M313.5,798.9c-1.3,0-2.1,1-2.1,2.3s0.8,2.4,2.1,2.4s2.1-1,2.1-2.4
		S314.8,798.9,313.5,798.9z"/>
	<path fill="#252525" d="M319.1,796.6c-0.5,0-0.9-0.4-0.9-0.8s0.4-0.8,0.9-0.8c0.5,0,0.9,0.4,0.9,0.8S319.6,796.6,319.1,796.6z
		 M319.8,804.6h-1.4v-6.7h1.4V804.6z"/>
	<path fill="#252525" d="M324.6,804.5c0,0-0.5,0.2-1.2,0.2c-0.7,0-1.1-0.3-1.4-0.7c-0.3-0.4-0.3-0.9-0.3-2v-3h-1V798h1v-2h1.4v2h1.6
		v1.1H323v3c0,0.6,0,0.9,0.2,1.2c0.1,0.2,0.3,0.3,0.7,0.3c0.4,0,0.7-0.2,0.7-0.2L324.6,804.5z"/>
	<path fill="#252525" d="M326.1,796.6c-0.5,0-0.9-0.4-0.9-0.8s0.4-0.8,0.9-0.8c0.5,0,0.9,0.4,0.9,0.8S326.6,796.6,326.1,796.6z
		 M326.8,804.6h-1.4v-6.7h1.4V804.6z"/>
	<path fill="#252525" d="M334.2,797.9l-2.8,6.7h-1.2l-2.8-6.7h1.4l2,5l2-5H334.2z"/>
	<path fill="#252525" d="M341.5,801.6h-5.1c0.1,1.3,0.9,2.1,2.2,2.1c1.3,0,2.1-0.7,2.2-0.8l0.6,0.8c-0.1,0.1-0.9,1.1-2.9,1.1
		c-2,0-3.3-1.4-3.3-3.5c0-2.1,1.5-3.4,3.4-3.4c1.9,0,3.2,1.3,3.2,3.2C341.5,801.3,341.5,801.6,341.5,801.6z M340.2,800.7
		c0-0.7-0.6-1.9-1.9-1.9c-1.3,0-1.9,1.1-2,1.9H340.2z"/>
	<path fill="#252525" d="M351.9,804.6h-1.3v-1.1h0c-0.5,0.8-1.4,1.2-2.3,1.2c-2,0-3.2-1.5-3.2-3.5c0-2,1.3-3.4,3.2-3.4
		c1.1,0,1.9,0.5,2.3,1.2h0v-4.1h1.3V804.6z M348.5,798.9c-1.3,0-2.1,1-2.1,2.3s0.8,2.4,2.1,2.4s2.1-1,2.1-2.4
		S349.8,798.9,348.5,798.9z"/>
	<path fill="#252525" d="M359.5,801.6h-5.1c0.1,1.3,0.9,2.1,2.2,2.1c1.3,0,2.1-0.7,2.2-0.8l0.6,0.8c-0.1,0.1-0.9,1.1-2.9,1.1
		c-2,0-3.3-1.4-3.3-3.5c0-2.1,1.5-3.4,3.4-3.4c1.9,0,3.2,1.3,3.2,3.2C359.5,801.3,359.5,801.6,359.5,801.6z M358.2,800.7
		c0-0.7-0.6-1.9-1.9-1.9c-1.3,0-1.9,1.1-2,1.9H358.2z"/>
	<path fill="#252525" d="M364.2,804.2c-0.5,0.4-1.1,0.6-1.9,0.6c-1.1,0-2-0.5-2.6-1.2l0.6-0.8c0.5,0.6,1.4,1,2,1s1.3-0.2,1.3-1
		c0-0.7-1.1-1-1.5-1.1s-0.6-0.2-0.9-0.4c-0.4-0.2-1.1-0.6-1.1-1.6c0-1.2,1.1-1.9,2.3-1.9s1.9,0.4,2.3,0.9l-0.6,0.8
		c-0.4-0.4-1-0.7-1.7-0.7s-1.1,0.3-1.1,0.8s0.6,0.8,1.3,1c0.4,0.1,0.6,0.2,0.9,0.3c0.3,0.1,0.6,0.3,0.8,0.5c0.3,0.2,0.5,0.6,0.5,1.2
		C364.9,803.3,364.6,803.8,364.2,804.2z"/>
	<path fill="#252525" d="M372,803.7c-0.2,0.2-0.9,1-2.7,1c-1.8,0-3.4-1.3-3.4-3.5c0-2.1,1.6-3.5,3.4-3.5c1.8,0,2.5,0.9,2.6,1l-0.5,1
		c-0.2-0.2-0.8-0.8-2-0.8s-2.2,0.9-2.2,2.3s0.9,2.4,2.2,2.4c1.3,0,2-0.8,2-0.8L372,803.7z"/>
	<path fill="#252525" d="M377,799.2L377,799.2c-0.2-0.1-0.4-0.1-0.8-0.1c-0.6,0-1,0.4-1.1,0.6c-0.1,0.2-0.4,0.7-0.4,1.7v3.3h-1.4
		v-6.7h1.4l0,1h0c0.3-0.8,0.9-1.2,1.6-1.2c0.5,0,0.7,0.1,0.7,0.1L377,799.2z"/>
	<path fill="#252525" d="M379.1,796.6c-0.5,0-0.9-0.4-0.9-0.8s0.4-0.8,0.9-0.8c0.5,0,0.9,0.4,0.9,0.8S379.6,796.6,379.1,796.6z
		 M379.8,804.6h-1.4v-6.7h1.4V804.6z"/>
	<path fill="#252525" d="M385.1,804.8c-1.1,0-1.8-0.4-2.3-1.2l0,0v3.7h-1.4v-9.3h1.3v1.1h0c0.6-0.8,1.4-1.2,2.4-1.2
		c2,0,3.2,1.5,3.2,3.4C388.4,803.2,387.1,804.8,385.1,804.8z M384.9,798.9c-1.3,0-2.1,1-2.1,2.3s0.8,2.4,2.1,2.4
		c1.3,0,2.1-1,2.1-2.4S386.2,798.9,384.9,798.9z"/>
	<path fill="#252525" d="M392.6,804.5c0,0-0.5,0.2-1.2,0.2c-0.7,0-1.1-0.3-1.4-0.7c-0.3-0.4-0.3-0.9-0.3-2v-3h-1V798h1v-2h1.4v2h1.6
		v1.1H391v3c0,0.6,0,0.9,0.2,1.2c0.1,0.2,0.3,0.3,0.7,0.3c0.4,0,0.7-0.2,0.7-0.2L392.6,804.5z"/>
	<path fill="#252525" d="M394.1,796.6c-0.5,0-0.9-0.4-0.9-0.8s0.4-0.8,0.9-0.8c0.5,0,0.9,0.4,0.9,0.8S394.6,796.6,394.1,796.6z
		 M394.8,804.6h-1.4v-6.7h1.4V804.6z"/>
	<path fill="#252525" d="M399.5,804.8c-2,0-3.5-1.4-3.5-3.5c0-2.1,1.5-3.5,3.5-3.5c2,0,3.5,1.4,3.5,3.5
		C403,803.4,401.5,804.8,399.5,804.8z M399.5,798.9c-1.4,0-2.2,1-2.2,2.3c0,1.3,0.8,2.4,2.2,2.4c1.3,0,2.2-1,2.2-2.4
		C401.7,799.9,400.8,798.9,399.5,798.9z"/>
	<path fill="#252525" d="M410.2,804.6h-1.4v-3.7c0-1.1-0.2-2-1.4-2c-1.3,0-1.7,1.1-1.7,2.3v3.4h-1.4v-6.7h1.4l0,1.1h0
		c0.4-0.7,1.1-1.2,2-1.2c1.9,0,2.4,1.2,2.4,2.8V804.6z"/>
	<path fill="#252525" d="M418.5,804.8c-2,0-3.5-1.4-3.5-3.5c0-2.1,1.5-3.5,3.5-3.5c2,0,3.5,1.4,3.5,3.5
		C422,803.4,420.5,804.8,418.5,804.8z M418.5,798.9c-1.4,0-2.2,1-2.2,2.3c0,1.3,0.8,2.4,2.2,2.4c1.3,0,2.2-1,2.2-2.4
		C420.7,799.9,419.8,798.9,418.5,798.9z"/>
	<path fill="#252525" d="M426.8,795.9c0,0-0.4-0.1-0.8-0.1c-0.9,0-1,0.7-1,1.4v0.7h1.6v1.1H425v5.6h-1.3V799h-1V798h1v-0.7
		c0-0.9,0.2-1.4,0.5-1.8c0.3-0.4,0.8-0.7,1.6-0.7c0.8,0,1.2,0.2,1.2,0.2L426.8,795.9z"/>
	<path fill="#252525" d="M436,803.7c-0.2,0.2-0.9,1-2.7,1c-1.8,0-3.4-1.3-3.4-3.5c0-2.1,1.6-3.5,3.4-3.5c1.8,0,2.5,0.9,2.6,1l-0.5,1
		c-0.2-0.2-0.8-0.8-2-0.8s-2.2,0.9-2.2,2.3s0.9,2.4,2.2,2.4c1.3,0,2-0.8,2-0.8L436,803.7z"/>
	<path fill="#252525" d="M443.3,804.6h-1.4v-3.8c0-1-0.2-1.9-1.4-1.9c-1.2,0-1.7,1.1-1.7,2.4v3.3h-1.3v-9.7h1.3v4.1h0
		c0.4-0.7,1.1-1.2,2.1-1.2c1.9,0,2.4,1.2,2.4,2.8V804.6z"/>
	<path fill="#252525" d="M450.6,804.6h-1.3l0-0.8c-0.3,0.3-0.9,1-2.1,1c-1.2,0-2.3-0.8-2.3-2.1c0-1.3,1.1-2,2.6-2l1.8-0.1v-0.3
		c0-1-0.7-1.5-1.7-1.5s-1.8,0.4-2,0.6l-0.4-0.9c0.5-0.3,1.4-0.7,2.5-0.7s1.8,0.3,2.2,0.8c0.5,0.5,0.7,1,0.7,2.2V804.6z M449.3,801.4
		l-1.6,0.1c-1.1,0.1-1.5,0.5-1.5,1.1s0.5,1.2,1.4,1.2c0.9,0,1.4-0.6,1.7-1V801.4z"/>
	<path fill="#252525" d="M456,799.2L456,799.2c-0.2-0.1-0.4-0.1-0.8-0.1c-0.6,0-1,0.4-1.1,0.6c-0.1,0.2-0.4,0.7-0.4,1.7v3.3h-1.4
		v-6.7h1.4l0,1h0c0.3-0.8,0.9-1.2,1.6-1.2c0.5,0,0.7,0.1,0.7,0.1L456,799.2z"/>
	<path fill="#252525" d="M460.6,804.5c0,0-0.5,0.2-1.2,0.2c-0.7,0-1.1-0.3-1.4-0.7c-0.3-0.4-0.3-0.9-0.3-2v-3h-1V798h1v-2h1.4v2h1.6
		v1.1H459v3c0,0.6,0,0.9,0.2,1.2c0.1,0.2,0.3,0.3,0.7,0.3c0.4,0,0.7-0.2,0.7-0.2L460.6,804.5z"/>
</g>
<g>
	<path fill="#252525" d="M588.1,1263.9c-0.6,0.5-1.4,0.8-2.4,0.8c-1.7,0-2.7-1.1-3.1-1.6l0.8-0.9c0.5,0.7,1.4,1.4,2.5,1.4
		c1.1,0,1.9-0.6,1.9-1.6c0-1-1.1-1.4-1.6-1.6c-0.5-0.2-1.2-0.5-1.5-0.6c-0.2-0.1-0.6-0.3-1-0.7c-0.4-0.4-0.6-0.9-0.6-1.7
		s0.4-1.4,0.9-1.9c0.5-0.4,1.3-0.7,2.2-0.7c1.6,0,2.5,1,2.8,1.2l-0.7,0.9c-0.5-0.5-1.2-1-2.1-1c-1,0-1.7,0.4-1.7,1.3
		s0.7,1.2,1.3,1.5l1.8,0.7c0.2,0.1,0.8,0.4,1.1,0.8c0.3,0.4,0.6,0.9,0.6,1.6C589.1,1262.6,588.7,1263.3,588.1,1263.9z"/>
	<path fill="#252525" d="M594.1,1264.6c-2,0-3.5-1.4-3.5-3.5c0-2.1,1.5-3.5,3.5-3.5c2,0,3.5,1.4,3.5,3.5
		C597.6,1263.2,596.1,1264.6,594.1,1264.6z M594.1,1258.7c-1.4,0-2.2,1-2.2,2.3c0,1.3,0.8,2.4,2.2,2.4c1.3,0,2.2-1,2.2-2.4
		C596.2,1259.8,595.4,1258.7,594.1,1258.7z"/>
	<path fill="#252525" d="M608.7,1264.4h-1.3v-3.9c0-0.8-0.1-1.8-1.2-1.8c-1.1,0-1.6,1-1.6,2.2v3.5h-1.4v-3.9c0-1-0.2-1.8-1.2-1.8
		c-1.1,0-1.6,1-1.6,2.2v3.5H599v-6.7h1.4l0,1.1h0c0.3-0.6,1-1.2,1.9-1.2c1,0,1.7,0.4,2,1.3c0.5-0.8,1.2-1.3,2.1-1.3
		c1.8,0,2.3,1.3,2.3,2.7V1264.4z"/>
	<path fill="#252525" d="M616.1,1261.4h-5.1c0.1,1.3,0.9,2.1,2.2,2.1c1.3,0,2.1-0.7,2.2-0.8l0.6,0.8c-0.1,0.1-0.9,1.1-2.9,1.1
		c-2,0-3.3-1.4-3.3-3.5c0-2.1,1.5-3.4,3.4-3.4c1.9,0,3.2,1.3,3.2,3.2C616.1,1261.1,616.1,1261.4,616.1,1261.4z M614.8,1260.5
		c0-0.7-0.6-1.9-1.9-1.9c-1.3,0-1.9,1.1-2,1.9H614.8z"/>
	<path fill="#252525" d="M625.2,1264.4h-1.3l0-0.8c-0.3,0.3-0.9,1-2.1,1c-1.2,0-2.3-0.8-2.3-2.1c0-1.3,1.1-2,2.6-2l1.8-0.1v-0.3
		c0-1-0.7-1.5-1.7-1.5s-1.8,0.4-2,0.6l-0.4-0.9c0.5-0.3,1.4-0.7,2.5-0.7s1.8,0.3,2.2,0.8c0.5,0.5,0.7,1,0.7,2.2V1264.4z
		 M623.8,1261.2l-1.6,0.1c-1.1,0.1-1.5,0.5-1.5,1.1s0.5,1.2,1.4,1.2c0.9,0,1.4-0.6,1.7-1V1261.2z"/>
	<path fill="#252525" d="M633.5,1264.4h-1.3v-1.1h0c-0.5,0.8-1.4,1.2-2.3,1.2c-2,0-3.2-1.5-3.2-3.5c0-2,1.3-3.4,3.2-3.4
		c1.1,0,1.9,0.5,2.3,1.2h0v-4.1h1.3V1264.4z M630,1258.7c-1.3,0-2.1,1-2.1,2.3s0.8,2.4,2.1,2.4s2.1-1,2.1-2.4
		S631.4,1258.7,630,1258.7z"/>
	<path fill="#252525" d="M641.5,1264.4h-1.3v-1.1h0c-0.5,0.8-1.4,1.2-2.3,1.2c-2,0-3.2-1.5-3.2-3.5c0-2,1.3-3.4,3.2-3.4
		c1.1,0,1.9,0.5,2.3,1.2h0v-4.1h1.3V1264.4z M638,1258.7c-1.3,0-2.1,1-2.1,2.3s0.8,2.4,2.1,2.4s2.1-1,2.1-2.4
		S639.4,1258.7,638,1258.7z"/>
	<path fill="#252525" d="M643.7,1256.4c-0.5,0-0.9-0.4-0.9-0.8s0.4-0.8,0.9-0.8c0.5,0,0.9,0.4,0.9,0.8S644.2,1256.4,643.7,1256.4z
		 M644.4,1264.4H643v-6.7h1.4V1264.4z"/>
	<path fill="#252525" d="M649.2,1264.4c0,0-0.5,0.2-1.2,0.2c-0.7,0-1.1-0.3-1.4-0.7c-0.3-0.4-0.3-0.9-0.3-2v-3h-1v-1.1h1v-2h1.4v2
		h1.6v1.1h-1.6v3c0,0.6,0,0.9,0.2,1.2c0.1,0.2,0.3,0.3,0.7,0.3c0.4,0,0.7-0.2,0.7-0.2L649.2,1264.4z"/>
	<path fill="#252525" d="M650.7,1256.4c-0.5,0-0.9-0.4-0.9-0.8s0.4-0.8,0.9-0.8c0.5,0,0.9,0.4,0.9,0.8S651.2,1256.4,650.7,1256.4z
		 M651.4,1264.4H650v-6.7h1.4V1264.4z"/>
	<path fill="#252525" d="M658.8,1257.8l-2.8,6.7h-1.2l-2.8-6.7h1.4l2,5l2-5H658.8z"/>
	<path fill="#252525" d="M666.1,1261.4h-5.1c0.1,1.3,0.9,2.1,2.2,2.1c1.3,0,2.1-0.7,2.2-0.8l0.6,0.8c-0.1,0.1-0.9,1.1-2.9,1.1
		c-2,0-3.3-1.4-3.3-3.5c0-2.1,1.5-3.4,3.4-3.4c1.9,0,3.2,1.3,3.2,3.2C666.1,1261.1,666.1,1261.4,666.1,1261.4z M664.8,1260.5
		c0-0.7-0.6-1.9-1.9-1.9c-1.3,0-1.9,1.1-2,1.9H664.8z"/>
	<path fill="#252525" d="M676.5,1264.4h-1.3v-1.1h0c-0.5,0.8-1.4,1.2-2.3,1.2c-2,0-3.2-1.5-3.2-3.5c0-2,1.3-3.4,3.2-3.4
		c1.1,0,1.9,0.5,2.3,1.2h0v-4.1h1.3V1264.4z M673,1258.7c-1.3,0-2.1,1-2.1,2.3s0.8,2.4,2.1,2.4s2.1-1,2.1-2.4
		S674.4,1258.7,673,1258.7z"/>
	<path fill="#252525" d="M684.1,1261.4h-5.1c0.1,1.3,0.9,2.1,2.2,2.1c1.3,0,2.1-0.7,2.2-0.8l0.6,0.8c-0.1,0.1-0.9,1.1-2.9,1.1
		c-2,0-3.3-1.4-3.3-3.5c0-2.1,1.5-3.4,3.4-3.4c1.9,0,3.2,1.3,3.2,3.2C684.1,1261.1,684.1,1261.4,684.1,1261.4z M682.8,1260.5
		c0-0.7-0.6-1.9-1.9-1.9c-1.3,0-1.9,1.1-2,1.9H682.8z"/>
	<path fill="#252525" d="M688.8,1264c-0.5,0.4-1.1,0.6-1.9,0.6c-1.1,0-2-0.5-2.6-1.2l0.6-0.8c0.5,0.6,1.4,1,2,1s1.3-0.2,1.3-1
		c0-0.7-1.1-1-1.5-1.1s-0.6-0.2-0.9-0.4c-0.4-0.2-1.1-0.6-1.1-1.6c0-1.2,1.1-1.9,2.3-1.9s1.9,0.4,2.3,0.9l-0.6,0.8
		c-0.4-0.4-1-0.7-1.7-0.7s-1.1,0.3-1.1,0.8s0.6,0.8,1.3,1c0.4,0.1,0.6,0.2,0.9,0.3c0.3,0.1,0.6,0.3,0.8,0.5c0.3,0.2,0.5,0.6,0.5,1.2
		C689.5,1263.1,689.2,1263.6,688.8,1264z"/>
	<path fill="#252525" d="M696.6,1263.6c-0.2,0.2-0.9,1-2.7,1c-1.8,0-3.4-1.3-3.4-3.5c0-2.1,1.6-3.5,3.4-3.5c1.8,0,2.5,0.9,2.6,1
		l-0.5,1c-0.2-0.2-0.8-0.8-2-0.8s-2.2,0.9-2.2,2.3s0.9,2.4,2.2,2.4c1.3,0,2-0.8,2-0.8L696.6,1263.6z"/>
	<path fill="#252525" d="M701.6,1259L701.6,1259c-0.2-0.1-0.4-0.1-0.8-0.1c-0.6,0-1,0.4-1.1,0.6c-0.1,0.2-0.4,0.7-0.4,1.7v3.3H698
		v-6.7h1.4l0,1h0c0.3-0.8,0.9-1.2,1.6-1.2c0.5,0,0.7,0.1,0.7,0.1L701.6,1259z"/>
	<path fill="#252525" d="M703.7,1256.4c-0.5,0-0.9-0.4-0.9-0.8s0.4-0.8,0.9-0.8c0.5,0,0.9,0.4,0.9,0.8S704.2,1256.4,703.7,1256.4z
		 M704.4,1264.4H703v-6.7h1.4V1264.4z"/>
	<path fill="#252525" d="M709.7,1264.6c-1.1,0-1.8-0.4-2.3-1.2l0,0v3.7H706v-9.3h1.3v1.1h0c0.6-0.8,1.4-1.2,2.4-1.2
		c2,0,3.2,1.5,3.2,3.4C713,1263.1,711.7,1264.6,709.7,1264.6z M709.5,1258.7c-1.3,0-2.1,1-2.1,2.3s0.8,2.4,2.1,2.4
		c1.3,0,2.1-1,2.1-2.4S710.8,1258.7,709.5,1258.7z"/>
	<path fill="#252525" d="M717.2,1264.4c0,0-0.5,0.2-1.2,0.2c-0.7,0-1.1-0.3-1.4-0.7c-0.3-0.4-0.3-0.9-0.3-2v-3h-1v-1.1h1v-2h1.4v2
		h1.6v1.1h-1.6v3c0,0.6,0,0.9,0.2,1.2c0.1,0.2,0.3,0.3,0.7,0.3c0.4,0,0.7-0.2,0.7-0.2L717.2,1264.4z"/>
	<path fill="#252525" d="M718.7,1256.4c-0.5,0-0.9-0.4-0.9-0.8s0.4-0.8,0.9-0.8c0.5,0,0.9,0.4,0.9,0.8S719.2,1256.4,718.7,1256.4z
		 M719.4,1264.4H718v-6.7h1.4V1264.4z"/>
	<path fill="#252525" d="M724.1,1264.6c-2,0-3.5-1.4-3.5-3.5c0-2.1,1.5-3.5,3.5-3.5c2,0,3.5,1.4,3.5,3.5
		C727.6,1263.2,726.1,1264.6,724.1,1264.6z M724.1,1258.7c-1.4,0-2.2,1-2.2,2.3c0,1.3,0.8,2.4,2.2,2.4c1.3,0,2.2-1,2.2-2.4
		C726.2,1259.8,725.4,1258.7,724.1,1258.7z"/>
	<path fill="#252525" d="M734.8,1264.4h-1.4v-3.7c0-1.1-0.2-2-1.4-2c-1.3,0-1.7,1.1-1.7,2.3v3.4H729v-6.7h1.4l0,1.1h0
		c0.4-0.7,1.1-1.2,2-1.2c1.9,0,2.4,1.2,2.4,2.8V1264.4z"/>
	<path fill="#252525" d="M743.1,1264.6c-2,0-3.5-1.4-3.5-3.5c0-2.1,1.5-3.5,3.5-3.5c2,0,3.5,1.4,3.5,3.5
		C746.6,1263.2,745.1,1264.6,743.1,1264.6z M743.1,1258.7c-1.4,0-2.2,1-2.2,2.3c0,1.3,0.8,2.4,2.2,2.4c1.3,0,2.2-1,2.2-2.4
		C745.2,1259.8,744.4,1258.7,743.1,1258.7z"/>
	<path fill="#252525" d="M751.4,1255.8c0,0-0.4-0.1-0.8-0.1c-0.9,0-1,0.7-1,1.4v0.7h1.6v1.1h-1.6v5.6h-1.3v-5.6h-1v-1.1h1v-0.7
		c0-0.9,0.2-1.4,0.5-1.8c0.3-0.4,0.8-0.7,1.6-0.7c0.8,0,1.2,0.2,1.2,0.2L751.4,1255.8z"/>
	<path fill="#252525" d="M760.6,1263.6c-0.2,0.2-0.9,1-2.7,1c-1.8,0-3.4-1.3-3.4-3.5c0-2.1,1.6-3.5,3.4-3.5c1.8,0,2.5,0.9,2.6,1
		l-0.5,1c-0.2-0.2-0.8-0.8-2-0.8s-2.2,0.9-2.2,2.3s0.9,2.4,2.2,2.4c1.3,0,2-0.8,2-0.8L760.6,1263.6z"/>
	<path fill="#252525" d="M767.9,1264.4h-1.4v-3.8c0-1-0.2-1.9-1.4-1.9c-1.2,0-1.7,1.1-1.7,2.4v3.3h-1.3v-9.7h1.3v4.1h0
		c0.4-0.7,1.1-1.2,2.1-1.2c1.9,0,2.4,1.2,2.4,2.8V1264.4z"/>
	<path fill="#252525" d="M775.2,1264.4h-1.3l0-0.8c-0.3,0.3-0.9,1-2.1,1c-1.2,0-2.3-0.8-2.3-2.1c0-1.3,1.1-2,2.6-2l1.8-0.1v-0.3
		c0-1-0.7-1.5-1.7-1.5s-1.8,0.4-2,0.6l-0.4-0.9c0.5-0.3,1.4-0.7,2.5-0.7s1.8,0.3,2.2,0.8c0.5,0.5,0.7,1,0.7,2.2V1264.4z
		 M773.8,1261.2l-1.6,0.1c-1.1,0.1-1.5,0.5-1.5,1.1s0.5,1.2,1.4,1.2c0.9,0,1.4-0.6,1.7-1V1261.2z"/>
	<path fill="#252525" d="M780.6,1259L780.6,1259c-0.2-0.1-0.4-0.1-0.8-0.1c-0.6,0-1,0.4-1.1,0.6c-0.1,0.2-0.4,0.7-0.4,1.7v3.3H777
		v-6.7h1.4l0,1h0c0.3-0.8,0.9-1.2,1.6-1.2c0.5,0,0.7,0.1,0.7,0.1L780.6,1259z"/>
	<path fill="#252525" d="M785.2,1264.4c0,0-0.5,0.2-1.2,0.2c-0.7,0-1.1-0.3-1.4-0.7c-0.3-0.4-0.3-0.9-0.3-2v-3h-1v-1.1h1v-2h1.4v2
		h1.6v1.1h-1.6v3c0,0.6,0,0.9,0.2,1.2c0.1,0.2,0.3,0.3,0.7,0.3c0.4,0,0.7-0.2,0.7-0.2L785.2,1264.4z"/>
</g>
<g id="Ellipse_1_copy_8">
	<g>
		<path fill="#00A7D7" d="M817,1c33.3,0,64.6,13,88.2,36.5s36.5,54.9,36.5,88.2c0,33.3-13,64.6-36.5,88.2s-54.9,36.5-88.2,36.5
			c-33.3,0-64.6-13-88.2-36.5c-23.6-23.6-36.5-54.9-36.5-88.2c0-33.3,13-64.6,36.5-88.2C752.3,14,783.7,1,817,1 M817,0
			c-69.4,0-125.7,56.3-125.7,125.7c0,69.4,56.3,125.7,125.7,125.7s125.7-56.3,125.7-125.7C942.7,56.3,886.4,0,817,0L817,0z"/>
	</g>
</g>
<g id="Ellipse_1_copy_9">
	<g>
		<path fill="#00A7D7" d="M125.7,459.8c33.3,0,64.6,13,88.2,36.5c23.6,23.6,36.5,54.9,36.5,88.2c0,33.3-13,64.6-36.5,88.2
			c-23.6,23.6-54.9,36.5-88.2,36.5s-64.6-13-88.2-36.5S1,617.9,1,584.6s13-64.6,36.5-88.2C61.1,472.8,92.4,459.8,125.7,459.8
			 M125.7,458.8C56.3,458.8,0,515.1,0,584.6s56.3,125.7,125.7,125.7S251.5,654,251.5,584.6S195.2,458.8,125.7,458.8L125.7,458.8z"/>
	</g>
</g>
<g id="Ellipse_1_copy_11">
	<g>
		<path fill="#EAEAEA" d="M125.7,920.7c33.3,0,64.6,13,88.2,36.5c23.6,23.6,36.5,54.9,36.5,88.2c0,33.3-13,64.6-36.5,88.2
			c-23.6,23.6-54.9,36.5-88.2,36.5c-33.3,0-64.6-13-88.2-36.5C14,1110,1,1078.7,1,1045.4c0-33.3,13-64.6,36.5-88.2
			C61.1,933.6,92.4,920.7,125.7,920.7 M125.7,919.7C56.3,919.7,0,976,0,1045.4c0,69.4,56.3,125.7,125.7,125.7
			s125.7-56.3,125.7-125.7C251.5,976,195.2,919.7,125.7,919.7L125.7,919.7z"/>
	</g>
</g>
<g id="Ellipse_1_copy_10">
	<g>
		<path fill="#EAEAEA" d="M974.3,459.8c33.3,0,64.6,13,88.2,36.5c23.6,23.6,36.5,54.9,36.5,88.2s-13,64.6-36.5,88.2
			s-54.9,36.5-88.2,36.5s-64.6-13-88.2-36.5s-36.5-54.9-36.5-88.2s13-64.6,36.5-88.2C909.6,472.8,941,459.8,974.3,459.8
			 M974.3,458.8c-69.4,0-125.7,56.3-125.7,125.7s56.3,125.7,125.7,125.7S1100,654,1100,584.6S1043.7,458.8,974.3,458.8L974.3,458.8z
			"/>
	</g>
</g>
<g id="Ellipse_1_copy_13">
	<g>
		<path fill="#EAEAEA" d="M125.7,1381.5c33.3,0,64.6,13,88.2,36.5c23.6,23.6,36.5,54.9,36.5,88.2c0,33.3-13,64.6-36.5,88.2
			c-23.6,23.6-54.9,36.5-88.2,36.5c-33.3,0-64.6-13-88.2-36.5C14,1570.9,1,1539.6,1,1506.2c0-33.3,13-64.6,36.5-88.2
			S92.4,1381.5,125.7,1381.5 M125.7,1380.5C56.3,1380.5,0,1436.8,0,1506.2c0,69.4,56.3,125.7,125.7,125.7s125.7-56.3,125.7-125.7
			C251.5,1436.8,195.2,1380.5,125.7,1380.5L125.7,1380.5z"/>
	</g>
</g>
<g id="Ellipse_1_copy_14">
	<g>
		<path fill="#EAEAEA" d="M974.3,920.7c33.3,0,64.6,13,88.2,36.5s36.5,54.9,36.5,88.2c0,33.3-13,64.6-36.5,88.2
			s-54.9,36.5-88.2,36.5s-64.6-13-88.2-36.5c-23.6-23.6-36.5-54.9-36.5-88.2c0-33.3,13-64.6,36.5-88.2
			C909.6,933.6,941,920.7,974.3,920.7 M974.3,919.7c-69.4,0-125.7,56.3-125.7,125.7c0,69.4,56.3,125.7,125.7,125.7
			s125.7-56.3,125.7-125.7C1100,976,1043.7,919.7,974.3,919.7L974.3,919.7z"/>
	</g>
</g>
<g id="Ellipse_2">
	<g>
		<path fill-rule="evenodd" clip-rule="evenodd" fill="#FFFFFF" d="M816,257.5c-3.6,0-6.5-2.9-6.5-6.5s2.9-6.5,6.5-6.5
			s6.5,2.9,6.5,6.5S819.6,257.5,816,257.5z"/>
	</g>
	<g>
		<path fill="#00A7D7" d="M816,245.4c3,0,5.5,2.5,5.5,5.5c0,3-2.5,5.5-5.5,5.5c-3,0-5.5-2.5-5.5-5.5
			C810.5,247.9,812.9,245.4,816,245.4 M816,243.4c-4.1,0-7.5,3.4-7.5,7.5c0,4.1,3.4,7.5,7.5,7.5c4.1,0,7.5-3.4,7.5-7.5
			C823.5,246.8,820.1,243.4,816,243.4L816,243.4z"/>
	</g>
</g>
<g id="Ellipse_2_copy">
	<g>
		<path fill-rule="evenodd" clip-rule="evenodd" fill="#FFFFFF" d="M122.7,466.9c-3.6,0-6.5-2.9-6.5-6.5s2.9-6.5,6.5-6.5
			s6.5,2.9,6.5,6.5S126.3,466.9,122.7,466.9z"/>
	</g>
	<g>
		<path fill="#00A7D7" d="M122.7,454.8c3,0,5.5,2.5,5.5,5.5c0,3-2.5,5.5-5.5,5.5c-3,0-5.5-2.5-5.5-5.5
			C117.2,457.3,119.7,454.8,122.7,454.8 M122.7,452.8c-4.1,0-7.5,3.4-7.5,7.5c0,4.1,3.4,7.5,7.5,7.5c4.1,0,7.5-3.4,7.5-7.5
			C130.2,456.2,126.9,452.8,122.7,452.8L122.7,452.8z"/>
	</g>
</g>
<g id="Ellipse_2_copy_3">
	<g>
		<path fill-rule="evenodd" clip-rule="evenodd" fill="#FFFFFF" d="M250,591.1c-3.6,0-6.5-2.9-6.5-6.5s2.9-6.5,6.5-6.5
			s6.5,2.9,6.5,6.5S253.5,591.1,250,591.1z"/>
	</g>
	<g>
		<path fill="#00A7D7" d="M250,579c3,0,5.5,2.5,5.5,5.5c0,3-2.5,5.5-5.5,5.5s-5.5-2.5-5.5-5.5C244.4,581.5,246.9,579,250,579
			 M250,577c-4.1,0-7.5,3.4-7.5,7.5c0,4.1,3.4,7.5,7.5,7.5c4.1,0,7.5-3.4,7.5-7.5C257.5,580.4,254.1,577,250,577L250,577z"/>
	</g>
</g>
<g id="Ellipse_2_copy_4">
	<g>
		<path fill-rule="evenodd" clip-rule="evenodd" fill="#FFFFFF" d="M850,591.1c-3.6,0-6.5-2.9-6.5-6.5s2.9-6.5,6.5-6.5
			s6.5,2.9,6.5,6.5S853.6,591.1,850,591.1z"/>
	</g>
	<g>
		<path fill="#00A7D7" d="M850,579c3,0,5.5,2.5,5.5,5.5c0,3-2.5,5.5-5.5,5.5s-5.5-2.5-5.5-5.5C844.5,581.5,847,579,850,579 M850,577
			c-4.1,0-7.5,3.4-7.5,7.5c0,4.1,3.4,7.5,7.5,7.5c4.1,0,7.5-3.4,7.5-7.5C857.6,580.4,854.2,577,850,577L850,577z"/>
	</g>
</g>
<g id="Ellipse_2_copy_5">
	<g>
		<path fill-rule="evenodd" clip-rule="evenodd" fill="#FFFFFF" d="M976.3,715.3c-3.6,0-6.5-2.9-6.5-6.5s2.9-6.5,6.5-6.5
			s6.5,2.9,6.5,6.5S979.9,715.3,976.3,715.3z"/>
	</g>
	<g>
		<path fill="#00A7D7" d="M976.3,703.3c3,0,5.5,2.5,5.5,5.5c0,3-2.5,5.5-5.5,5.5c-3,0-5.5-2.5-5.5-5.5
			C970.8,705.7,973.2,703.3,976.3,703.3 M976.3,701.3c-4.1,0-7.5,3.4-7.5,7.5c0,4.1,3.4,7.5,7.5,7.5c4.1,0,7.5-3.4,7.5-7.5
			C983.8,704.6,980.4,701.3,976.3,701.3L976.3,701.3z"/>
	</g>
</g>
<g id="Ellipse_2_copy_6">
	<g>
		<path fill-rule="evenodd" clip-rule="evenodd" fill="#FFFFFF" d="M122.7,926.7c-3.6,0-6.5-2.9-6.5-6.5s2.9-6.5,6.5-6.5
			s6.5,2.9,6.5,6.5S126.3,926.7,122.7,926.7z"/>
	</g>
	<g>
		<path fill="#00A7D7" d="M122.7,914.7c3,0,5.5,2.5,5.5,5.5s-2.5,5.5-5.5,5.5c-3,0-5.5-2.5-5.5-5.5S119.7,914.7,122.7,914.7
			 M122.7,912.7c-4.1,0-7.5,3.4-7.5,7.5s3.4,7.5,7.5,7.5c4.1,0,7.5-3.4,7.5-7.5S126.9,912.7,122.7,912.7L122.7,912.7z"/>
	</g>
</g>
<g id="Ellipse_2_copy_7">
	<g>
		<path fill-rule="evenodd" clip-rule="evenodd" fill="#FFFFFF" d="M250,1061.9c-3.6,0-6.5-2.9-6.5-6.5s2.9-6.5,6.5-6.5
			s6.5,2.9,6.5,6.5S253.5,1061.9,250,1061.9z"/>
	</g>
	<g>
		<path fill="#00A7D7" d="M250,1049.9c3,0,5.5,2.5,5.5,5.5s-2.5,5.5-5.5,5.5s-5.5-2.5-5.5-5.5S246.9,1049.9,250,1049.9 M250,1047.9
			c-4.1,0-7.5,3.4-7.5,7.5s3.4,7.5,7.5,7.5c4.1,0,7.5-3.4,7.5-7.5S254.1,1047.9,250,1047.9L250,1047.9z"/>
	</g>
</g>
<g id="Ellipse_2_copy_8">
	<g>
		<path fill-rule="evenodd" clip-rule="evenodd" fill="#FFFFFF" d="M849,1061.9c-3.6,0-6.5-2.9-6.5-6.5s2.9-6.5,6.5-6.5
			s6.5,2.9,6.5,6.5S852.6,1061.9,849,1061.9z"/>
	</g>
	<g>
		<path fill="#00A7D7" d="M849,1049.9c3,0,5.5,2.5,5.5,5.5s-2.5,5.5-5.5,5.5c-3,0-5.5-2.5-5.5-5.5S846,1049.9,849,1049.9
			 M849,1047.9c-4.1,0-7.5,3.4-7.5,7.5s3.4,7.5,7.5,7.5c4.1,0,7.5-3.4,7.5-7.5S853.2,1047.9,849,1047.9L849,1047.9z"/>
	</g>
</g>
<g id="Ellipse_2_copy_9">
	<g>
		<path fill-rule="evenodd" clip-rule="evenodd" fill="#FFFFFF" d="M976.3,1177.1c-3.6,0-6.5-2.9-6.5-6.5s2.9-6.5,6.5-6.5
			s6.5,2.9,6.5,6.5S979.9,1177.1,976.3,1177.1z"/>
	</g>
	<g>
		<path fill="#00A7D7" d="M976.3,1165.1c3,0,5.5,2.5,5.5,5.5s-2.5,5.5-5.5,5.5c-3,0-5.5-2.5-5.5-5.5S973.2,1165.1,976.3,1165.1
			 M976.3,1163.1c-4.1,0-7.5,3.4-7.5,7.5s3.4,7.5,7.5,7.5c4.1,0,7.5-3.4,7.5-7.5S980.4,1163.1,976.3,1163.1L976.3,1163.1z"/>
	</g>
</g>
<g id="Ellipse_2_copy_10">
	<g>
		<path fill-rule="evenodd" clip-rule="evenodd" fill="#FFFFFF" d="M122.7,1388.5c-3.6,0-6.5-2.9-6.5-6.5s2.9-6.5,6.5-6.5
			s6.5,2.9,6.5,6.5S126.3,1388.5,122.7,1388.5z"/>
	</g>
	<g>
		<path fill="#00A7D7" d="M122.7,1376.5c3,0,5.5,2.5,5.5,5.5s-2.5,5.5-5.5,5.5c-3,0-5.5-2.5-5.5-5.5S119.7,1376.5,122.7,1376.5
			 M122.7,1374.5c-4.1,0-7.5,3.4-7.5,7.5c0,4.1,3.4,7.5,7.5,7.5c4.1,0,7.5-3.4,7.5-7.5C130.2,1377.9,126.9,1374.5,122.7,1374.5
			L122.7,1374.5z"/>
	</g>
</g>
<g>
	<path fill="#252525" d="M756.4,178.8c-0.9,0.8-2.2,1-3.6,1h-1.7v5.1h-3.2v-13.8h4.9c1.4,0,2.7,0.3,3.6,1c0.9,0.8,1.4,1.8,1.4,3.3
		S757.3,178,756.4,178.8z M753.9,174c-0.4-0.3-0.9-0.4-1.6-0.4h-1.3v3.7h1.3c0.7,0,1.2-0.1,1.6-0.4c0.4-0.3,0.7-0.8,0.7-1.5
		S754.3,174.3,753.9,174z"/>
	<path fill="#252525" d="M766.1,178H766c-0.2-0.1-0.6-0.2-1.2-0.2c-0.7,0-1.2,0.4-1.5,0.7s-0.5,1-0.5,2.1v4.4h-3.2V175h3.2l0,1.4h0
		c0.6-1.1,1.4-1.6,2.4-1.6c0.7,0,1,0.2,1,0.2L766.1,178z"/>
	<path fill="#252525" d="M771.6,185.1c-3.1,0-5.5-1.9-5.5-5.1s2.4-5.1,5.5-5.1c3.1,0,5.5,2,5.5,5.1S774.7,185.1,771.6,185.1z
		 M771.6,177.4c-1.4,0-2.2,1.1-2.2,2.6s0.8,2.6,2.2,2.6c1.4,0,2.2-1.1,2.2-2.6S773,177.4,771.6,177.4z"/>
	<path fill="#252525" d="M781.9,184.7c0,1.3-0.2,2.3-0.8,3c-0.6,0.7-1.4,1.1-2.7,1.1c-1.1,0-1.7-0.2-1.7-0.2l0.1-2.5
		c0,0,0.4,0.1,0.9,0.1c0.9,0,1.1-0.6,1.1-1.7V175h3.2V184.7z M780.3,173.9c-1.1,0-1.8-0.7-1.8-1.7c0-1,0.7-1.7,1.8-1.7
		c1.1,0,1.8,0.7,1.8,1.7C782.1,173.2,781.4,173.9,780.3,173.9z"/>
	<path fill="#252525" d="M793.3,180.8h-7c0.1,1.4,1.2,2.1,2.5,2.1c1.3,0,2.4-0.6,3-0.9l1.3,1.7c-0.3,0.2-1.6,1.6-4.7,1.6
		c-3,0-5.3-1.9-5.3-5.1s2.4-5.1,5.3-5.1c2.9,0,4.9,1.9,4.9,4.8C793.3,180.2,793.3,180.8,793.3,180.8z M790.4,178.9c0-0.9-0.7-2-2-2
		c-1.3,0-2,1-2,2H790.4z"/>
	<path fill="#252525" d="M803,184c-0.1,0.1-1.1,1.2-3.8,1.2c-2.7,0-5.2-1.8-5.2-5.1c0-3.3,2.5-5.1,5.2-5.1c2.5,0,3.7,1,3.7,1
		l-0.7,2.4c-0.3-0.2-1.2-0.9-2.5-0.9c-1.4,0-2.4,0.9-2.4,2.5s1,2.5,2.5,2.5c1.5,0,2.5-1,2.5-1L803,184z"/>
	<path fill="#252525" d="M810.5,177.5h-2.2v3.5c0,0.8,0.1,1,0.3,1.2c0.1,0.2,0.3,0.2,0.8,0.2c0.5,0,1-0.2,1-0.2l0.2,2.5
		c-0.2,0.1-1.1,0.3-2.3,0.3c-1.1,0-1.9-0.3-2.4-0.9s-0.7-1.4-0.7-2.9v-3.8h-1.4v-2.4h1.4v-2.7h3.2v2.7h2.2V177.5z"/>
	<path fill="#252525" d="M827.5,184.9h-3.9l-3.5-5.8l-1.1,1.2v4.5h-3.2v-13.8h3.2v5l4.3-5h3.8l-4.9,5.5L827.5,184.9z"/>
	<path fill="#252525" d="M830.3,173.9c-1.1,0-1.8-0.7-1.8-1.7c0-1,0.7-1.7,1.8-1.7c1.1,0,1.8,0.7,1.8,1.7
		C832.1,173.2,831.4,173.9,830.3,173.9z M831.9,184.9h-3.2V175h3.2V184.9z"/>
	<path fill="#252525" d="M842,184c-0.1,0.1-1.1,1.2-3.8,1.2c-2.7,0-5.2-1.8-5.2-5.1c0-3.3,2.5-5.1,5.2-5.1c2.5,0,3.7,1,3.7,1
		l-0.7,2.4c-0.3-0.2-1.2-0.9-2.5-0.9c-1.4,0-2.4,0.9-2.4,2.5s1,2.5,2.5,2.5c1.5,0,2.5-1,2.5-1L842,184z"/>
	<path fill="#252525" d="M853.9,184.9h-3.7l-2.4-3.8l-0.9,0.9v3h-3.2v-13.8h3.2v7.2l3-3.3h3.7l-3.6,3.7L853.9,184.9z"/>
	<path fill="#252525" d="M859.8,180.8h-5.6v-2.5h5.6V180.8z"/>
	<path fill="#252525" d="M868.5,185.2c-4.1,0-7.3-2.7-7.3-7.1s3.2-7.2,7.3-7.2s7.3,2.7,7.3,7.2S872.6,185.2,868.5,185.2z
		 M868.5,173.6c-2.3,0-4,1.7-4,4.3c0,2.6,1.7,4.3,4,4.3s4-1.7,4-4.3C872.5,175.3,870.8,173.6,868.5,173.6z"/>
	<path fill="#252525" d="M890.2,173.3c0,0-0.6-0.2-1.2-0.2c-0.9,0-1.2,0.5-1.2,1.3v0.6h2.1v2.4h-2.1v7.4h-3.2v-7.4h-3.3v7.4h-3.2
		v-7.4h-1.3v-2.4h1.3v-0.5c0-1.1,0.2-2.1,0.8-2.7c0.6-0.6,1.5-1,2.8-1c1.3,0,2.2,0.3,2.2,0.3l-0.2,2.2c0,0-0.6-0.2-1.2-0.2
		c-0.9,0-1.2,0.5-1.2,1.3v0.6h3.3v-0.5c0-1.1,0.2-2.1,0.8-2.7c0.6-0.6,1.5-1,2.8-1c1.3,0,2.2,0.3,2.2,0.3L890.2,173.3z"/>
</g>
<g>
	<path fill="#252525" d="M98.5,649.8h-3.8l-2.9-5.3h-1v5.3h-3.2v-13.8h5c1.5,0,2.7,0.3,3.6,1c0.9,0.7,1.5,1.8,1.5,3.2
		c0,2.6-1.7,3.6-2.7,4L98.5,649.8z M93.8,638.8c-0.4-0.3-0.9-0.4-1.7-0.4h-1.3v3.5h1.3c0.7,0,1.3-0.1,1.7-0.4
		c0.4-0.3,0.7-0.7,0.7-1.4C94.5,639.5,94.2,639.1,93.8,638.8z"/>
	<path fill="#252525" d="M109.1,645.6h-7c0.1,1.4,1.2,2.1,2.5,2.1c1.3,0,2.4-0.6,3-0.9l1.3,1.7c-0.3,0.2-1.6,1.6-4.7,1.6
		c-3,0-5.3-1.9-5.3-5.1s2.4-5.1,5.3-5.1s4.9,1.9,4.9,4.8C109.1,645,109.1,645.6,109.1,645.6z M106.1,643.8c0-0.9-0.7-2-2-2
		c-1.3,0-2,1-2,2H106.1z"/>
	<path fill="#252525" d="M116.8,649.1c-0.7,0.6-1.7,0.9-3,0.9c-1.5,0-3-0.5-4.2-1.5l1.2-1.9c0.8,0.7,2.1,1.2,2.9,1.2
		s1.4-0.2,1.4-0.8c0-0.6-1.4-1-1.8-1.1c-0.4-0.1-0.9-0.3-1.4-0.5s-1.7-0.8-1.7-2.6c0-1.9,1.7-3.1,3.7-3.1s3.2,0.8,3.8,1.2l-1,1.9
		c-0.6-0.4-1.7-1-2.5-1c-0.8,0-1.2,0.2-1.2,0.7c0,0.5,0.8,0.8,1.4,1s1,0.3,1.4,0.5c0.4,0.2,0.9,0.4,1.3,0.7c0.3,0.3,0.8,1,0.8,2
		C117.9,647.7,117.5,648.5,116.8,649.1z"/>
	<path fill="#252525" d="M129.1,645.6h-7c0.1,1.4,1.2,2.1,2.5,2.1c1.3,0,2.4-0.6,3-0.9l1.3,1.7c-0.3,0.2-1.6,1.6-4.7,1.6
		c-3,0-5.3-1.9-5.3-5.1s2.4-5.1,5.3-5.1s4.9,1.9,4.9,4.8C129.1,645,129.1,645.6,129.1,645.6z M126.1,643.8c0-0.9-0.7-2-2-2
		c-1.3,0-2,1-2,2H126.1z"/>
	<path fill="#252525" d="M139.3,649.8h-3.1l-0.1-1c-0.4,0.4-1.2,1.3-2.8,1.3c-1.7,0-3.6-0.9-3.6-3.1c0-2.2,2-2.9,3.8-3l2.5-0.1v-0.2
		c0-1-0.7-1.6-2-1.6c-1.3,0-2.5,0.6-3,0.9l-0.8-2.1c0.8-0.4,2.4-1,4.2-1s2.9,0.4,3.7,1.1c0.8,0.7,1.2,1.7,1.2,3.3V649.8z
		 M136.1,645.4l-1.6,0.1c-1,0-1.6,0.5-1.6,1.2c0,0.8,0.6,1.2,1.5,1.2c0.9,0,1.4-0.6,1.6-0.9V645.4z"/>
	<path fill="#252525" d="M147.9,642.8h-0.1c-0.2-0.1-0.6-0.2-1.2-0.2c-0.7,0-1.2,0.4-1.5,0.7c-0.2,0.3-0.5,1-0.5,2.1v4.4h-3.2v-9.9
		h3.2l0,1.4h0c0.6-1.1,1.4-1.6,2.4-1.6c0.7,0,1,0.2,1,0.2L147.9,642.8z"/>
	<path fill="#252525" d="M156.8,648.8c-0.1,0.1-1.1,1.2-3.8,1.2c-2.7,0-5.2-1.8-5.2-5.1c0-3.3,2.5-5.1,5.2-5.1c2.5,0,3.7,1,3.7,1
		l-0.7,2.4c-0.3-0.2-1.2-0.9-2.5-0.9c-1.4,0-2.4,0.9-2.4,2.5s1,2.5,2.5,2.5c1.5,0,2.5-1,2.5-1L156.8,648.8z"/>
	<path fill="#252525" d="M168.2,649.8h-3.2v-5.2c0-1.2-0.2-2.2-1.5-2.2c-1.3,0-1.8,1.1-1.8,2.6v4.8h-3.2v-13.8h3.2v3.3
		c0,1,0,2.1,0,2.1c0.5-0.9,1.4-1.6,2.9-1.6c2.9,0,3.6,1.8,3.6,4.2V649.8z"/>
</g>
<g>
	<path fill="#252525" d="M89.6,1103.5c-0.9,0.8-2.2,1-3.6,1h-1.7v5.1h-3.2v-13.8H86c1.4,0,2.7,0.3,3.6,1c0.9,0.8,1.4,1.8,1.4,3.3
		S90.6,1102.7,89.6,1103.5z M87.1,1098.7c-0.4-0.3-0.9-0.4-1.6-0.4h-1.3v3.7h1.3c0.7,0,1.2-0.1,1.6-0.4c0.4-0.3,0.7-0.8,0.7-1.5
		S87.5,1098.9,87.1,1098.7z"/>
	<path fill="#252525" d="M99.4,1102.7h-0.1c-0.2-0.1-0.6-0.2-1.2-0.2c-0.7,0-1.2,0.4-1.5,0.7c-0.2,0.3-0.5,1-0.5,2.1v4.4h-3.2v-9.9
		h3.2l0,1.4h0c0.6-1.1,1.4-1.6,2.4-1.6c0.7,0,1,0.2,1,0.2L99.4,1102.7z"/>
	<path fill="#252525" d="M104.8,1109.8c-3.1,0-5.5-1.9-5.5-5.1s2.4-5.1,5.5-5.1s5.5,2,5.5,5.1S107.9,1109.8,104.8,1109.8z
		 M104.8,1102.1c-1.4,0-2.2,1.1-2.2,2.6s0.8,2.6,2.2,2.6c1.4,0,2.2-1.1,2.2-2.6S106.2,1102.1,104.8,1102.1z"/>
	<path fill="#252525" d="M117.8,1102.2h-2.2v3.5c0,0.8,0.1,1,0.3,1.2c0.1,0.2,0.3,0.2,0.8,0.2c0.5,0,1-0.2,1-0.2l0.2,2.5
		c-0.2,0.1-1.1,0.3-2.3,0.3c-1.1,0-1.9-0.3-2.4-0.9c-0.5-0.6-0.7-1.4-0.7-2.9v-3.8H111v-2.4h1.4v-2.7h3.2v2.7h2.2V1102.2z"/>
	<path fill="#252525" d="M123.8,1109.8c-3.1,0-5.5-1.9-5.5-5.1s2.4-5.1,5.5-5.1s5.5,2,5.5,5.1S126.9,1109.8,123.8,1109.8z
		 M123.8,1102.1c-1.4,0-2.2,1.1-2.2,2.6s0.8,2.6,2.2,2.6c1.4,0,2.2-1.1,2.2-2.6S125.2,1102.1,123.8,1102.1z"/>
	<path fill="#252525" d="M136.8,1102.2h-2.2v3.5c0,0.8,0.1,1,0.3,1.2c0.1,0.2,0.3,0.2,0.8,0.2c0.5,0,1-0.2,1-0.2l0.2,2.5
		c-0.2,0.1-1.1,0.3-2.3,0.3c-1.1,0-1.9-0.3-2.4-0.9c-0.5-0.6-0.7-1.4-0.7-2.9v-3.8H130v-2.4h1.4v-2.7h3.2v2.7h2.2V1102.2z"/>
	<path fill="#252525" d="M147.9,1099.7l-4.4,10.8c-0.7,1.8-1.5,2.8-3.2,2.8c-1.7,0-2.7-0.5-2.7-0.5l0.6-2.4c0,0,0.7,0.3,1.2,0.3
		c0.4,0,0.7,0,1-0.6l0.4-0.9l-3.9-9.6h3.3l2.2,6.4l2.2-6.4H147.9z"/>
	<path fill="#252525" d="M155.3,1109.8c-1.5,0-2.5-0.5-3.1-1.5v4.9h-3.2v-13.5h3l0,1.3h0c0.7-0.9,1.8-1.4,3.3-1.4
		c2.8,0,4.6,2.2,4.6,5.1S158.1,1109.8,155.3,1109.8z M154.3,1102.1c-1.4,0-2.3,1-2.3,2.6s0.9,2.6,2.3,2.6c1.4,0,2.3-1,2.3-2.6
		S155.7,1102.1,154.3,1102.1z"/>
	<path fill="#252525" d="M171.5,1105.4h-7c0.1,1.4,1.2,2.1,2.5,2.1c1.3,0,2.4-0.6,3-0.9l1.3,1.7c-0.3,0.2-1.6,1.6-4.7,1.6
		c-3,0-5.3-1.9-5.3-5.1s2.4-5.1,5.3-5.1c2.9,0,4.9,1.9,4.9,4.8C171.6,1104.9,171.5,1105.4,171.5,1105.4z M168.6,1103.6
		c0-0.9-0.7-2-2-2c-1.3,0-2,1-2,2H168.6z"/>
</g>
<g>
	<path fill="#252525" d="M105.1,1574.5h-3.2l-0.5-9.4h0l-3,9.4h-2.6l-3-9.4h-0.1l-0.5,9.4h-3.2l1-13.8h4.1l2.9,9.1h0l2.8-9.1h4.1
		L105.1,1574.5z"/>
	<path fill="#252525" d="M117.1,1570.3h-7c0.1,1.4,1.2,2.1,2.5,2.1c1.3,0,2.4-0.6,3-0.9l1.3,1.7c-0.3,0.2-1.6,1.6-4.7,1.6
		c-3,0-5.3-1.9-5.3-5.1s2.4-5.1,5.3-5.1s4.9,1.9,4.9,4.8C117.1,1569.7,117.1,1570.3,117.1,1570.3z M114.1,1568.5c0-0.9-0.7-2-2-2
		c-1.3,0-2,1-2,2H114.1z"/>
	<path fill="#252525" d="M127.3,1574.5h-3.1l-0.1-1c-0.4,0.4-1.2,1.3-2.8,1.3c-1.7,0-3.6-0.9-3.6-3.1c0-2.2,2-2.9,3.8-3l2.5-0.1
		v-0.2c0-1-0.7-1.6-2-1.6c-1.3,0-2.5,0.6-3,0.9l-0.8-2.1c0.8-0.4,2.4-1,4.2-1s2.9,0.4,3.7,1.1c0.8,0.7,1.2,1.7,1.2,3.3V1574.5z
		 M124.1,1570.1l-1.6,0.1c-1,0-1.6,0.5-1.6,1.2c0,0.8,0.6,1.2,1.5,1.2c0.9,0,1.4-0.6,1.6-0.9V1570.1z"/>
	<path fill="#252525" d="M135.8,1573.8c-0.7,0.6-1.7,0.9-3,0.9c-1.5,0-3-0.5-4.2-1.5l1.2-1.9c0.8,0.7,2.1,1.2,2.9,1.2
		s1.4-0.2,1.4-0.8c0-0.6-1.4-1-1.8-1.1c-0.4-0.1-0.9-0.3-1.4-0.5s-1.7-0.8-1.7-2.6c0-1.9,1.7-3.1,3.7-3.1s3.2,0.8,3.8,1.2l-1,1.9
		c-0.6-0.4-1.7-1-2.5-1c-0.8,0-1.2,0.2-1.2,0.7c0,0.5,0.8,0.8,1.4,1s1,0.3,1.4,0.5c0.4,0.2,0.9,0.4,1.3,0.7c0.3,0.3,0.8,1,0.8,2
		C136.9,1572.4,136.5,1573.2,135.8,1573.8z"/>
	<path fill="#252525" d="M147.9,1574.5h-3.1l0-1.1c-0.4,0.6-1.5,1.3-2.9,1.3s-2.3-0.5-2.8-1.2c-0.5-0.7-0.7-1.5-0.7-3v-6h3.2v5.5
		c0,1.1,0.3,1.9,1.5,1.9s1.7-0.9,1.7-2.2v-5.2h3.2V1574.5z"/>
	<path fill="#252525" d="M156.9,1567.5h-0.1c-0.2-0.1-0.6-0.2-1.2-0.2c-0.7,0-1.2,0.4-1.5,0.7c-0.2,0.3-0.5,1-0.5,2.1v4.4h-3.2v-9.9
		h3.2l0,1.4h0c0.6-1.1,1.4-1.6,2.4-1.6c0.7,0,1,0.2,1,0.2L156.9,1567.5z"/>
	<path fill="#252525" d="M167.1,1570.3h-7c0.1,1.4,1.2,2.1,2.5,2.1c1.3,0,2.4-0.6,3-0.9l1.3,1.7c-0.3,0.2-1.6,1.6-4.7,1.6
		c-3,0-5.3-1.9-5.3-5.1s2.4-5.1,5.3-5.1c2.9,0,4.9,1.9,4.9,4.8C167.1,1569.7,167.1,1570.3,167.1,1570.3z M164.1,1568.5
		c0-0.9-0.7-2-2-2c-1.3,0-2,1-2,2H164.1z"/>
</g>
<g>
	<path fill="#252525" d="M965.3,1108.7c-0.9,0.6-2.1,0.9-3.5,0.9h-5.7v-13.8h4.7c1.3,0,2.5,0.1,3.4,0.6c0.9,0.5,1.8,1.4,1.8,2.9
		s-1,2.7-2,3v0c1.7,0.4,2.9,1.6,2.9,3.3C966.9,1107.2,966.2,1108.1,965.3,1108.7z M962.2,1098.5c-0.4-0.2-0.7-0.3-1.4-0.3h-1.3v3.2
		h1.3c0.7,0,1.1,0,1.5-0.3c0.4-0.3,0.7-0.6,0.7-1.3C962.8,1099.1,962.6,1098.7,962.2,1098.5z M962.9,1104c-0.5-0.3-1-0.4-1.7-0.4
		h-1.8v3.5h1.8c0.7,0,1.2,0,1.7-0.4c0.5-0.3,0.7-0.8,0.7-1.4C963.6,1104.8,963.4,1104.3,962.9,1104z"/>
	<path fill="#252525" d="M977.4,1109.6h-3.1l0-1.1c-0.4,0.6-1.5,1.3-2.9,1.3s-2.3-0.5-2.8-1.2c-0.5-0.7-0.7-1.5-0.7-3v-6h3.2v5.5
		c0,1.1,0.3,1.9,1.5,1.9s1.7-0.9,1.7-2.2v-5.2h3.2V1109.6z"/>
	<path fill="#252525" d="M981.6,1098.6c-1.1,0-1.8-0.7-1.8-1.7c0-1,0.7-1.7,1.8-1.7c1.1,0,1.8,0.7,1.8,1.7
		C983.4,1097.9,982.7,1098.6,981.6,1098.6z M983.2,1109.6H980v-9.9h3.2V1109.6z"/>
	<path fill="#252525" d="M988.2,1109.6H985v-13.8h3.2V1109.6z"/>
	<path fill="#252525" d="M1000.4,1109.6h-3l0-1.3l-0.1,0c-0.7,1-1.9,1.5-3.2,1.5c-2.9,0-4.7-2.2-4.7-5.1s1.8-5.1,4.7-5.1
		c1.8,0,2.8,0.9,3.1,1.4v-5.1h3.2V1109.6z M995,1102.1c-1.4,0-2.3,1-2.3,2.6s0.9,2.6,2.3,2.6c1.4,0,2.3-1,2.3-2.6
		S996.3,1102.1,995,1102.1z"/>
</g>
<g>
	<path fill="#252525" d="M950.4,649.8h-3.2v-13.8h3.2V649.8z"/>
	<path fill="#252525" d="M963.4,649.8h-3l0-1.3l-0.1,0c-0.7,1-1.9,1.5-3.2,1.5c-2.9,0-4.7-2.2-4.7-5.1s1.8-5.1,4.7-5.1
		c1.8,0,2.8,0.9,3.1,1.4v-5.1h3.2V649.8z M957.9,642.2c-1.4,0-2.3,1-2.3,2.6s0.9,2.6,2.3,2.6c1.4,0,2.3-1,2.3-2.6
		S959.3,642.2,957.9,642.2z"/>
	<path fill="#252525" d="M975.6,645.6h-7c0.1,1.4,1.2,2.1,2.5,2.1c1.3,0,2.4-0.6,3-0.9l1.3,1.7c-0.3,0.2-1.6,1.6-4.7,1.6
		c-3,0-5.3-1.9-5.3-5.1s2.4-5.1,5.3-5.1c2.9,0,4.9,1.9,4.9,4.8C975.6,645,975.6,645.6,975.6,645.6z M972.6,643.8c0-0.9-0.7-2-2-2
		c-1.3,0-2,1-2,2H972.6z"/>
	<path fill="#252525" d="M985.8,649.8h-3.1l-0.1-1c-0.4,0.4-1.2,1.3-2.8,1.3c-1.7,0-3.6-0.9-3.6-3.1c0-2.2,2-2.9,3.8-3l2.5-0.1v-0.2
		c0-1-0.7-1.6-2-1.6c-1.3,0-2.5,0.6-3,0.9l-0.8-2.1c0.8-0.4,2.4-1,4.2-1c1.8,0,2.9,0.4,3.7,1.1c0.8,0.7,1.2,1.7,1.2,3.3V649.8z
		 M982.6,645.4l-1.6,0.1c-1,0-1.6,0.5-1.6,1.2c0,0.8,0.6,1.2,1.5,1.2c0.9,0,1.4-0.6,1.6-0.9V645.4z"/>
	<path fill="#252525" d="M993.8,642.3h-2.2v3.5c0,0.8,0.1,1,0.3,1.2c0.1,0.2,0.3,0.2,0.8,0.2c0.5,0,1-0.2,1-0.2l0.2,2.5
		c-0.2,0.1-1.1,0.3-2.3,0.3c-1.1,0-1.9-0.3-2.4-0.9s-0.7-1.4-0.7-2.9v-3.8H987v-2.4h1.4v-2.7h3.2v2.7h2.2V642.3z"/>
	<path fill="#252525" d="M1004.6,645.6h-7c0.1,1.4,1.2,2.1,2.5,2.1c1.3,0,2.4-0.6,3-0.9l1.3,1.7c-0.3,0.2-1.6,1.6-4.7,1.6
		c-3,0-5.3-1.9-5.3-5.1s2.4-5.1,5.3-5.1c2.9,0,4.9,1.9,4.9,4.8C1004.6,645,1004.6,645.6,1004.6,645.6z M1001.6,643.8
		c0-0.9-0.7-2-2-2c-1.3,0-2,1-2,2H1001.6z"/>
</g>
<g id="Layer_11_1_">
	<g id="qfBbuu.tif">
		<g>
			<path fill="#00A8D8" d="M869.5,109.1c-3.2,0-6.4,0-9.6,0c0,4.4,0,8.8,0,13.2c3.6,1.3,5,4.5,4.7,6.7c-0.4,3.4-3.3,5.8-6.3,5.8
				c-3.1,0-5.6-2.3-6.2-5.1c-0.7-3.2,1-6,4.6-7.5c0-4.3,0-8.7,0-13.2c-3.2,0-6.4,0-9.6,0c0-1.6,0-3.2,0-4.8c-0.4,0-0.7,0-1,0
				c-5.2,0-10.5,0-15.8,0c-0.4,0-0.9,0.1-1.3,0.3c-2.4,1.1-4.7,2.3-7.1,3.6c-0.3,0.1-0.7,0.5-0.7,0.8c0,4.3,0,8.7,0,13.1
				c3.2,0,6.4,0,9.6,0c0,4.3,0,8.6,0,12.9c-3.2,0-6.3,0-9.5,0c0,2.2,0,4.3,0,6.5c0.7,0,1.5,0,2.3,0c4-0.2,6.8,2.9,7.2,5.8
				c0.3,2-1,4.7-3.1,6c-0.8,0.5-1.7,0.7-2.6,1.1c-3.6,0-7.3,0-10.9,0c-0.4-0.1-0.9-0.3-1.3-0.4c-2.9-1.1-4.6-3.8-4.5-6.3
				c0.2-3.5,3.3-6.2,6.8-6.2c0.9,0,1.9,0,2.8,0c0-2.2,0-4.3,0-6.5c-3.2,0-6.4,0-9.5,0c0-4.3,0-8.6,0-12.9c3.2,0,6.4,0,9.6,0
				c0-1.6,0-3.2,0-4.8c-11.9,0-23.6,0-35.5,0c0,1.6,0,3.2,0,4.8c3.2,0,6.4,0,9.6,0c0,4.3,0,8.6,0,12.9c-7.6,0-15,0-22.5,0
				c0-4.3,0-8.6,0-12.9c3.2,0,6.4,0,9.6,0c0-4.4,0-8.6,0-12.9c-3.3,0-6.5,0-9.6,0c0-4.3,0-8.6,0-12.9c7.5,0,15,0,22.5,0
				c0,4.3,0,8.6,0,12.9c-3.2,0-6.3,0-9.5,0c0,1.6,0,3.2,0,4.8c11.8,0,23.5,0,35.5,0c0-1.7,0-3.5,0-5.3c0-0.2-0.4-0.4-0.7-0.6
				c-3.5-1.8-7-3.5-10.7-5.4c0.4-0.2,0.8-0.4,1.1-0.6c3.2-1.6,6.4-3.2,9.6-4.8c0.6-0.3,0.8-0.6,0.8-1.2c0-1.5,0-3.1,0-4.6
				c-1.1-0.1-2.2-0.1-3.2-0.3c-3-0.7-4.1-4-2.1-6.3c0.7-0.9,0.7-2.1-0.1-3c-1.7-1.9-2.7-4.2-2.6-6.8c0.1-3.4,1.8-6,4.6-7.9
				c6.4-4.2,13.8,0.8,14.5,6.9c0.4,3.1-0.7,5.6-2.6,7.8c-0.7,0.8-0.7,2.1,0,2.9c1,1.2,1.5,2.4,0.8,4c-0.8,1.6-2.1,2.5-3.9,2.6
				c-0.7,0-1.4,0-2.2,0c0,1.8,0,3.6,0,5.3c0,0.2,0.3,0.4,0.5,0.5c2.5,1.2,5,2.5,7.5,3.7c0.2,0.1,0.6,0.2,0.9,0.2c5.5,0,11,0,16.6,0
				c0.1,0,0.2,0,0.5,0c0-1.6,0-3.1,0-4.8c7.6,0,15.1,0,22.6,0C869.5,100.5,869.5,104.8,869.5,109.1z M811.4,125.3c0,2.2,0,4.3,0,6.4
				c5.4,0,10.7,0,16.1,0c0-2.2,0-4.3,0-6.4C822.1,125.3,816.8,125.3,811.4,125.3z M788.7,125.3c-5.4,0-10.8,0-16.1,0
				c0,2.2,0,4.3,0,6.4c5.4,0,10.7,0,16.1,0C788.7,129.5,788.7,127.4,788.7,125.3z M866.3,99.5c-5.4,0-10.8,0-16.1,0
				c0,2.2,0,4.3,0,6.4c5.4,0,10.7,0,16.1,0C866.3,103.7,866.3,101.6,866.3,99.5z M772.6,105.8c5.4,0,10.8,0,16.1,0
				c0-2.2,0-4.3,0-6.4c-5.4,0-10.7,0-16.1,0C772.6,101.6,772.6,103.7,772.6,105.8z M819.4,151.1c1.7,0,3.4,0,5.1,0
				c1.9,0,3.1-1.2,3.1-3.2c0-2.1-1.1-3.3-3-3.3c-3.4,0-6.8,0-10.2,0c-1.8,0-3,1.2-3,3.1c0,2.1,1.1,3.4,3,3.4
				C816,151.1,817.7,151.1,819.4,151.1z M822.7,83.2c0-0.3,0-0.6,0-0.8c-0.1-1,0.2-1.8,1.1-2.4c2.1-1.6,2.5-3.9,2-6.4
				c-0.5-2.8-3-5.1-6.7-4.9c-2.7,0.1-4.6,1.3-5.7,3.8c-1.1,2.4-0.6,5.5,1.2,7.1c1.2,1,1.8,2,1.6,3.6c0,0,0.1,0.1,0.1,0.1
				c0.5,0,1,0,1.5,0c0-0.9,0-1.8,0-2.7c0-0.6-0.1-1-0.7-1.3c-1.9-1.1-2.8-3.1-2.3-5.1c0.6-2.3,2.9-3.9,4.9-3.8
				c2.3,0.2,4,1.9,4.5,4.3c0.2,1.2-0.5,3.3-2.6,4.6c-0.2,0.1-0.5,0.4-0.6,0.6c0,1.1,0,2.2,0,3.3C821.7,83.2,822.1,83.2,822.7,83.2z
				 M813.2,102.6c1.2,0.6,2.2,1,3.1,1.6c2.1,1.5,4.2,1.5,6.3,0c0.9-0.6,2-1,3.1-1.6c-2.1-1-3.9-2-5.8-2.9c-0.2-0.1-0.6-0.1-0.8,0
				C817.2,100.6,815.3,101.6,813.2,102.6z M858.2,131.7c2,0.2,3.4-1.5,3.3-3.2c-0.1-2.1-1.1-3.3-3.2-3.3c-2.2,0-3.3,1.1-3.3,3.2
				C855,130.6,856.1,131.7,858.2,131.7z M819.5,86.5c-1.3,0-2.7,0-4,0c-0.6,0-0.8,0.2-0.8,0.8c0,0.6,0.1,0.9,0.8,0.9
				c2.7,0,5.4,0,8.2,0c0.6,0,0.8-0.3,0.8-0.8c0-0.6-0.2-0.8-0.8-0.8C822.1,86.5,820.8,86.5,819.5,86.5z M819.5,73.5
				c-1.3,0-1.7,0.4-1.7,1.5c0,1.3,0.4,1.7,1.6,1.7c1.2,0,1.6-0.4,1.6-1.6C821.1,74,820.7,73.6,819.5,73.5z"/>
			<path fill="#00A8D8" d="M840.9,54.2c1,0.5,2.1,0.9,2.9,1.7c1.3,1.1,1.8,2.7,1.3,4.3c-0.5,1.7-1.7,2.9-3.5,3.4
				c-1.9,0.5-4-0.4-5.1-2.3c-0.3-0.6-0.7-0.8-1.4-0.7c-1.7,0-3.5,0-5.2,0c0,0-0.1,0-0.2,0.1c4.3,3.2,6.8,7.4,7.5,12.8
				c1,0,2.1,0,3.3,0c0,3.3,0,6.4,0,9.6c-3.1,0-6.3,0-9.5,0c0-3.1,0-6.3,0-9.6c1,0,2.1,0,3.1,0c-0.7-7.3-6.4-12.5-13.1-12.9
				c-9.7-0.7-15.3,6.2-15.9,12.9c1,0,2,0,3.1,0c0,3.3,0,6.4,0,9.6c-3.1,0-6.3,0-9.5,0c0-3.1,0-6.3,0-9.6c1.1,0,2.2,0,3.3,0
				c0.7-5.2,2.5-8.4,7.6-12.9c-2.2,0-4.2,0-6.2,0c-0.2,0-0.5,0.4-0.6,0.7c-0.7,1.1-1.7,1.9-3,2.3c-2.7,0.8-5.1-1.7-5.7-3.6
				c-0.7-2.6,1.6-5.2,3.6-5.7c0.1,0,0.3-0.1,0.4-0.2c0.3,0,0.7,0,1,0c1.7,0.5,3,1.3,3.9,2.9c0.1,0.2,0.5,0.3,0.8,0.3
				c10.6,0,21.2,0,31.7,0c0.3,0,0.7-0.1,0.8-0.2c0.8-1.6,2.2-2.5,4-3C840.3,54.2,840.6,54.2,840.9,54.2z M837.2,80
				c0-1.1,0-2.2,0-3.2c-1.1,0-2.1,0-3.1,0c0,1.1,0,2.1,0,3.2C835.1,80,836.1,80,837.2,80z M804.9,80c0-1.1,0-2.1,0-3.2
				c-1.1,0-2.1,0-3.1,0c0,1.1,0,2.1,0,3.2C802.8,80,803.8,80,804.9,80z M840.4,60.7c1.2,0,1.6-0.4,1.6-1.6c0-1.2-0.4-1.7-1.6-1.7
				c-1.3,0-1.7,0.4-1.7,1.6C838.8,60.3,839.3,60.7,840.4,60.7z M798.4,60.7c1.2,0,1.7-0.4,1.7-1.6c0-1.2-0.4-1.7-1.5-1.7
				c-1.3,0-1.7,0.4-1.7,1.6C796.8,60.2,797.2,60.7,798.4,60.7z"/>
		</g>
	</g>
</g>
<g id="Layer_12_1_">
	<g id="a6Oh9T.tif">
		<g>
			<path fill="#00A8D8" d="M936.1,584.5c0.1-3.9,0.8-7.6,1.7-11.3c0.1-0.3,0.1-0.8,0-1c-2.5-5.1-4.4-10.4-5.4-16.1
				c-1.2-7.1-1.1-14.2,2.1-20.9c3.4-7,9-11.3,16.5-13.2c3.6-0.9,7.2-1.2,10.8-0.9c7.3,0.5,14.2,2.7,20.8,5.8
				c0.5,0.2,1.3,0.3,1.8,0.2c4.3-1.1,8.6-1.7,13.1-1.5c6.3,0.4,12,2.4,16.5,7.1c3.1,3.2,4.9,7.1,5.7,11.5c1.2,5.9,0.5,11.8-1,17.5
				c-0.1,0.4-0.1,1,0.1,1.3c2.5,5.1,4.4,10.5,5.3,16.1c1.2,7.1,1,14.1-2.1,20.7c-3.3,7.1-9,11.3-16.5,13.3
				c-3.5,0.9-7.1,1.2-10.7,0.9c-7.3-0.5-14.1-2.6-20.7-5.8c-0.7-0.4-1.4-0.4-2.1-0.2c-4.2,1.2-8.5,1.8-12.9,1.5
				c-6.4-0.4-12.1-2.4-16.6-7.1c-3.1-3.2-4.9-7.1-5.7-11.4C936.4,588.8,936.3,586.7,936.1,584.5z M997.9,585.4
				c0.2-4.7,4.6-8.3,8.7-6.9c0.5,0.2,0.8,0.3,1.2-0.3c3.1-4.6,5.7-9.4,7.5-14.7c0.2-0.5,0.1-1.1-0.1-1.6c-3.2-5.7-7-11-11.5-15.7
				c-5.8-6.2-12.3-11.4-19.7-15.5c-0.6-0.3-1.1-0.5-1.8-0.2c-1.3,0.6-2.6,1-3.9,1.5c-11.1,4.9-20,12.4-27.4,21.9
				c-0.4,0.4-0.3,0.7,0.1,1.1c1.1,1.2,1.7,2.7,1.7,4.3c-0.2,4-4.1,7.5-8.2,6.4c-0.6-0.1-0.7,0-0.9,0.4c-0.7,1.8-1.4,3.5-2.1,5.3
				c-0.3,0.7-0.2,1.2,0.2,1.9c2.5,4.4,5.4,8.6,8.7,12.5c6.4,7.6,13.9,13.9,22.5,18.7c0.6,0.3,1,0.4,1.7,0.1
				c9.3-3.3,17.2-8.7,24.3-15.5c0.4-0.4,0.4-0.6,0.2-1.1C998.4,587,998.1,586,997.9,585.4z M939,568.7c0.1,0,0.2,0,0.2,0
				c0.6-1.4,1.3-2.8,1.9-4.3c0.1-0.2-0.1-0.6-0.3-0.9c-1-1.3-1.7-2.7-1.7-4.3c0.1-4.1,4.2-7.6,8.3-6.5c0.6,0.2,0.8,0,1.1-0.4
				c1.9-2.3,3.8-4.6,5.8-6.8c6.1-6.4,13.2-11.6,21.3-15.3c1.3-0.6,2.5-1.1,3.9-1.7c-0.3-0.2-0.4-0.3-0.6-0.3
				c-4.3-1.9-8.8-3.3-13.4-4.1c-4.3-0.7-8.6-0.7-12.9,0.2c-5.3,1.2-9.7,3.7-13.1,8c-3.7,4.6-5,10-5.2,15.7c-0.1,4.5,0.6,8.8,2,13.1
				C937.1,563.7,938.1,566.2,939,568.7z M977.2,606.7c0,0,0.1,0.1,0.2,0.1c4.8,2.1,9.8,3.7,15,4.3c3.9,0.5,7.7,0.4,11.5-0.4
				c7.4-1.7,12.8-5.8,16-12.8c2.5-5.5,2.7-11.3,1.9-17.2c-0.7-4.6-2.1-9.1-3.9-13.4c-0.1-0.3-0.3-0.6-0.5-1.1
				c-0.1,0.3-0.2,0.4-0.2,0.5c-1.8,4.6-4.1,8.9-6.9,13c-0.4,0.6-0.5,0.9,0,1.5c1,1.5,1.5,3.1,1.1,4.9c-0.8,3.6-5,6.8-9.1,4.9
				c-0.8-0.4-1.3-0.2-1.8,0.4c-4,4-8.4,7.4-13.3,10.2C983.9,603.4,980.5,605,977.2,606.7z M1016.6,558.9c1.1-4.8,1.5-9.4,0.5-13.9
				c-1.3-6.1-4.4-10.8-9.9-13.9c-3-1.7-6.3-2.5-9.7-2.8c-3.5-0.3-6.9,0.2-10.6,0.9c6.3,3.7,11.8,8,16.8,12.9
				C1008.6,547.1,1013,552.6,1016.6,558.9z M940,576.3c-1,4.7-1.4,9.1-0.5,13.6c1.7,8.4,6.6,13.8,14.8,16.2c3.5,1,7.1,1.2,10.8,0.7
				c1.5-0.2,2.9-0.5,4.7-0.8C957.2,598.5,947.4,588.8,940,576.3z M945.9,555.5c-2.3-0.2-3.8,1.7-3.9,3.7c0,2.5,1.9,3.9,3.8,3.9
				c2.4,0,4-1.7,3.9-3.8C949.6,556.9,948.3,555.5,945.9,555.5z M1004.7,588.7c2.4,0.2,3.8-1.7,3.9-3.7c0-2.5-1.9-4-3.8-3.9
				c-2.5,0.1-3.8,1.4-3.9,3.7C1000.7,587.3,1002.8,588.9,1004.7,588.7z"/>
			<path fill="#00A8D8" d="M987.9,585.7c0.9,1.2,1.2,2.5,0.4,3.8c-0.9,1.5-2.1,2.2-3.8,2.2c-4.2,0-8.4,0-12.5,0
				c-2.1,0-3.6-1.2-4.1-3.2c-0.3-1.1,0.2-1.9,0.8-2.9c-1.3-1.7-1.1-3.3,0.4-4.9c0.6-0.6,0.2-2.1-0.4-2.5c-4.5-3-7.4-7.3-8.1-12.6
				c-0.9-6.5,1.4-12,6.3-16.3c2.6-2.3,5.6-3.6,9-4.1c4.9-0.7,9.4,0.6,13.3,3.6c3.9,3,6.3,6.9,7,11.8c0.7,4.9-0.5,9.4-3.5,13.2
				c-1.3,1.7-3.1,3-4.7,4.4c-0.7,0.6-1,1.9-0.4,2.7C989.1,582.7,989.2,583.7,987.9,585.7z M984.3,579.6c0-0.6,0.1-1.1,0-1.7
				c-0.1-0.8,0.2-1.2,0.9-1.5c1.9-0.9,3.6-2.3,4.9-4c2.9-3.7,3.8-7.9,3-12.4c-0.6-3.3-2.1-6.1-4.7-8.3c-3.7-3.2-8-4.3-12.7-3.6
				c-8.8,1.3-14,9.6-12.2,18.2c1,4.7,3.8,8,8,10.2c0.6,0.3,0.9,0.6,0.8,1.3c-0.1,0.6,0,1.2,0,1.8c1.6,0,3,0,4.5,0
				c0-3.6,0-7.2,0-10.8c-3-1.1-4.9-4.1-4.3-6.9c0.6-2.5,3.2-4.8,5.8-4.8c2.7,0,5,1.9,5.9,4.6c0.4,1.2,0.2,2.4-0.3,3.6
				c-0.8,1.8-2.2,2.9-3.9,3.6c0,3.6,0,7.2,0,10.8C981.3,579.6,982.8,579.6,984.3,579.6z M981.3,563.1c0-2-1-3.1-2.9-3.1
				c-2.1,0-3.1,1-3.1,2.9c0,2,1,3.1,3,3.1C980.3,566.1,981.3,565,981.3,563.1z M978.4,582.6c-2.3,0-4.5,0-6.8,0
				c-0.5,0-0.9,0.1-0.9,0.8c0,0.6,0.2,0.8,0.8,0.8c4.5,0,9,0,13.5,0c0.6,0,0.8-0.2,0.8-0.8c0-0.7-0.3-0.8-0.9-0.8
				C982.8,582.6,980.6,582.6,978.4,582.6z M978.3,587.1c-2.2,0-4.4,0-6.6,0c-0.5,0-1,0-1,0.8c0,0.7,0.4,0.8,0.9,0.8
				c4.4,0,8.8,0,13.3,0c0.6,0,0.9-0.1,0.9-0.8c0-0.8-0.4-0.8-1-0.8C982.7,587.1,980.5,587.1,978.3,587.1z"/>
		</g>
	</g>
</g>
<g id="Layer_13_1_">
	<g id="A5LGrz.tif">
		<g>
			<path fill="#00A8D8" d="M171.3,1001.2c0,0.4,0,0.7,0,1.1c-0.4,2.7-2.2,4.4-4,6.1c-3.3,3.2-6.6,6.6-9.8,9.8
				c-0.5,0.5-0.7,1-0.7,1.7c0,13.3,0,26.7,0,40c0,1.6-0.6,3-1.8,3.9c-0.6,0.5-1.4,0.7-2.2,1c-17.7,0-35.4,0-53.1,0
				c-3.3-1.3-4-2.3-4-6c0-2.8,0-5.5,0-8.3c0-0.3,0-0.5-0.1-0.9c-1.4,1.4-2.7,2.7-4,4.1c-1.1-1.2-2.2-2.3-3.2-3.5
				c-3.5-4.3-5.7-9.2-6.7-14.6c-0.2-1.2-0.4-2.4-0.6-3.6c0-1.4,0-2.8,0-4.2c0.1-0.2,0.2-0.4,0.2-0.6c0.3-1.7,0.4-3.5,0.9-5.2
				c2-7.7,6.3-13.8,12.8-18.4c0.6-0.4,0.7-0.8,0.7-1.5c0-7.6,0-15.2,0-22.8c0-1.6,0.6-2.9,1.8-3.8c0.6-0.5,1.4-0.7,2.2-1
				c17.7,0,35.4,0,53.1,0c0,0,0.1,0.1,0.1,0.1c2.4,0.4,4,2.6,3.9,5.2c-0.1,6.4,0,12.8,0,19.3c0,0.3,0,0.6,0,0.9
				c0.1,0,0.2,0.1,0.3,0.1c1.1-1.2,2.1-2.4,3.3-3.5c2.6-2.4,6.2-2.3,8.8,0.1C170.4,998.2,170.9,999.6,171.3,1001.2z M137.2,1008.5
				c-0.4,0.3-0.7,0.6-1,0.8c-12.3,12.3-24.6,24.6-36.9,36.9c-0.3,0.3-0.6,0.6-0.6,0.8c-0.1,1.1,0,2.2,0,3.3c18.5,0,36.9,0,55.2,0
				c0-9.5,0-18.9,0-28.3c-0.1,0-0.1-0.1-0.2-0.1c-0.2,0.3-0.4,0.5-0.6,0.8c-7.5,7.5-15,15-22.6,22.5c-0.4,0.4-1,0.7-1.5,0.8
				c-2,0.4-4,0.7-6,1.1c-1.3,0.2-2.6,0.4-4,0.6c0-0.3,0-0.5,0-0.6c0.5-2.9,1-5.9,1.4-8.8c0.2-1.1,0.6-2,1.5-2.8
				c10.5-10.5,21-21,31.5-31.5c0.5-0.5,0.7-0.9,0.7-1.6c0-4,0-8.1,0-12.1c0-0.3,0-0.6,0-1c-18.5,0-36.8,0-55.2,0c0,4.1,0,8.1,0,12.1
				C113,995.2,125.7,997.6,137.2,1008.5z M111.9,1000.9c-2.2,0.3-4.2,0.6-6.3,1c0.3,1,0.6,1.9,0.9,2.8c-0.9,0.3-1.7,0.6-2.6,0.9
				c-0.3-0.9-0.6-1.7-1-2.8c-1.9,1-3.8,1.9-5.7,2.9c0.6,0.9,1.2,1.7,1.7,2.4c-0.8,0.6-1.5,1.1-2.2,1.6c-0.6-0.8-1.2-1.6-1.9-2.6
				c-1.6,1.5-3,3-4.6,4.6c1,0.8,1.8,1.3,2.6,1.9c-0.6,0.7-1.1,1.4-1.6,2.2c-0.8-0.6-1.6-1.1-2.5-1.7c-1,2-1.9,3.8-2.9,5.7
				c1.1,0.4,2,0.7,2.9,1c-0.3,0.9-0.6,1.7-0.9,2.6c-1-0.3-1.8-0.6-2.9-0.9c-0.3,2.2-0.6,4.2-1,6.3c1.1,0,2,0,2.9,0c0,1,0,1.8,0,2.8
				c-1,0-1.9,0-2.9,0c0.3,2.2,0.7,4.2,1,6.3c1.1-0.3,1.9-0.6,2.9-0.9c0.3,0.9,0.6,1.7,0.8,2.6c-0.9,0.3-1.8,0.6-2.8,1
				c1,1.9,1.9,3.8,2.9,5.7c0.9-0.6,1.7-1.2,2.4-1.7c0.6,0.8,1.1,1.5,1.6,2.2c-0.8,0.6-1.5,1.2-2.3,1.7c0.4,0.5,0.8,0.8,1,1.1
				c13.8-13.7,27.5-27.4,41.3-41.1c-0.4-0.3-0.8-0.7-1.2-1.1c-0.6,0.8-1.2,1.5-1.7,2.3c-0.8-0.6-1.5-1.1-2.2-1.6
				c0.6-0.8,1.1-1.5,1.6-2.3c-1.8-1.2-3.6-2.2-5.7-2.9c-0.3,1-0.6,1.8-0.9,2.6c-0.9-0.3-1.7-0.6-2.6-0.9c0.3-0.9,0.6-1.8,0.9-2.8
				c-2.2-0.3-4.2-0.6-6.4-1c0,1.1,0,2,0,2.9c-1,0-1.8,0-2.7,0C111.9,1002.9,111.9,1002,111.9,1000.9z M153.9,986.4
				c0-2.4,0-4.6,0-6.9c0-1.6-0.2-1.8-1.8-1.8c-17.3,0-34.5,0-51.8,0c-0.3,0-0.6-0.1-0.7,0c-0.4,0.3-1,0.6-1,1c-0.1,2.6,0,5.1,0,7.7
				C117.1,986.4,135.4,986.4,153.9,986.4z M98.6,1053.3c0,0.3,0,0.6,0,0.9c0,2.1,0,4.1,0,6.2c0,1.4,0.3,1.7,1.7,1.7
				c8.1,0,16.2,0,24.4,0c0.3,0,0.6,0,0.9,0c-2-0.8-3.5-2.1-3.5-4.3c0-2.3,1.5-3.7,3.9-4.5C116.6,1053.3,107.7,1053.3,98.6,1053.3z
				 M153.9,1053.4c-9,0-18,0-27.1,0c2.7,0.9,3.8,2.7,3.7,4.3c0,1.7-1,3.4-3.9,4.3c0.6,0,0.9,0,1.2,0c6.1,0,12.2,0,18.3,0
				c2.1,0,4.2,0,6.3,0c0.8,0,1.3-0.3,1.3-1.1C153.9,1058.4,153.9,1055.9,153.9,1053.4z M157.6,1011.2c-10,10-20,20-29.9,29.9
				c0.4,0.4,0.9,0.9,1.2,1.3c10-10,19.9-19.9,29.9-29.9C158.5,1012.1,158,1011.6,157.6,1011.2z M125.4,1038.8c10-10,20-20,29.9-29.9
				c-0.5-0.5-1-1-1.4-1.4c-10,10-20,19.9-29.9,29.9C124.5,1037.8,125,1038.4,125.4,1038.8z M165.6,1006.3c0.5-0.5,1-1.1,1.4-1.5
				c1-0.9,1.5-2,1.4-3.5c-0.1-1.8-1.5-3.1-3.3-3.3c-2.4-0.2-3.5,1.6-4.9,2.9C162,1002.7,163.7,1004.4,165.6,1006.3z M163.4,1008.4
				c-1.8-1.8-3.5-3.5-5.2-5.2c-0.7,0.7-1.5,1.4-2.2,2c1.7,1.8,3.5,3.5,5.2,5.2C162,1009.8,162.7,1009,163.4,1008.4z M122.8,1040.4
				c-0.2,1.3-0.4,2.5-0.6,3.9c1.4-0.3,2.7-0.5,4-0.7C125,1042.6,123.9,1041.5,122.8,1040.4z M126.3,1056.2c-1.2,0-1.5,0.3-1.6,1.4
				c0,1.2,0.3,1.6,1.4,1.6c1.1,0,1.5-0.3,1.5-1.4C127.7,1056.6,127.4,1056.2,126.3,1056.2z"/>
			<path fill="#00A8D8" d="M97.1,1036.7c-2.2-5.9-1.6-12.6,3.2-18c5.2-5.8,12.3-7.3,19.5-4.8C112.2,1021.5,104.6,1029.1,97.1,1036.7
				z M114.1,1015.5c-4.7-0.2-8.8,1.4-12,5c-2.6,3-3.7,6.6-3.5,10.4C103.8,1025.8,109,1020.7,114.1,1015.5z"/>
			<path fill="#00A8D8" d="M134.9,980.7c0,0.9,0,1.8,0,2.7c-5.8,0-11.5,0-17.3,0c0-0.9,0-1.8,0-2.7
				C123.4,980.7,129.1,980.7,134.9,980.7z"/>
		</g>
	</g>
</g>
<g id="Layer_14_1_">
	<g id="iTvpaL.tif">
		<g>
			<path fill="#00A8D8" d="M1004.7,1066.9c-0.7,0-1.5,0-2.2,0c-0.2-0.1-0.5-0.2-0.7-0.2c-4.2-0.2-7.9-1.6-11.4-3.7
				c-0.5-0.3-1.2-0.5-1.8-0.5c-16.8,0-33.7,0-50.5,0c-0.4,0-0.8,0-1.1,0c0-7.5,0-14.8,0-22.3c13.9,0,27.7,0,41.4,0
				c0-1.5,0-2.9,0-4.4c-0.4,0-0.8,0-1.1,0c-7,0-13.9,0-20.9,0c-0.9,0-1.8,0.1-2.7,0.2c-3.2,0.4-6.3,0.8-9.5,1.2
				c-0.3,0-0.7-0.2-0.9-0.4c-2.2-2.6-4.3-5.3-6.4-7.9c-0.3-0.4-0.3-0.6,0-1c2.2-2.7,4.3-5.4,6.5-8c0.2-0.2,0.6-0.4,0.8-0.4
				c2.2,0.2,4.3,0.6,6.5,0.8c1.9,0.2,3.7,0.6,5.6,0.6c7,0.1,14.1,0,21.1,0c0.3,0,0.6,0,1,0c0-1.1,0-2,0-3c-0.4,0-0.8,0-1.2,0
				c-8,0-16-0.1-23.9,0c-2.3,0-4.3-0.4-6-2c-2.1-1.9-4.4-3.6-6.7-5.4c2.9-2.3,5.8-4.6,8.6-6.9c0.5-0.4,1.1-0.5,1.7-0.5
				c8.8,0,17.6,0,26.4,0c0.4,0,0.7,0,1.1,0c0.1-0.2,0.2-0.4,0.2-0.6c0.5-2.1,1.7-3.4,3.8-3.7c1.8-0.2,3.7-0.1,5.5-0.1
				c2.9,0,5.7,0,8.7,0c-0.6-1.8-0.1-3.2,1.1-4.5c1.2-1.3,2.8-1.4,4.5-1.5c0-4.5,0-8.9,0-13.3c0-1.2-0.3-1.6-1.6-1.6
				c-11.8,0-23.6,0-35.4,0c-1.2,0-1.6,0.3-1.6,1.6c0,3.7,0,7.4,0,11c0,3.2-2,5.2-5.2,5.2c-3.9,0-7.7,0-11.6,0c-0.3,0-0.6,0-1,0
				c0,1,0,1.9,0,2.7c0,2-1.5,4.2-3.4,4.4c-1.8,0.3-3.6,0.2-5.4,0.3c0-6.1,0-11.9,0-17.8c1.3,0,2.6,0,3.8,0c2.9,0,5,2.1,5,5
				c0,0.8,0,1.6,0,2.4c4.5,0,8.9,0,13.3,0c1.2,0,1.6-0.4,1.6-1.6c0-3.8,0-7.5,0-11.3c0-2.1,1.2-3.9,3.1-4.6c0.3-0.1,0.6-0.2,0.9-0.3
				c12.1,0,24.2,0,36.4,0c3.3,1.3,4.1,2.4,4.1,6.1c0,3.5,0,7,0,10.6c0,0.4,0,0.7,0,1.2c1.7-0.1,3.3,0.2,4.6,1.5
				c1.2,1.3,1.6,2.7,1.1,4.5c4.5,0,8.8,0,13.2,0c1.6,0,3,0.6,3.9,1.9c0.5,0.6,0.7,1.5,1.1,2.2c0,13.4,0,26.7,0,40.1
				c-0.1,1-0.2,2.1-0.4,3.1c-1,5.2-3.3,9.7-7,13.4c-3.7,3.7-8,6.1-13.1,7C1007,1066.6,1005.8,1066.7,1004.7,1066.9z M1025.8,1019.4
				c-14.9,0-29.7,0-44.6,0c0,0.4,0,0.8,0,1.2c0,7,0,14.1,0,21.1c0,1,0,2,0.2,2.9c0.8,6.6,4,11.8,9.5,15.5c5.4,3.7,11.4,4.6,17.8,3.2
				c9.8-2.1,17.1-11,17.1-21.2c0-7.2,0-14.5,0-21.7C1025.8,1020.2,1025.8,1019.9,1025.8,1019.4z M1025.8,1016.4c0-4.5,0-8.9,0-13.3
				c0-1.2-0.3-1.6-1.6-1.6c-13.8,0-27.6,0-41.4,0c-1.3,0-1.6,0.3-1.6,1.6c0,4.1,0,8.3,0,12.4c0,0.3,0,0.5,0,0.8c6.9,0,13.8,0,20.8,0
				c0-4,0-7.9,0-11.8c1,0,1.9,0,2.9,0c0,4,0,7.9,0,11.8C1012,1016.4,1018.9,1016.4,1025.8,1016.4z M939.8,1059.4
				c15.4,0,30.6,0,46.1,0c-4.5-4.6-7-10-7.4-16.2c-1.1,0-2.1,0-3.1,0c0,2,0,3.9,0,5.8c-1,0-1.9,0-2.9,0c0-2,0-3.9,0-5.8
				c-1.1,0-2,0-3,0c0,1.5,0,2.9,0,4.3c-1,0-1.9,0-2.9,0c0-1.5,0-2.9,0-4.3c-1.1,0-2,0-3,0c0,2,0,3.9,0,5.8c-1,0-1.9,0-2.9,0
				c0-2,0-3.9,0-5.8c-1,0-2,0-3,0c0,1.5,0,2.9,0,4.3c-1,0-1.9,0-2.9,0c0-1.5,0-2.9,0-4.3c-1,0-1.9,0-3,0c0,2,0,3.9,0,5.8
				c-1,0-1.9,0-2.9,0c0-2,0-3.9,0-5.8c-1.1,0-2,0-3,0c0,1.5,0,2.9,0,4.3c-1,0-1.9,0-2.9,0c0-1.5,0-2.9,0-4.3c-1,0-2,0-2.9,0
				C939.8,1048.6,939.8,1054,939.8,1059.4z M963.5,1023.9c0,3,0,5.9,0,8.8c4.9,0,9.8,0,14.8,0c0-3,0-5.9,0-8.8
				C973.4,1023.9,968.5,1023.9,963.5,1023.9z M978.3,1006.1c-8.9,0-17.8,0-26.6,0c0,1,0,1.9,0,2.9c8.9,0,17.8,0,26.6,0
				C978.3,1008,978.3,1007.1,978.3,1006.1z M951.6,1014.9c9,0,17.8,0,26.6,0c0-1,0-1.9,0-2.9c-8.9,0-17.8,0-26.6,0
				C951.6,1013,951.6,1013.9,951.6,1014.9z M941.3,1026.7c1.1,0.2,1.9,0.2,2.3-0.9c0.1-0.4,0.5-0.6,0.9-0.9c1.2-1.1,2.9-1.3,4.3-0.6
				c1.6,0.8,2.6,2.2,2.7,4c0,1.7-1.6,3.7-3.3,4.2s-3.5-0.3-4.7-1.8c-0.8-1.1-0.8-1.1-2.2-0.8c1.1,1.4,2.1,2.7,3.2,4
				c0.1,0.2,0.5,0.2,0.8,0.2c2.8-0.3,5.6-0.6,8.4-1c0.6-0.1,0.8-0.3,0.8-0.9c0-2.6,0-5.2,0-7.8c0-0.7-0.3-0.9-0.9-1
				c-2.4-0.3-4.8-0.6-7.2-0.9c-0.6,0-1.4-0.5-2,0.1C943.5,1024,942.4,1025.3,941.3,1026.7z M939.8,1000.1c0.5,0,0.9,0,1.3,0
				c1.3,0,1.6-0.3,1.6-1.7c0-2.5,0-5.1,0-7.6c0-2.7,0-2.7-2.7-2.6c0,0-0.1,0-0.2,0.1C939.8,992.2,939.8,996.1,939.8,1000.1z
				 M957.6,1023.9c0,3,0,5.9,0,8.8c1,0,1.9,0,2.9,0c0-3,0-5.9,0-8.8C959.5,1023.9,958.6,1023.9,957.6,1023.9z M1003.5,998.6
				c1,0,2,0,3.1,0c1.1,0,1.4-0.4,1.4-1.5c0-1.1-0.4-1.5-1.4-1.5c-2.1,0-4.1,0-6.2,0c-1,0-1.4,0.4-1.4,1.5c0,1.1,0.4,1.5,1.4,1.5
				C1001.5,998.7,1002.5,998.6,1003.5,998.6z M945,1010.5c1.2,1,2.3,1.9,3.6,2.8c0-2,0-3.8,0-5.7c-1.1,0.9-2.2,1.7-3.2,2.6
				C945.3,1010.2,945.2,1010.4,945,1010.5z M945.7,1028.2c0,1.2,0.3,1.6,1.4,1.6c1.2,0,1.6-0.4,1.6-1.5s-0.4-1.5-1.5-1.5
				C946.1,1026.8,945.7,1027.2,945.7,1028.2z"/>
		</g>
	</g>
</g>
<g id="Layer_15_1_">
	<g id="CswJ2Q.tif">
		<g>
			<path fill="#00A8D8" d="M111.3,1531.8c0.5-2.8,0.9-5.6,1.4-8.4c0.5-3.1,1-6.2,1.6-9.3c0.6-3.5,1.2-7.1,1.8-10.6
				c0.6-3.4,1.1-6.9,1.7-10.3c0.3-2,0.7-4.1,1-6.2c-2.3,0.5-4.5,1.1-6.7,1.6c-5.7,1.4-11.4,2.8-17.1,4.1c-2.6,0.6-5.2-1.5-5.5-4.3
				c0-0.2,0-0.4-0.1-0.6c-1.7,0-3.3,0-5,0c-1.5,0-3,0.1-4.5-0.2c-2-0.3-3.1-1.6-3.6-3.5c0-0.1-0.1-0.2-0.2-0.3c0-1.6,0-3.2,0-4.8
				c0.9,0,1.9,0,2.8,0c-0.7-1.6-1.5-3.2-2.1-4.8c-0.4-1-0.5-2-0.7-3.1c0-0.6,0-1.2,0-1.8c0.2-0.8,0.3-1.7,0.5-2.6
				c1.8-6.1,5.8-9.9,12-11c7.6-1.4,14.9,4.1,16.5,11.5c0.8,3.9,0,7.5-2.1,10.9c-0.2,0.2-0.3,0.5-0.5,0.8c1,0,1.9,0,2.9,0
				c-0.1,2,0.3,3.9-0.3,5.7c-0.7,1.9-2.4,3.1-4.4,3.1c-2.8,0-5.6,0-8.3,0c-0.4,1.9,0.3,2.5,2,2.1c17.1-4.1,34.3-8.1,51.4-12.2
				c1.4-0.3,2.8-0.7,4.2-1c0.8-0.2,1.1-0.6,1.1-1.5c0-0.7,0-1.3,0-2.1c-1.4,0-2.8,0-4.2,0c-1.8,0-3.6,0.1-5.4-0.2
				c-2-0.3-3.6-2.1-3.7-4.2c-0.1-1.4,0-2.8,0-4.3c1,0,1.9,0,2.9,0c0-0.2,0-0.3-0.1-0.4c-1.6-2.3-2.6-5-2.7-7.8
				c-0.2-3.3,0.8-6.4,2.7-9.1c2.4-3.3,5.6-5.3,9.7-6.1c0.4-0.1,0.9-0.2,1.3-0.2c0.6,0,1.2,0,1.8,0c0.4,0.1,0.8,0.1,1.2,0.2
				c5.8,1.2,9.8,4.6,11.8,10.2c0.4,1.1,0.5,2.2,0.8,3.3c0,0.6,0,1.2,0,1.8c-0.1,0.1-0.2,0.2-0.2,0.3c-0.2,2.7-1.1,5.1-2.6,7.3
				c-0.1,0.1-0.1,0.2-0.1,0.4c1,0,1.9,0,2.9,0c0,1.6,0,3.2,0,4.8c-0.3,0.7-0.6,1.5-1,2.2c-0.9,1.3-2.3,1.9-3.9,1.8
				c-2.7,0-5.4,0-8.2,0c-0.1,0.9-0.1,1.8-0.3,2.7c-0.4,2-1.7,3.2-3.7,3.7c-8.6,2-17.1,4.1-25.7,6.1c-0.2,0.1-0.3,0.1-0.5,0.2
				c1.3,1.9,1.2,4.1,1.6,6.3c0.6,3.4,1.2,6.9,1.7,10.4c0.5,3.1,1,6.3,1.6,9.4c0.6,3.5,1.2,7,1.7,10.5c0.5,3.2,1,6.3,1.6,9.5
				C125.2,1531.8,118.2,1531.8,111.3,1531.8z M114.6,1528.8c4.8,0,9.5,0,14.3,0c-0.3-2-0.6-3.9-0.9-5.8c-0.6-3.5-1.2-7-1.8-10.5
				c-0.5-3.1-1-6.2-1.6-9.3c-0.6-3.5-1.2-7-1.8-10.5c-0.3-1.5-0.5-3.1-0.8-4.6c0-0.2-0.3-0.3-0.4-0.4c-0.1,0.1-0.3,0.3-0.4,0.4
				c-0.1,0.4-0.1,0.7-0.2,1.1c-0.6,3.9-1.3,7.7-1.9,11.6c-0.8,4.6-1.6,9.1-2.3,13.7C116.2,1519.2,115.4,1524,114.6,1528.8z
				 M90.9,1478.9c2.4,0,4.8,0,7.2,0c0.4,0,0.9-0.2,1.2-0.5c3.2-3.1,4.1-7,3.1-11.2c-1.3-5.8-6.9-9.9-13.7-8.7c-4.6,0.8-7.7,3.5-9,8
				c-1.3,4.5-0.5,8.6,3,12c0.3,0.3,0.7,0.4,1.1,0.4C86.1,1478.9,88.5,1478.9,90.9,1478.9z M152.6,1464.2c2.4,0,4.8,0,7.2,0
				c0.4,0,0.9-0.2,1.2-0.5c3.2-3.1,4.1-7,3.1-11.2c-1.5-6.3-7.2-9.8-13.7-8.7c-4.6,0.8-7.7,3.5-9,7.9c-1.3,4.5-0.5,8.6,3,12
				c0.3,0.3,0.7,0.4,1.1,0.4C147.8,1464.2,150.2,1464.2,152.6,1464.2z M164.3,1467.2c-7.8,0-15.6,0-23.4,0c0,0.4,0,0.7,0,1
				c0,1.6,0.2,1.9,1.8,1.9c6.4,0,12.8,0,19.2,0c2.7,0,2.6-0.3,2.5-2.8C164.3,1467.2,164.3,1467.2,164.3,1467.2z M79.1,1481.8
				c0,0.4,0,0.8,0,1.1c0,1.6,0.2,1.8,1.9,1.8c6.4,0,12.7,0,19.1,0c2.7,0,2.7-0.1,2.6-2.7c0-0.1-0.1-0.1-0.1-0.2
				C94.8,1481.8,87,1481.8,79.1,1481.8z"/>
			<path fill="#00A8D8" d="M95.4,1476.1c-0.4-1.6-0.7-3.1-1-4.6c-2.3,0-4.6,0-6.9,0c-0.3,1.5-0.7,3-1,4.6c-0.8-0.2-1.6-0.3-2.4-0.5
				c-0.2-0.1-0.3-0.5-0.3-0.7c0.7-3.3,1.4-6.6,2.2-9.8c0.6-2.3,2.7-3.8,4.9-3.8c2.3,0,4.3,1.6,4.9,3.9c0.8,3.2,1.5,6.5,2.2,9.7
				c0.1,0.2-0.2,0.7-0.4,0.7C96.9,1475.9,96.2,1476,95.4,1476.1z M93.7,1468.5c-0.3-1.1-0.5-2.1-0.8-3.1c-0.3-1-0.9-1.3-2.1-1.3
				c-1.1,0-1.7,0.4-2,1.4c-0.3,1-0.5,2-0.7,3C90,1468.5,91.8,1468.5,93.7,1468.5z"/>
			<path fill="#00A8D8" d="M146.8,1446.7c2.7,0,5.4-0.3,7.9,0.1c3.4,0.5,4.7,4.1,2.6,6.9c-0.1,0.1-0.1,0.2-0.1,0.2
				c1.9,2.8,1.4,5.5-1.4,6.8c-0.5,0.3-1.1,0.5-1.7,0.5c-2.4,0.1-4.8,0-7.2,0C146.8,1456.3,146.8,1451.5,146.8,1446.7z M149.7,1452.4
				c1.7,0,3.3,0.1,4.9,0c0.9-0.1,1-0.8,1-1.6c0-0.7-0.3-1.3-1-1.4c-1.6-0.1-3.2,0-4.9,0C149.7,1450.5,149.7,1451.4,149.7,1452.4z
				 M149.7,1458.3c1.7,0,3.2,0,4.8,0c0.7,0,1.1-0.5,1.1-1.2c0-0.8,0.1-1.7-0.9-1.7c-1.7-0.1-3.3,0-5,0
				C149.7,1456.4,149.7,1457.3,149.7,1458.3z"/>
		</g>
	</g>
</g>
<g id="Layer_16_1_">
	<g id="dOuafo.tif">
		<g>
			<path fill="#00A8D8" d="M168.8,612.1c-1.7-1.5-3.5-3-5.2-4.6c-7.1-6.4-14.3-12.9-21.4-19.4c-0.3-0.2-0.5-0.4-0.7-0.6
				c-2.1,1.8-4.1,3.6-6.2,5.3c-5.2,3.9-11,6.4-17.4,7.3c-12.6,1.7-23.6-1.7-32.9-10.3c-6.2-5.7-10.1-12.6-11.9-20.8
				c-0.3-1.5-0.4-3-0.7-4.5c0-0.2-0.1-0.5-0.2-0.7c0-2,0-4,0-6.1c0.1-0.2,0.1-0.5,0.2-0.7c0.2-1.5,0.4-3.1,0.7-4.6
				c1.5-7,4.7-13.1,9.6-18.4c5.8-6.3,13-10.5,21.4-12.3c1.5-0.3,3.1-0.5,4.6-0.8c2.3,0,4.6,0,6.8,0c1.6,0.3,3.3,0.4,4.9,0.8
				c6.7,1.5,12.7,4.5,17.8,9c6.1,5.4,10.2,11.9,12.4,19.8c1.2,4.6,1.6,9.2,1.2,13.9c-0.7,7.8-3.7,14.2-7.1,19.1
				c1.9,1.7,3.7,3.4,5.6,5.1c4.5,4.1,9,8.2,13.6,12.3c2.4,2.1,4.7,4.3,7.1,6.4c1.9,1.7,1.8,3.5-0.3,4.8
				C170,612.1,169.4,612.1,168.8,612.1z M148.4,560.8c-0.2-20.4-15.8-36.4-36.4-36.4c-20.7-0.1-36.4,16.3-36.5,36.4
				c0,20.4,16.3,36.4,36.3,36.4C132,597.1,148.3,581.3,148.4,560.8z"/>
			<path fill="#00A8D8" d="M98.1,568.1c0-5,0-9.8,0-14.8c-0.4,0-0.8,0-1.2,0c-3.9,0-7.8,0-11.7,0c-0.4,0-0.7,0-1.1-0.1
				c-1-0.2-1.5-0.9-1.5-1.9c0.1-0.9,0.8-1.5,1.7-1.5c3.1,0,6.3,0,9.4,0c2,0,4,0,6,0c1.2,0,1.9,0.7,1.9,1.9c0,6,0,11.9,0,17.9
				c0,1.2-0.7,1.9-2,2c-5,0-10,0-15.1,0c-1.2,0-1.9-0.7-2-1.7c0-1.1,0.8-1.8,2-1.8c4.1,0,8.2,0,12.3,0
				C97.4,568.1,97.7,568.1,98.1,568.1z"/>
			<path fill="#00A8D8" d="M123.9,562.4c-5.2,0-10.3,0-15.5,0c-0.8,0-1.4-0.2-1.6-0.9c-0.1-0.5-0.1-1.2,0.1-1.7
				c0.2-0.4,0.9-0.7,1.4-0.7c1.3-0.1,2.5,0,3.8,0c8.7,0,17.5,0,26.2,0c0.4,0,0.7,0,1.1,0c1.2,0.1,1.8,0.7,1.8,1.7
				c0,1-0.7,1.6-1.9,1.6C134.2,562.4,129.1,562.4,123.9,562.4L123.9,562.4z"/>
			<path fill="#00A8D8" d="M123,571.6c-4.8,0-9.5,0-14.3,0c-1.3,0-2.1-0.7-2-1.8c0-1,0.8-1.7,2-1.7c3.5,0,7.1,0,10.6,0
				c6.1,0,12.1,0,18.2,0c1.7,0,2.6,1.4,1.7,2.6c-0.4,0.5-1.2,0.9-1.8,0.9C132.5,571.7,127.7,571.6,123,571.6z"/>
			<path fill="#00A8D8" d="M123,549.9c4.8,0,9.6,0,14.4,0c0.9,0,1.9,0.5,2,1.7c0.1,1-0.7,1.8-2,1.8c-2.1,0-4.2,0-6.3,0
				c-7.3,0-14.6,0-21.9,0c-0.4,0-0.8,0-1.2-0.1c-0.9-0.2-1.5-0.9-1.5-1.8c0.1-0.9,0.8-1.6,1.8-1.6c3.5,0,7,0,10.6,0
				C120.3,549.9,121.7,549.9,123,549.9z"/>
		</g>
	</g>
</g>
<rect fill="none" width="1100" height="1632"/>
<g>
	<g>
		
			<line fill="none" stroke="#08AAD8" stroke-width="2" stroke-linecap="round" stroke-linejoin="round" x1="504" y1="356" x2="516" y2="356"/>
		<g>
			<polygon fill="#08AAD8" points="508.2,361.8 509.2,360.8 504.1,356 509.2,351.2 508.2,350.2 502,356 			"/>
		</g>
	</g>
</g>
<g>
	<g>
		
			<line fill="none" stroke="#08AAD8" stroke-width="2" stroke-linecap="round" stroke-linejoin="round" x1="515" y1="584" x2="503" y2="584"/>
		<g>
			<polygon fill="#08AAD8" points="510.7,578.2 509.8,579.2 514.9,584 509.8,588.8 510.7,589.8 517,584 			"/>
		</g>
	</g>
</g>
<g>
	<g>
		
			<line fill="none" stroke="#08AAD8" stroke-width="2" stroke-linecap="round" stroke-linejoin="round" x1="502" y1="815" x2="514" y2="815"/>
		<g>
			<polygon fill="#08AAD8" points="506.2,820.8 507.2,819.8 502.1,815 507.2,810.2 506.2,809.2 500,815 			"/>
		</g>
	</g>
</g>
<g>
	<g>
		
			<line fill="none" stroke="#08AAD8" stroke-width="2" stroke-linecap="round" stroke-linejoin="round" x1="514" y1="1055" x2="502" y2="1055"/>
		<g>
			<polygon fill="#08AAD8" points="509.7,1049.2 508.8,1050.2 513.9,1055 508.8,1059.8 509.7,1060.8 516,1055 			"/>
		</g>
	</g>
</g>
<g>
	<g>
		
			<line fill="none" stroke="#08AAD8" stroke-width="2" stroke-linecap="round" stroke-linejoin="round" x1="503" y1="1276" x2="515" y2="1276"/>
		<g>
			<polygon fill="#08AAD8" points="507.2,1281.8 508.2,1280.8 503.1,1276 508.2,1271.2 507.2,1270.2 501,1276 			"/>
		</g>
	</g>
</g>
</svg>
