<?xml version="1.0" encoding="utf-8"?>
<!-- Generator: Adobe Illustrator 19.2.1, SVG Export Plug-In . SVG Version: 6.00 Build 0)  -->
<svg version="1.1" id="Layer_1" xmlns="http://www.w3.org/2000/svg" xmlns:xlink="http://www.w3.org/1999/xlink" x="0px" y="0px"
	 viewBox="0 0 416 195" style="enable-background:new 0 0 416 195;" xml:space="preserve">
<style type="text/css">
	.st0{fill:#FED206;}
	.st1{fill:#1D1D1B;}
</style>
<g>
	<g>
		<path class="st0" d="M317.6,88.9l-45.4,26.2v52.4l45.4,26.2l45.4-26.2v-52.4L317.6,88.9z M306.4,108.6l11.4,6.6l11.3-6.5l11.3,6.5
			l-22.7,13.1l-22.7-13.1L306.4,108.6z M283.6,121.7l34,19.6l34-19.6v13.1l-34,19.6l-34-19.6V121.7z M351.8,161l-34,19.6l-34-19.6
			v-13.1l34,19.6l34-19.6V161z"/>
		<g>
			<path class="st0" d="M413.6,27.5L368.2,1.3l-45.4,26.2v52.4l45.4,26.2l45.4-26.2V27.5z M334.2,58.4l12.9-7.5l12.9,7.5v14.9
				l-12.9,7.5l-12.9-7.5V58.4z M368.4,93l-10.1-5.8l24-13.8V45.7l-24-13.8l-23.9,13.8V34l34-19.6l34,19.6v39.3L368.4,93z"/>
			<polygon class="st0" points="347.1,71.8 352.4,68.8 352.4,62.9 347.1,59.9 342.1,62.9 342.1,68.8 			"/>
		</g>
		<g>
			<path class="st0" d="M221.8,27.5v52.4l45.4,26.2l45.4-26.2V27.5L267.1,1.3L221.8,27.5z M288.2,80.8l-12.9-7.5V58.4l12.9-7.5
				l12.9,7.5v14.9L288.2,80.8z M301.1,34v11.6l-24-13.8l-23.9,13.8v27.7l23.9,13.8L267,92.9l-34-19.6V34l34-19.6L301.1,34z"/>
			<polygon class="st0" points="293.4,62.9 288.2,59.9 283.1,62.9 283.1,68.8 288.2,71.8 293.4,68.8 			"/>
		</g>
	</g>
	<g>
		<path class="st1" d="M54.5,37.2c0,6-2,11.5-5.9,16.4s-9.1,8.2-15.6,9.9c-2.8,0.7-5.9,1.3-9.2,1.6c-3.3,0.3-7,0.5-11.1,0.5
			l0.1,26.2H2.5c0-2.5,0.1-7.1,0.2-13.8c0.1-6.7,0.1-17.1,0.1-31.2c0-4.5,0-9.9-0.1-16.4c0-6.5-0.1-13.7-0.2-21.7
			c1.8,0,3.5-0.1,5.2-0.1s3.1,0,4.2,0c7.1,0,13.2,0.5,18.3,1.4c5,0.9,9.2,2.5,12.7,4.7c3.8,2.4,6.6,5.4,8.6,9.2
			C53.5,27.8,54.5,32.2,54.5,37.2z M43.9,37.2c0-4.3-1-7.9-2.9-10.9s-4.9-5.4-8.9-7.1c-2.5-1.1-5.2-1.7-8.1-2s-5.9-0.4-8.9-0.4
			c-0.4,0-0.7,0-1.1,0c-0.4,0-0.8,0-1.2,0c0,0.5,0,3.6-0.1,9.3c-0.1,5.8-0.1,10.3-0.1,13.7c0,3.1,0,6.7,0,10.9c0,4.2,0,6.6,0,7.1
			c0.4,0,0.8,0,1.3,0s0.9,0,1.2,0c2.8,0,5.7-0.2,8.8-0.6c3.1-0.4,5.8-1.1,8-2c3.9-1.7,6.9-4,8.9-6.9C42.9,45.3,43.9,41.7,43.9,37.2z
			"/>
		<path class="st1" d="M126.2,37.2c0,6-2,11.5-5.9,16.4s-9.1,8.2-15.6,9.9c-2.8,0.7-5.9,1.3-9.2,1.6c-3.3,0.3-7,0.5-11.1,0.5
			l0.1,26.2H74.4c0-2.5,0.1-7.1,0.2-13.8c0.1-6.7,0.1-17.1,0.1-31.2c0-4.5,0-9.9-0.1-16.4c0-6.5-0.1-13.7-0.2-21.7
			c1.8,0,3.5-0.1,5.2-0.1s3.1,0,4.2,0c7.1,0,13.2,0.5,18.3,1.4c5,0.9,9.2,2.5,12.7,4.7c3.8,2.4,6.6,5.4,8.6,9.2
			C125.2,27.8,126.2,32.2,126.2,37.2z M115.7,37.2c0-4.3-1-7.9-2.9-10.9s-4.9-5.4-8.9-7.1c-2.5-1.1-5.2-1.7-8.1-2
			c-2.9-0.3-5.9-0.4-8.9-0.4c-0.4,0-0.7,0-1.1,0c-0.4,0-0.8,0-1.2,0c0,0.5,0,3.6-0.1,9.3c-0.1,5.8-0.1,10.3-0.1,13.7
			c0,3.1,0,6.7,0,10.9c0,4.2,0,6.6,0,7.1c0.4,0,0.8,0,1.3,0s0.9,0,1.2,0c2.8,0,5.7-0.2,8.8-0.6s5.8-1.1,8-2c3.9-1.7,6.9-4,8.9-6.9
			C114.7,45.3,115.7,41.7,115.7,37.2z"/>
		<path class="st1" d="M201.2,84.3c0,0.4-0.2,1.4-0.3,3.1c-0.2,1.7-0.4,3.6-0.5,5.6c-0.3,0-0.7,0-1.1,0c-0.4,0-0.8,0-1.1,0
			c-10.1,0-19.1-1.3-26.9-3.8c-7.9-2.5-14.3-6.2-19.4-11.1c-3.5-3.4-6.3-7.4-8.3-12c-2-4.7-3.1-10-3.1-16c0-5.4,1-10.3,3-14.7
			c2-4.4,4.7-8.3,7.9-11.6c4.8-4.8,11.2-8.6,19.2-11.4s16.6-4.2,25.7-4.2c0.5,0,1,0,1.6,0s1,0,1.2,0c0,0.7,0.1,1.9,0.2,3.6
			c0.1,1.6,0.3,3.4,0.4,5.3c-0.4,0-0.8,0-1.1,0s-0.6,0-1.1,0c-5.2,0-10.5,0.6-16.1,1.7c-5.5,1.1-10.3,2.8-14.3,5.1
			c-5.2,3-9.2,6.8-12.1,11.4c-2.8,4.7-4.2,9.7-4.2,15c0,5.6,1.3,10.7,3.8,15.2c2.5,4.6,6.5,8.4,12,11.5c4.5,2.6,9.5,4.4,15,5.6
			c5.5,1.2,11,1.7,16.5,1.7c0.2,0,0.6,0,1.2,0C200,84.3,200.5,84.3,201.2,84.3z"/>
		<path class="st1" d="M61.4,162.7c0,4.1-1.1,7.9-3.2,11.2s-5.2,6-9.3,8.1c-3.6,1.9-7.5,3.2-11.8,4.1c-4.3,0.8-9.2,1.3-14.8,1.3
			c-4.1,0-8.3-0.1-12.6-0.2c-4.3-0.1-6.7-0.2-7.2-0.3c0.1-7.9,0.2-15.4,0.2-22.5s0.1-13.8,0.1-20.2c0-12.2-0.1-21.8-0.2-28.9
			c-0.1-7.1-0.2-10.8-0.2-11.1c0.6,0,2.9-0.1,6.8-0.3c4-0.2,7.9-0.2,11.6-0.2c4.3,0,8.2,0.3,11.8,0.8c3.6,0.6,6.6,1.3,9.1,2.3
			c3.8,1.5,6.7,3.6,8.9,6.4c2.1,2.8,3.2,6.2,3.2,10.3c0,4.3-1.3,8-4,11.3s-5.8,5.5-9.2,6.7v0.6c2.8,0.2,5.6,0.9,8.3,2
			c2.7,1.1,5,2.7,7.1,4.7c1.8,1.8,3.1,3.7,4,5.9C61,157,61.4,159.6,61.4,162.7z M50.9,163.1c0-2.1-0.4-4-1.1-5.7s-1.9-3.3-3.4-4.8
			c-1.4-1.4-3.3-2.5-5.8-3.4s-5.1-1.3-8-1.3c-2.3,0-4.2,0-5.6,0.1c-1.4,0-2.4,0.1-2.8,0.1l-1-7.4c3.1-0.1,5.8-0.4,8.1-1.1
			c2.3-0.6,4.4-1.6,6.2-2.9c1.7-1.2,3.2-2.8,4.3-4.7c1.1-1.9,1.7-4.1,1.7-6.5c0-2.5-0.6-4.7-1.9-6.5c-1.2-1.8-2.9-3.3-5.1-4.4
			c-1.8-0.9-4-1.5-6.7-2c-2.6-0.4-5.5-0.7-8.5-0.7c-1.9,0-3.7,0-5.4,0.1c-1.6,0.1-2.7,0.1-3.1,0.1c-0.1,6-0.2,12.5-0.2,19.2
			c0,6.8,0,11.7,0,14.8c0,7.1,0,14.3,0.1,21.4c0.1,7.2,0.1,11,0.1,11.5c0.8,0,1.9,0.1,3.3,0.2c1.4,0.1,2.7,0.1,4,0.1
			c4.7,0,9.2-0.2,13.2-0.7c4.1-0.5,7.5-1.5,10.3-3.1c2.3-1.3,4.1-3,5.4-5C50.2,168.2,50.9,165.8,50.9,163.1z"/>
		<path class="st1" d="M130.5,187.1c-0.4,0-3.1,0-8.3-0.1c-5.1,0-11.5-0.1-19-0.1c-5.3,0-10.1,0-14.4,0.1c-4.4,0-8.1,0.1-11.1,0.1
			c0.1-2.4,0.2-7.6,0.2-15.6c0.1-8,0.1-16.2,0.1-24.8c0-4.7,0-10.9-0.1-18.6c0-7.7-0.1-15.7-0.2-23.9c2.9,0,6.6,0,11,0.1
			c4.4,0,8.9,0.1,13.6,0.1c7.9,0,14.3,0,19.3-0.1c5,0,7.7-0.1,8.1-0.1v8.6c-0.4,0-3,0-7.8-0.1s-10.7-0.1-17.8-0.1
			c-3.1,0-6.1,0-9.1,0s-5.3,0-7.1,0c0,4.7,0,9.3-0.1,14c-0.1,4.7-0.1,9-0.1,13.2c1.9,0,4.1,0,6.6,0s4.8,0,6.8,0
			c7.3,0,13.8,0,19.5-0.1s8.8-0.1,9.2-0.1v8.6c-0.3,0-3.7,0-10.2-0.1s-12.4-0.1-17.8-0.1c-2,0-4.4,0-7.1,0c-2.8,0-5.1,0-6.9,0
			c0,7.8,0,14,0.1,18.6c0,4.6,0.1,8.4,0.1,11.5c2.4,0,5.4,0.1,8.9,0.1s7.2,0,11.2,0c6.2,0,11.3,0,15.5-0.1c4.2,0,6.5-0.1,7-0.1v9.1
			H130.5z"/>
		<path class="st1" d="M201.2,187.1c-0.4,0-3.1,0-8.3-0.1c-5.1,0-11.5-0.1-19-0.1c-5.3,0-10.1,0-14.4,0.1c-4.4,0-8.1,0.1-11.1,0.1
			c0.1-2.4,0.2-7.6,0.2-15.6c0.1-8,0.1-16.2,0.1-24.8c0-4.7,0-10.9-0.1-18.6c0-7.7-0.1-15.7-0.2-23.9c2.9,0,6.6,0,11,0.1
			c4.4,0,8.9,0.1,13.6,0.1c7.9,0,14.3,0,19.3-0.1c5,0,7.7-0.1,8.1-0.1v8.6c-0.4,0-3,0-7.8-0.1s-10.7-0.1-17.8-0.1
			c-3.1,0-6.1,0-9.1,0s-5.3,0-7.1,0c0,4.7,0,9.3-0.1,14c-0.1,4.7-0.1,9-0.1,13.2c1.9,0,4.1,0,6.6,0s4.8,0,6.8,0
			c7.3,0,13.8,0,19.5-0.1s8.8-0.1,9.2-0.1v8.6c-0.3,0-3.7,0-10.2-0.1s-12.4-0.1-17.8-0.1c-2,0-4.4,0-7.1,0c-2.8,0-5.1,0-6.9,0
			c0,7.8,0,14,0.1,18.6c0,4.6,0.1,8.4,0.1,11.5c2.4,0,5.4,0.1,8.9,0.1s7.2,0,11.2,0c6.2,0,11.3,0,15.5-0.1c4.2,0,6.5-0.1,7-0.1
			L201.2,187.1L201.2,187.1z"/>
	</g>
</g>
</svg>
