<?xml version="1.0" encoding="utf-8"?>
<!-- Generator: Adobe Illustrator 18.0.0, SVG Export Plug-In . SVG Version: 6.00 Build 0)  -->
<!DOCTYPE svg PUBLIC "-//W3C//DTD SVG 1.1//EN" "http://www.w3.org/Graphics/SVG/1.1/DTD/svg11.dtd">
<svg version="1.1" id="Layer_1" xmlns="http://www.w3.org/2000/svg" xmlns:xlink="http://www.w3.org/1999/xlink" x="0px" y="0px"
	 width="142px" height="53.7px" viewBox="0 0 142 53.7" enable-background="new 0 0 142 53.7" xml:space="preserve">
<g>
	<path fill="#252525" d="M37.4,15.6h-7.6V0.2H32v13.5h5.5V15.6z"/>
	<path fill="#252525" d="M40.3,2.9c-0.8,0-1.4-0.6-1.4-1.3c0-0.8,0.6-1.3,1.4-1.3c0.8,0,1.4,0.6,1.4,1.3C41.7,2.3,41.1,2.9,40.3,2.9
		z M41.4,15.6h-2.2V5h2.2V15.6z"/>
	<path fill="#252525" d="M49.3,1.8c0,0-0.6-0.2-1.2-0.2c-1.4,0-1.6,1-1.6,2.3v1.2H49v1.7h-2.5v8.8h-2.1V6.8h-1.5V5.1h1.5V4
		c0-1.4,0.3-2.3,0.7-2.8C45.5,0.6,46.4,0,47.6,0c1.2,0,1.8,0.2,1.8,0.2L49.3,1.8z"/>
	<path fill="#252525" d="M60.8,10.8h-8.2c0.1,2.1,1.5,3.4,3.4,3.4c2,0,3.3-1.1,3.5-1.2l0.9,1.2c-0.1,0.1-1.5,1.7-4.7,1.7
		c-3.2,0-5.3-2.2-5.3-5.5c0-3.3,2.4-5.5,5.4-5.5s5.1,2.1,5.1,5.1C60.9,10.3,60.8,10.8,60.8,10.8z M58.8,9.4c0-1.2-0.9-3-3.1-3
		c-2.1,0-3.1,1.8-3.1,3H58.8z"/>
	<path fill="#252525" d="M69.1,2.9c-0.8,0-1.4-0.6-1.4-1.3c0-0.8,0.6-1.3,1.4-1.3c0.8,0,1.4,0.6,1.4,1.3C70.4,2.3,69.9,2.9,69.1,2.9
		z M70.1,15.6H68V5h2.2V15.6z"/>
	<path fill="#252525" d="M81.9,15.6h-2.2V9.7c0-1.8-0.3-3.1-2.2-3.1c-2,0-2.7,1.7-2.7,3.7v5.3h-2.2V5h2.2l0,1.7h0.1
		c0.6-1,1.7-1.9,3.3-1.9c3,0,3.8,2,3.8,4.5V15.6z"/>
	<path fill="#252525" d="M94.4,15.9c-3.2,0-5.7-2.2-5.7-5.5c0-3.3,2.5-5.5,5.7-5.5c3.2,0,5.6,2.3,5.6,5.5
		C100,13.7,97.5,15.9,94.4,15.9z M94.4,6.6c-2.2,0-3.5,1.6-3.5,3.7c0,2.1,1.3,3.7,3.5,3.7c2.1,0,3.5-1.6,3.5-3.7
		C97.8,8.2,96.5,6.6,94.4,6.6z"/>
	<path fill="#252525" d="M110.5,15.6h-2.1l0-1.5c-0.6,1-1.8,1.8-3.3,1.8c-1.5,0-2.4-0.5-3-1.2c-0.5-0.7-0.8-1.8-0.8-3.3V5h2.1v6.3
		c0,1.4,0.3,2.8,2.2,2.8c1.9,0,2.7-1.6,2.7-3.4V5h2.2V15.6z"/>
	<path fill="#252525" d="M119.2,7L119.2,7c-0.3-0.1-0.7-0.2-1.3-0.2c-0.9,0-1.5,0.6-1.8,0.9c-0.2,0.3-0.7,1.1-0.7,2.7v5.3h-2.2V5
		h2.2l0,1.6h0.1c0.5-1.2,1.5-1.8,2.6-1.8c0.7,0,1.1,0.2,1.1,0.2L119.2,7z"/>
</g>
<g>
	<path fill="#13A9D6" d="M21.2,29.8h-6.8v11c0,2.6,0.4,3.2,0.9,3.8c0.4,0.5,1.1,0.7,2.4,0.7c1.6,0,3-0.6,3-0.6l0.5,7.8
		c-0.7,0.2-3.5,1-7.1,1c-3.6,0-5.9-1.1-7.5-2.9c-1.6-1.8-2.2-4.4-2.2-9V29.8H0v-7.5h4.4v-8.4h10v8.4h6.8V29.8z"/>
	<path fill="#13A9D6" d="M54.5,40H32.6c0.4,4.4,3.8,6.4,7.9,6.4c4,0,7.5-1.7,9.2-2.9l3.9,5.2c-1,0.7-5.1,5-14.6,5
		c-9.5,0-16.4-5.9-16.4-16s7.5-16,16.6-16s15.4,6.1,15.4,15C54.6,38.2,54.5,40,54.5,40z M45.3,34.3c-0.1-2.8-2.1-6.2-6.3-6.2
		c-4.1,0-6.2,3.2-6.4,6.2H45.3z"/>
	<path fill="#13A9D6" d="M87.9,53h-9.5l-0.2-3.2c-1.3,1.3-3.8,3.9-8.8,3.9c-5.4,0-11.2-2.9-11.2-9.8c0-6.9,6.3-9.2,12-9.4l7.7-0.3
		v-0.7c0-3.2-2.3-4.9-6.3-4.9c-3.9,0-7.9,1.7-9.4,2.7l-2.6-6.5c2.6-1.3,7.4-3.1,13.2-3.1c5.7,0,9,1.3,11.5,3.6
		c2.4,2.2,3.7,5.2,3.7,10.4V53z M78,39.4L73,39.7c-3.1,0.1-4.9,1.4-4.9,3.7c0,2.4,1.9,3.8,4.7,3.8c2.7,0,4.5-1.7,5.1-2.8V39.4z"/>
	<path fill="#13A9D6" d="M142,53h-10V36.2c0-3.3-0.6-6.4-4.1-6.4c-3.5,0-5,3.1-5,7.4V53h-10V36.2c0-3.8-0.9-6.4-4.1-6.4
		c-3.5,0-5,3.1-5,7.4V53h-10V22.2h10l-0.1,4.4l0.1-0.1c1.6-2.6,4.6-4.9,8.5-4.9c4.2,0,7.6,1.4,9.2,5.6c2.2-3.7,5.2-5.6,9.8-5.6
		c7.9,0,10.7,5.4,10.7,12.8V53z"/>
</g>
</svg>
