<?xml version="1.0" encoding="utf-8"?>
<!-- Generator: Adobe Illustrator 21.0.2, SVG Export Plug-In . SVG Version: 6.00 Build 0)  -->
<svg version="1.1" id="Vrstva_1" xmlns="http://www.w3.org/2000/svg" xmlns:xlink="http://www.w3.org/1999/xlink" x="0px" y="0px"
	 viewBox="0 0 338 197" style="enable-background:new 0 0 338 197;" xml:space="preserve">
<style type="text/css">
	.st0{fill-rule:evenodd;clip-rule:evenodd;fill:#2AA0C5;}
	.st1{fill-rule:evenodd;clip-rule:evenodd;fill:#DEDFE1;}
	.st2{fill:#2AA0C5;}
</style>
<g>
	<path class="st0" d="M335.9,102l-2.6,0.5c-0.3,1.6-0.8,3.1-1.5,4.6l1.9,2c0.9,0.9,0.9,2.4,0.1,3.4l-2.8,3.3c-0.8,1-2.3,1.2-3.4,0.5
		l-2.4-1.5c-1.4,0.9-2.8,1.7-4.4,2.2l-0.1,2.8c0,1.3-1.1,2.4-2.4,2.5l-4.3,0.4c-1.3,0.1-2.5-0.8-2.8-2.1l-0.6-2.9
		c-1.5-0.3-3-0.8-4.4-1.4l-2.1,2c-1,0.9-2.4,0.9-3.4,0.1l-3.3-2.7c-1-0.8-1.2-2.3-0.5-3.4l1.6-2.4c-0.8-1.2-1.5-2.5-2.1-3.9
		l-2.9-0.1c-1.3,0-2.4-1.1-2.5-2.4l-0.4-4.2c-0.1-1.3,0.8-2.5,2.1-2.7l2.7-0.5c0.3-1.6,0.7-3.1,1.4-4.6l-1.9-2
		c-0.9-0.9-0.9-2.4-0.1-3.4l2.8-3.3c0.8-1,2.3-1.2,3.4-0.5l2.2,1.4c1.4-1,3-1.8,4.6-2.4l0.1-2.5c0-1.3,1.1-2.4,2.4-2.5l4.3-0.4
		c1.3-0.1,2.5,0.8,2.8,2.1l0.5,2.5c1.7,0.3,3.3,0.8,4.8,1.5l1.8-1.7c1-0.9,2.4-0.9,3.4-0.1l3.3,2.7c1,0.8,1.2,2.3,0.5,3.4l-1.4,2.1
		c0.9,1.3,1.6,2.7,2.2,4.3l2.6,0.1c1.3,0,2.4,1.1,2.5,2.4l0.4,4.2C338.1,100.5,337.2,101.7,335.9,102L335.9,102z M322.9,98.3
		c-0.4-4.6-4.4-8-9-7.6c-4.6,0.4-8,4.4-7.6,9c0.4,4.6,4.4,8,9,7.6C319.9,106.9,323.3,102.9,322.9,98.3L322.9,98.3z M296.4,80.5
		l-3.7,0.4c-0.5,1.9-1.3,3.7-2.3,5.5l2.4,3c0.8,1,0.7,2.5-0.2,3.5l-4.4,4.4c-0.9,0.9-2.4,1-3.5,0.2l-3.1-2.4c-1.7,1-3.6,1.7-5.6,2.2
		l-0.5,3.9c-0.2,1.3-1.3,2.3-2.6,2.3h-6.2c-1.3,0-2.4-1-2.6-2.3l-0.5-4.1c-1.8-0.5-3.5-1.2-5.2-2.2l-1,0.8V54.3l0.7,0.5
		c1.8-1.1,3.8-1.9,5.8-2.5l0.4-3.5c0.2-1.3,1.3-2.3,2.6-2.3h6.2c1.3,0,2.4,1,2.6,2.3l0.4,3.5c2,0.5,3.9,1.3,5.7,2.4l2.7-2.2
		c1-0.8,2.5-0.7,3.5,0.2l4.4,4.3c0.9,0.9,1,2.4,0.2,3.5l-2.2,2.8c1,1.7,1.7,3.5,2.2,5.4l3.6,0.4c1.3,0.2,2.3,1.3,2.3,2.6v6.2
		C298.7,79.3,297.7,80.4,296.4,80.5L296.4,80.5z M270.2,64.6c-5.6,0-10.2,4.6-10.2,10.2c0,5.6,4.6,10.2,10.2,10.2
		c5.6,0,10.2-4.6,10.2-10.2C280.4,69.2,275.8,64.6,270.2,64.6L270.2,64.6z M270.4,108.1l1.3,1.1c1.2-0.7,2.5-1.2,3.9-1.6l0.2-1.6
		c0.2-1.3,1.3-2.3,2.6-2.2l2.6,0c1.3,0,2.4,1,2.5,2.3l0.2,1.6c1.3,0.4,2.6,0.9,3.8,1.6l1.3-1c1-0.8,2.5-0.7,3.4,0.2l1.8,1.9
		c0.9,0.9,1,2.4,0.2,3.4l-1,1.3c0.6,1.1,1.1,2.4,1.4,3.6l1.7,0.2c1.3,0.2,2.3,1.3,2.3,2.6l0,2.6c0,1.3-1,2.4-2.3,2.5l-1.7,0.2
		c-0.4,1.3-0.9,2.5-1.6,3.6l1.1,1.4c0.8,1,0.7,2.5-0.2,3.4l-1.9,1.8c-0.9,0.9-2.4,1-3.4,0.2l-1.4-1.2c-1.2,0.6-2.4,1.1-3.7,1.4
		l-0.2,1.9c-0.2,1.3-1.3,2.3-2.6,2.3l-2.6,0c-1.3,0-2.4-1-2.5-2.3l-0.2-2c-1.2-0.4-2.4-0.9-3.4-1.5l-1.5,1.2
		c-0.7,0.6-1.7,0.7-2.5,0.4V108h-0.3C268.2,107.3,269.5,107.3,270.4,108.1L270.4,108.1z M279.4,129.3c3.8,0,6.9-3,6.9-6.7
		c0-3.7-3-6.8-6.7-6.9c-3.8,0-6.9,3-6.9,6.7C272.7,126.2,275.7,129.3,279.4,129.3L279.4,129.3z"/>
	<path class="st1" d="M259,197H18c-8.8,0-16-7.2-16-16.1v-16.1h273V181C275,189.8,267.8,197,259,197L259,197z M158.8,173.7h-40.7
		v2.9h40.7V173.7L158.8,173.7z M266.3,173.7H164.6v8.8h-52.3v-8.8H10.7v7.3c0,4,3.3,7.3,7.3,7.3H259c4,0,7.3-3.3,7.3-7.3V173.7
		L266.3,173.7z M253.9,183.9c-2,0-3.6-1.6-3.6-3.6c0-2,1.6-3.7,3.6-3.7c2,0,3.6,1.6,3.6,3.7C257.6,182.2,256,183.9,253.9,183.9
		L253.9,183.9z M239.4,183.9c-2,0-3.6-1.6-3.6-3.6c0-2,1.6-3.7,3.6-3.7c2,0,3.6,1.6,3.6,3.7C243.1,182.2,241.4,183.9,239.4,183.9
		L239.4,183.9z M224.9,183.9c-2,0-3.6-1.6-3.6-3.6c0-2,1.6-3.7,3.6-3.7c2,0,3.6,1.6,3.6,3.7C228.5,182.2,226.9,183.9,224.9,183.9
		L224.9,183.9z M240.1,138h8.7v18.1h-8.7V138L240.1,138z M142.1,33.3c0,2-1.6,3.6-3.6,3.6c-2,0-3.6-1.6-3.6-3.6c0-2,1.6-3.7,3.6-3.7
		C140.5,29.6,142.1,31.2,142.1,33.3L142.1,33.3z M240.1,47.9H110v-5.8h130.1v-11c0-4-3.3-7.3-7.3-7.3H110V15h122.9
		c8.8,0,16,7.2,16,16.1V114h-8.7V47.9L240.1,47.9z M28.1,108h8.7v47.2h-8.7V108L28.1,108z"/>
	<path class="st2" d="M90,98v-8h8v8H90L90,98z M72,98v-8h8v8H72L72,98z M54,98v-8h8v8H54L54,98z M36,98v-8h8v8H36L36,98z M18,98v-8
		h8v8H18L18,98z M0,98v-8h8v8H0L0,98z M0,80v-8h8v8H0L0,80z M0,62v-8h8v8H0L0,62z M0,44v-8h8v8H0L0,44z M0,26v-8h8v8H0L0,26z M0,8V0
		h8v8H0L0,8z M90,80v-8h8v8H90L90,80z M90,62v-8h8v8H90L90,62z M90,44v-8h8v8H90L90,44z M90,26v-8h8v8H90L90,26z M90,8V0h8v8H90
		L90,8z M72,8V0h8v8H72L72,8z M54,8V0h8v8H54L54,8z M36,8V0h8v8H36L36,8z M18,8V0h8v8H18L18,8z"/>
	<polygon class="st1" points="253,122 261,122 261,130 253,130 253,122 	"/>
	<polygon class="st1" points="237,122 245,122 245,130 237,130 237,122 	"/>
	<polygon class="st1" points="219,122 227,122 227,130 219,130 219,122 	"/>
	<polygon class="st1" points="203,122 211,122 211,130 203,130 203,122 	"/>
	<polygon class="st1" points="187,122 195,122 195,130 187,130 187,122 	"/>
	<polygon class="st1" points="171,122 179,122 179,130 171,130 171,122 	"/>
	<polygon class="st1" points="153,122 161,122 161,130 153,130 153,122 	"/>
	<polygon class="st1" points="137,122 145,122 145,130 137,130 137,122 	"/>
	<polygon class="st1" points="121,122 129,122 129,130 121,130 121,122 	"/>
	<polygon class="st1" points="105,122 113,122 113,130 105,130 105,122 	"/>
	<polygon class="st1" points="87,122 95,122 95,130 87,130 87,122 	"/>
	<polygon class="st1" points="71,122 79,122 79,130 71,130 71,122 	"/>
	<polygon class="st1" points="55,122 63,122 63,130 55,130 55,122 	"/>
	<polygon class="st1" points="55,106 63,106 63,114 55,114 55,106 	"/>
	<path class="st2" d="M25.9,46.5v-4.2h4.3v-11l-3.3,2.6l-2.3-3.1l7-5.4h3.2v16.9h4.3v4.2H25.9L25.9,46.5z M56.4,40.7
		c-0.4,1.4-0.9,2.5-1.6,3.4c-0.7,0.9-1.6,1.6-2.6,2.1c-1,0.5-2.1,0.7-3.3,0.7c-2.6,0-4.6-1-5.9-2.9c-1.3-1.9-2-4.6-2-8.1
		c0-1.8,0.2-3.4,0.6-4.7c0.4-1.4,0.9-2.5,1.6-3.4c0.7-0.9,1.6-1.6,2.5-2.1c1-0.5,2.1-0.7,3.3-0.7c2.5,0,4.5,0.9,5.9,2.7
		c1.4,1.8,2,4.5,2,8.2C57,37.7,56.8,39.3,56.4,40.7L56.4,40.7z M49,29.2c-1,0-1.8,0.5-2.3,1.5c-0.6,1.1-0.9,2.9-0.9,5.2
		c0,0.2,0,0.3,0,0.5l5.8-5.4C51,29.8,50.2,29.2,49,29.2L49,29.2z M52.3,35.4l-5.8,5.4c0.5,1.3,1.4,1.9,2.6,1.9c1,0,1.8-0.5,2.3-1.5
		c0.6-1.1,0.9-2.9,0.9-5.3C52.3,35.7,52.3,35.6,52.3,35.4L52.3,35.4z M73.4,40.7c-0.4,1.4-0.9,2.5-1.6,3.4c-0.7,0.9-1.6,1.6-2.6,2.1
		c-1,0.5-2.1,0.7-3.3,0.7c-2.6,0-4.6-1-5.9-2.9c-1.3-1.9-2-4.6-2-8.1c0-1.8,0.2-3.4,0.6-4.7c0.4-1.4,0.9-2.5,1.6-3.4
		c0.7-0.9,1.6-1.6,2.5-2.1c1-0.5,2.1-0.7,3.3-0.7c2.5,0,4.5,0.9,5.9,2.7c1.4,1.8,2,4.5,2,8.2C74,37.7,73.8,39.3,73.4,40.7L73.4,40.7
		z M66,29.2c-1,0-1.8,0.5-2.3,1.5c-0.6,1.1-0.9,2.9-0.9,5.2c0,0.2,0,0.3,0,0.5l5.8-5.4C68.1,29.8,67.2,29.2,66,29.2L66,29.2z
		 M69.3,35.4l-5.8,5.4c0.5,1.3,1.4,1.9,2.6,1.9c1,0,1.8-0.5,2.3-1.5c0.6-1.1,0.9-2.9,0.9-5.3C69.3,35.7,69.3,35.6,69.3,35.4
		L69.3,35.4z M39.4,65.8c-0.4,1.4-0.9,2.5-1.6,3.4c-0.7,0.9-1.6,1.6-2.6,2.1c-1,0.5-2.1,0.7-3.3,0.7c-2.6,0-4.6-1-5.9-2.9
		c-1.3-1.9-2-4.6-2-8.1c0-1.8,0.2-3.4,0.6-4.7c0.4-1.4,0.9-2.5,1.6-3.4c0.7-0.9,1.6-1.6,2.5-2.1c1-0.5,2.1-0.7,3.3-0.7
		c2.6,0,4.5,0.9,5.9,2.7c1.4,1.8,2,4.5,2,8.2C40,62.8,39.8,64.4,39.4,65.8L39.4,65.8z M31.9,54.3c-1,0-1.8,0.5-2.3,1.5
		c-0.6,1.1-0.9,2.9-0.9,5.2c0,0.2,0,0.3,0,0.5l5.8-5.4C34,54.8,33.2,54.3,31.9,54.3L31.9,54.3z M35.2,60.5l-5.8,5.4
		c0.5,1.3,1.4,1.9,2.6,1.9c1,0,1.8-0.5,2.3-1.5c0.6-1.1,0.9-2.9,0.9-5.3C35.2,60.8,35.2,60.6,35.2,60.5L35.2,60.5z M43,71.6v-4.2
		h4.3v-11L44,59l-2.3-3.1l7-5.4h3.2v16.9h4.3v4.2H43L43,71.6z M60,71.6v-4.2h4.3v-11L61,59l-2.3-3.1l7-5.4h3.2v16.9h4.3v4.2H60
		L60,71.6z"/>
</g>
</svg>
