<?xml version="1.0" encoding="utf-8"?>
<!-- Generator: Adobe Illustrator 18.0.0, SVG Export Plug-In . SVG Version: 6.00 Build 0)  -->
<!DOCTYPE svg PUBLIC "-//W3C//DTD SVG 1.1//EN" "http://www.w3.org/Graphics/SVG/1.1/DTD/svg11.dtd">
<svg version="1.1" id="Layer_1" xmlns="http://www.w3.org/2000/svg" xmlns:xlink="http://www.w3.org/1999/xlink" x="0px" y="0px"
	 width="478px" height="60px" viewBox="0 0 478 60" enable-background="new 0 0 478 60" xml:space="preserve">
<g>
	<path fill="#252525" d="M129.1,3.3h-6.9v4.3h6.5v3.3h-6.5v6.7H118V0h11.1V3.3z"/>
	<path fill="#252525" d="M143.2,12.3h-9c0.2,1.8,1.6,2.6,3.2,2.6c1.6,0,3.1-0.7,3.8-1.2l1.6,2.1c-0.4,0.3-2.1,2-6,2
		c-3.9,0-6.7-2.4-6.7-6.6c0-4.2,3.1-6.5,6.8-6.5c3.7,0,6.3,2.5,6.3,6.1C143.3,11.5,143.2,12.3,143.2,12.3z M139.5,10
		c0-1.1-0.9-2.5-2.6-2.5c-1.7,0-2.6,1.3-2.6,2.5H139.5z"/>
	<path fill="#252525" d="M156.3,17.6h-3.9l-0.1-1.3c-0.5,0.5-1.6,1.6-3.6,1.6c-2.2,0-4.6-1.2-4.6-4c0-2.8,2.6-3.7,4.9-3.8l3.2-0.1
		V9.6c0-1.3-0.9-2-2.6-2c-1.6,0-3.2,0.7-3.9,1.1l-1.1-2.7c1.1-0.5,3.1-1.3,5.4-1.3c2.4,0,3.7,0.5,4.7,1.5c1,0.9,1.5,2.1,1.5,4.3
		V17.6z M152.3,12.1l-2,0.1c-1.3,0.1-2,0.6-2,1.5c0,1,0.8,1.6,1.9,1.6c1.1,0,1.8-0.7,2.1-1.1V12.1z"/>
	<path fill="#252525" d="M166.7,8.1h-2.8v4.5c0,1.1,0.2,1.3,0.4,1.6c0.2,0.2,0.4,0.3,1,0.3c0.6,0,1.2-0.2,1.2-0.2l0.2,3.2
		c-0.3,0.1-1.4,0.4-2.9,0.4c-1.5,0-2.4-0.4-3.1-1.2c-0.6-0.7-0.9-1.8-0.9-3.7V8.1h-1.8V5h1.8V1.6h4.1V5h2.8V8.1z"/>
	<path fill="#252525" d="M180.3,17.6h-4l0-1.4c-0.5,0.8-1.9,1.7-3.7,1.7c-1.8,0-3-0.6-3.6-1.5c-0.6-0.9-0.9-2-0.9-3.8V5h4.1v7
		c0,1.5,0.4,2.4,1.9,2.4c1.5,0,2.1-1.1,2.1-2.8V5h4.1V17.6z"/>
	<path fill="#252525" d="M191.7,8.8h-0.2c-0.2-0.1-0.8-0.3-1.5-0.3c-0.9,0-1.6,0.5-1.9,0.9c-0.3,0.4-0.6,1.2-0.6,2.6v5.6h-4.1V5h4.1
		l0,1.8h0.1c0.7-1.4,1.8-2,3.1-2c0.8,0,1.3,0.2,1.3,0.2L191.7,8.8z"/>
	<path fill="#252525" d="M204.8,12.3h-9c0.2,1.8,1.6,2.6,3.2,2.6c1.6,0,3.1-0.7,3.8-1.2l1.6,2.1c-0.4,0.3-2.1,2-6,2
		c-3.9,0-6.7-2.4-6.7-6.6c0-4.2,3.1-6.5,6.8-6.5c3.7,0,6.3,2.5,6.3,6.1C204.8,11.5,204.8,12.3,204.8,12.3z M201,10
		c0-1.1-0.9-2.5-2.6-2.5c-1.7,0-2.6,1.3-2.6,2.5H201z"/>
	<path fill="#252525" d="M219.9,17.6H216l0-1.7l-0.1,0c-0.9,1.3-2.5,1.9-4.2,1.9c-3.7,0-6-2.9-6-6.6c0-3.7,2.3-6.5,6-6.5
		c2.3,0,3.6,1.1,4,1.8V0h4.1V17.6z M213,8c-1.8,0-3,1.3-3,3.3s1.2,3.3,3,3.3c1.8,0,3-1.3,3-3.3S214.7,8,213,8z"/>
	<path fill="#252525" d="M247.4,5l-4.2,12.6h-3.9l-2.5-7.7l-2.5,7.7h-3.9L226.4,5h4.2l2.2,8l2.4-8h3.4l2.4,8l2.2-8H247.4z"/>
	<path fill="#252525" d="M255.2,17.9c-4,0-7-2.5-7-6.5s3-6.6,7-6.6c4,0,7,2.5,7,6.6S259.2,17.9,255.2,17.9z M255.2,8
		c-1.8,0-2.9,1.4-2.9,3.3s1.1,3.3,2.9,3.3c1.8,0,2.9-1.4,2.9-3.3S257,8,255.2,8z"/>
	<path fill="#252525" d="M272.4,8.8h-0.2c-0.2-0.1-0.8-0.3-1.5-0.3c-0.9,0-1.6,0.5-1.9,0.9c-0.3,0.4-0.6,1.2-0.6,2.6v5.6h-4.1V5h4.1
		l0,1.8h0.1c0.7-1.4,1.8-2,3.1-2c0.8,0,1.3,0.2,1.3,0.2L272.4,8.8z"/>
	<path fill="#252525" d="M287.3,17.6h-4.7l-3.1-4.9l-1.1,1.1v3.8h-4.1V0h4.1v9.2l3.8-4.2h4.7l-4.6,4.7L287.3,17.6z"/>
</g>
<g>
	<path fill="#252525" d="M60.2,17.7L48.1,59h-9.9l-7.9-28.3L22.4,59h-9.9L0.4,17.7h10.2l7.3,27.8l7.5-27.8h9.8l7.6,27.8l7.2-27.8
		H60.2z"/>
	<path fill="#252525" d="M89.4,46.6H68.2c0.4,4.3,3.7,6.2,7.6,6.2c3.9,0,7.3-1.7,8.9-2.8l3.8,5c-1,0.7-4.9,4.8-14.2,4.8
		c-9.2,0-15.9-5.6-15.9-15.4c0-9.8,7.3-15.3,16.1-15.3c8.8,0,14.9,5.8,14.9,14.4C89.6,44.8,89.4,46.6,89.4,46.6z M80.6,41.1
		c-0.1-2.7-2.1-5.9-6.1-5.9c-4,0-6,3.1-6.2,5.9H80.6z"/>
	<path fill="#252525" d="M106.7,17.7l-6.1,14.9h-7.9l4.8-14.9H106.7z"/>
	<path fill="#252525" d="M140.9,29.5L128.6,59h-9.1l-12.2-29.5h10.1l6.8,18.7l6.7-18.7H140.9z"/>
	<path fill="#252525" d="M172.2,46.6H151c0.4,4.3,3.7,6.2,7.6,6.2c3.9,0,7.3-1.7,8.9-2.8l3.8,5c-1,0.7-4.9,4.8-14.2,4.8
		c-9.2,0-15.9-5.6-15.9-15.4c0-9.8,7.3-15.3,16.1-15.3c8.8,0,14.9,5.8,14.9,14.4C172.3,44.8,172.2,46.6,172.2,46.6z M163.3,41.1
		c-0.1-2.7-2.1-5.9-6.1-5.9c-4,0-6,3.1-6.2,5.9H163.3z"/>
	<path fill="#00A7D7" d="M234.9,29.5L225.1,59h-9.1l-5.8-18.1L204.3,59h-9.1l-9.8-29.5h9.8l5.3,18.9l5.7-18.9h7.9l5.7,18.9l5.3-18.9
		H234.9z"/>
	<path fill="#00A7D7" d="M251.7,59.7c-9.4,0-16.6-5.8-16.6-15.3c0-9.5,7.1-15.4,16.6-15.4c9.4,0,16.5,5.9,16.5,15.4
		C268.2,53.9,261.1,59.7,251.7,59.7z M251.7,36.5c-4.3,0-6.8,3.3-6.8,7.7s2.5,7.7,6.8,7.7c4.2,0,6.8-3.3,6.8-7.7
		S255.9,36.5,251.7,36.5z"/>
	<path fill="#00A7D7" d="M292.8,38.3h-0.4c-0.5-0.3-1.8-0.7-3.5-0.7c-2.2,0-3.7,1.2-4.5,2.2c-0.7,1-1.5,2.9-1.5,6.2V59h-9.7V29.5
		h9.7l-0.1,4.2h0.1c1.7-3.2,4.2-4.7,7.4-4.7c2,0,3,0.5,3,0.5L292.8,38.3z"/>
	<path fill="#00A7D7" d="M327.4,59h-11.1L309,47.5l-2.7,2.6V59h-9.7V17.7h9.7v21.6l9.1-9.8h11.1l-10.9,11.1L327.4,59z"/>
	<path fill="#00A7D7" d="M357.8,46.6h-21.2c0.4,4.3,3.7,6.2,7.6,6.2c3.9,0,7.3-1.7,9-2.8l3.8,5c-1,0.7-4.9,4.8-14.1,4.8
		c-9.2,0-15.9-5.6-15.9-15.4c0-9.8,7.3-15.3,16.1-15.3c8.8,0,14.9,5.8,14.9,14.4C357.9,44.8,357.8,46.6,357.8,46.6z M348.9,41.1
		c-0.1-2.7-2.1-5.9-6.1-5.9c-4,0-6,3.1-6.2,5.9H348.9z"/>
	<path fill="#00A7D7" d="M393.4,59h-9.2l0.1-3.9l-0.2,0.1c-2.2,3-5.8,4.5-9.8,4.5c-8.6,0-14.1-6.7-14.1-15.4S365.7,29,374.3,29
		c5.4,0,8.5,2.7,9.4,4.1V17.7h9.7V59z M377.1,36.5c-4.2,0-7,3.1-7,7.7s2.8,7.7,7,7.7s7-3.1,7-7.7S381.3,36.5,377.1,36.5z"/>
	<path fill="#00A7D7" d="M427.2,59.7c-9.4,0-16.6-5.8-16.6-15.3c0-9.5,7.1-15.4,16.6-15.4c9.4,0,16.5,5.9,16.5,15.4
		C443.7,53.9,436.7,59.7,427.2,59.7z M427.2,36.5c-4.3,0-6.8,3.3-6.8,7.7s2.5,7.7,6.8,7.7c4.2,0,6.8-3.3,6.8-7.7
		S431.5,36.5,427.2,36.5z"/>
	<path fill="#00A7D7" d="M478,59h-9.7V43.6c0-3.9-0.6-6.8-4.6-6.8c-4.2,0-5.3,3.4-5.3,7.6V59h-9.7V29.5h9.7l-0.1,4.3h0.1
		c1.6-2.6,4.4-4.8,8.6-4.8c8.6,0,10.9,5.5,10.9,12.6V59z"/>
</g>
<rect x="0" y="0.1" fill="none" width="476.9" height="59.9"/>
</svg>
