<?xml version="1.0" encoding="utf-8"?>
<!-- Generator: Adobe Illustrator 21.0.2, SVG Export Plug-In . SVG Version: 6.00 Build 0)  -->
<svg version="1.1" id="Vrstva_1" xmlns="http://www.w3.org/2000/svg" xmlns:xlink="http://www.w3.org/1999/xlink" x="0px" y="0px"
	 viewBox="0 0 314 221" style="enable-background:new 0 0 314 221;" xml:space="preserve">
<style type="text/css">
	.st0{fill-rule:evenodd;clip-rule:evenodd;fill:#2AA0C5;}
	.st1{fill:#DEDFE1;}
	.st2{fill-rule:evenodd;clip-rule:evenodd;fill:#DEDFE1;}
</style>
<g>
	<path class="st0" d="M298.4,212.4h-48.3c-3.9,0-7.1-3.2-7.1-7.1v-7.1h62.5v7.1C305.5,209.2,302.3,212.4,298.4,212.4L298.4,212.4z
		 M243,192.5h62.5v-88.4H243V192.5L243,192.5z M250.1,88.4h48.3c3.9,0,7.1,3.2,7.1,7.1v2.9H243v-2.9C243,91.6,246.2,88.4,250.1,88.4
		L250.1,88.4z M298.4,79.8h-48.3c-8.6,0-15.6,7-15.6,15.7v109.8c0,8.6,7,15.7,15.6,15.7h48.3c8.6,0,15.6-7,15.6-15.7V95.5
		C314,86.9,307,79.8,298.4,79.8L298.4,79.8z"/>
	<path class="st1" d="M286,26l-0.4-10.3c0-3.9-3.2-7.1-7.1-7.1H79.6c-3.9,0-7.1,3.2-7.1,7.1L72,26h-8V15.7C64,7,71,0,79.6,0h198.9
		c8.6,0,15.6,7,15.6,15.7V26H286L286,26z M179.1,20.6c-2,0-3.6-1.6-3.6-3.6c0-2,1.6-3.6,3.6-3.6c2,0,3.5,1.6,3.5,3.6
		C182.6,19,181,20.6,179.1,20.6L179.1,20.6z M179.1,20.6c-2,0-3.6-1.6-3.6-3.6c0-2,1.6-3.6,3.6-3.6c2,0,3.5,1.6,3.5,3.6
		C182.6,19,181,20.6,179.1,20.6L179.1,20.6z"/>
	<path class="st1" d="M274.2,210.2c-2.7,0-5-2.2-5-5c0-2.8,2.2-5,5-5c2.7,0,5,2.2,5,5C279.2,208,277,210.2,274.2,210.2L274.2,210.2z
		 M79.6,179.7c-8.6,0-15.6-7-15.6-15.7v-6.9l8.5-0.3v7.1c0,3.9,3.2,7.1,7.1,7.1h146.3v8.6H79.6L79.6,179.7z M122.2,221v-8.6h24.1
		c5.5,0,9.9-4.5,9.9-10v-17.1h8.5v17.1c0,3.7-1.1,7.1-2.9,10h34.3c-1.9-2.9-2.9-6.3-2.9-10v-17.1h8.5v17.1c0,5.5,4.5,10,9.9,10h14.2
		v8.6H122.2L122.2,221z M193.3,166.8c-2,0-3.6-1.6-3.6-3.6c0-2,1.6-3.6,3.6-3.6c2,0,3.5,1.6,3.5,3.6
		C196.8,165.2,195.2,166.8,193.3,166.8L193.3,166.8z M179.1,166.8c-2,0-3.6-1.6-3.6-3.6c0-2,1.6-3.6,3.6-3.6c2,0,3.5,1.6,3.5,3.6
		C182.6,165.2,181,166.8,179.1,166.8L179.1,166.8z M164.9,166.8c-2,0-3.6-1.6-3.6-3.6c0-2,1.6-3.6,3.6-3.6c2,0,3.5,1.6,3.5,3.6
		C168.4,165.2,166.8,166.8,164.9,166.8L164.9,166.8z"/>
	<polygon class="st0" points="285,73.6 285,34 72,34 72,149 226,149 226,157 64,157 64,26 75,26 226,26 294,26 294,73.6 285,73.6 	
		"/>
	<polygon class="st2" points="0,177 44,177 44,187 0,187 0,177 	"/>
	<polygon class="st2" points="19,194 105,194 105,204 19,204 19,194 	"/>
</g>
</svg>
